SourceSerif_2.ufo
<glyph name="numbersign" format="2">
	<unicode hex="0023"/>
	<advance width="583"/>
	<outline>
		<contour>
			<point x="87" y="0" type="line"/>
			<point x="182" y="0" type="line"/>
			<point x="278" y="640" type="line"/>
			<point x="183" y="640" type="line"/>
		</contour>
		<contour>
			<point x="16" y="271" type="line"/>
			<point x="16" y="151" type="line"/>
			<point x="534" y="151" type="line"/>
			<point x="534" y="271" type="line"/>
		</contour>
		<contour>
			<point x="568" y="367" type="line"/>
			<point x="568" y="487" type="line"/>
			<point x="50" y="487" type="line"/>
			<point x="50" y="367" type="line"/>
		</contour>
		<contour>
			<point x="312" y="0" type="line"/>
			<point x="408" y="0" type="line"/>
			<point x="504" y="640" type="line"/>
			<point x="409" y="640" type="line"/>
		</contour>
	</outline>
</glyph>
<glyph name="percent" format="2">
	<unicode hex="0025"/>
	<advance width="888"/>
	<outline>
		<contour>
			<point x="700" y="-9" type="curve" smooth="yes"/>
			<point x="784" y="-9"/>
			<point x="859" y="55"/>
			<point x="859" y="193" type="curve" smooth="yes"/>
			<point x="859" y="333"/>
			<point x="784" y="397"/>
			<point x="700" y="397" type="curve" smooth="yes"/>
			<point x="615" y="397"/>
			<point x="543" y="333"/>
			<point x="543" y="193" type="curve" smooth="yes"/>
			<point x="543" y="55"/>
			<point x="615" y="-9"/>
		</contour>
		<contour>
			<point x="700" y="25" type="curve" smooth="yes"/>
			<point x="673" y="25"/>
			<point x="655" y="56"/>
			<point x="655" y="193" type="curve" smooth="yes"/>
			<point x="655" y="331"/>
			<point x="673" y="363"/>
			<point x="700" y="363" type="curve" smooth="yes"/>
			<point x="727" y="363"/>
			<point x="747" y="330"/>
			<point x="747" y="193" type="curve" smooth="yes"/>
			<point x="747" y="57"/>
			<point x="727" y="25"/>
		</contour>
		<contour>
			<point x="186" y="256" type="curve" smooth="yes"/>
			<point x="270" y="256"/>
			<point x="345" y="320"/>
			<point x="345" y="458" type="curve" smooth="yes"/>
			<point x="345" y="598"/>
			<point x="270" y="662"/>
			<point x="186" y="662" type="curve" smooth="yes"/>
			<point x="101" y="662"/>
			<point x="29" y="598"/>
			<point x="29" y="458" type="curve" smooth="yes"/>
			<point x="29" y="320"/>
			<point x="101" y="256"/>
		</contour>
		<contour>
			<point x="186" y="290" type="curve" smooth="yes"/>
			<point x="159" y="290"/>
			<point x="141" y="321"/>
			<point x="141" y="458" type="curve" smooth="yes"/>
			<point x="141" y="596"/>
			<point x="159" y="628"/>
			<point x="186" y="628" type="curve" smooth="yes"/>
			<point x="213" y="628"/>
			<point x="233" y="595"/>
			<point x="233" y="458" type="curve" smooth="yes"/>
			<point x="233" y="322"/>
			<point x="213" y="290"/>
		</contour>
		<component base="fraction" xOffset="374"/>
	</outline>
</glyph>
<glyph name="asterisk" format="2">
	<unicode hex="002A"/>
	<advance width="427"/>
	<outline>
		<contour>
			<point x="215" y="498" type="line"/>
			<point x="247" y="579" type="line" smooth="yes"/>
			<point x="263" y="618"/>
			<point x="270" y="645"/>
			<point x="270" y="669" type="curve" smooth="yes"/>
			<point x="270" y="701"/>
			<point x="252" y="731"/>
			<point x="213" y="731" type="curve" smooth="yes"/>
			<point x="175" y="731"/>
			<point x="157" y="701"/>
			<point x="157" y="669" type="curve" smooth="yes"/>
			<point x="157" y="651"/>
			<point x="162" y="621"/>
			<point x="179" y="579" type="curve" smooth="yes"/>
			<point x="211" y="498" type="line"/>
		</contour>
		<contour>
			<point x="193" y="511" type="line"/>
			<point x="280" y="506" type="line" smooth="yes"/>
			<point x="371" y="501"/>
			<point x="417" y="515"/>
			<point x="417" y="566" type="curve" smooth="yes"/>
			<point x="417" y="595"/>
			<point x="390" y="623"/>
			<point x="361" y="623" type="curve" smooth="yes"/>
			<point x="336" y="623"/>
			<point x="309" y="614"/>
			<point x="259" y="571" type="curve" smooth="yes"/>
			<point x="192" y="515" type="line"/>
		</contour>
		<contour>
			<point x="199" y="537" type="line"/>
			<point x="220" y="452" type="line" smooth="yes"/>
			<point x="239" y="375"/>
			<point x="261" y="337"/>
			<point x="304" y="337" type="curve" smooth="yes"/>
			<point x="329" y="337"/>
			<point x="360" y="365"/>
			<point x="360" y="392" type="curve" smooth="yes"/>
			<point x="360" y="423"/>
			<point x="345" y="449"/>
			<point x="275" y="492" type="curve" smooth="yes"/>
			<point x="202" y="539" type="line"/>
		</contour>
		<contour>
			<point x="234" y="515" type="line"/>
			<point x="167" y="571" type="line" smooth="yes"/>
			<point x="124" y="608"/>
			<point x="96" y="624"/>
			<point x="65" y="624" type="curve" smooth="yes"/>
			<point x="36" y="624"/>
			<point x="9" y="600"/>
			<point x="9" y="567" type="curve" smooth="yes"/>
			<point x="9" y="521"/>
			<point x="44" y="500"/>
			<point x="146" y="506" type="curve" smooth="yes"/>
			<point x="233" y="511" type="line"/>
		</contour>
		<contour>
			<point x="227" y="537" type="line"/>
			<point x="224" y="539" type="line"/>
			<point x="151" y="492" type="line" smooth="yes"/>
			<point x="92" y="456"/>
			<point x="65" y="429"/>
			<point x="65" y="393" type="curve" smooth="yes"/>
			<point x="65" y="363"/>
			<point x="90" y="338"/>
			<point x="121" y="338" type="curve" smooth="yes"/>
			<point x="158" y="338"/>
			<point x="182" y="355"/>
			<point x="206" y="452" type="curve" smooth="yes"/>
		</contour>
	</outline>
</glyph>
<glyph name="comma" format="2">
	<unicode hex="002C"/>
	<advance width="300"/>
	<outline>
		<contour>
			<point x="70" y="-172" type="line"/>
			<point x="162" y="-146"/>
			<point x="248" y="-79"/>
			<point x="248" y="59" type="curve" smooth="yes"/>
			<point x="248" y="93"/>
			<point x="244" y="112"/>
			<point x="231" y="144" type="curve"/>
			<point x="206" y="166"/>
			<point x="184" y="174"/>
			<point x="152" y="174" type="curve" smooth="yes"/>
			<point x="90" y="174"/>
			<point x="52" y="130"/>
			<point x="52" y="81" type="curve" smooth="yes"/>
			<point x="52" y="42"/>
			<point x="71" y="11"/>
			<point x="119" y="-12" type="curve" smooth="yes"/>
			<point x="192" y="-47" type="line"/>
			<point x="166" y="-7" type="line"/>
			<point x="149" y="-63"/>
			<point x="111" y="-93"/>
			<point x="48" y="-119" type="curve"/>
		</contour>
	</outline>
</glyph>
<glyph name="hyphen" format="2">
	<unicode hex="002D"/>
	<unicode hex="00AD"/>
	<unicode hex="2010"/>
	<advance width="350"/>
	<outline>
		<contour>
			<point x="40" y="210" type="line"/>
			<point x="310" y="210" type="line"/>
			<point x="310" y="310" type="line"/>
			<point x="40" y="310" type="line"/>
		</contour>
	</outline>
</glyph>
<glyph name="period" format="2">
	<unicode hex="002E"/>
	<advance width="300"/>
	<outline>
		<contour>
			<point x="150" y="-16" type="curve" smooth="yes"/>
			<point x="205" y="-16"/>
			<point x="248" y="27"/>
			<point x="248" y="80" type="curve" smooth="yes"/>
			<point x="248" y="134"/>
			<point x="205" y="179"/>
			<point x="150" y="179" type="curve" smooth="yes"/>
			<point x="95" y="179"/>
			<point x="52" y="134"/>
			<point x="52" y="80" type="curve" smooth="yes"/>
			<point x="52" y="27"/>
			<point x="95" y="-16"/>
		</contour>
	</outline>
</glyph>
<glyph name="three" format="2">
	<unicode hex="0033"/>
	<advance width="560"/>
	<outline>
		<contour>
			<point x="270" y="-16" type="curve" smooth="yes"/>
			<point x="436" y="-16"/>
			<point x="530" y="59"/>
			<point x="530" y="162" type="curve" smooth="yes"/>
			<point x="530" y="262"/>
			<point x="476" y="322"/>
			<point x="313" y="336" type="curve"/>
			<point x="313" y="320" type="line"/>
			<point x="461" y="338"/>
			<point x="511" y="412"/>
			<point x="511" y="479" type="curve" smooth="yes"/>
			<point x="511" y="569"/>
			<point x="440" y="640"/>
			<point x="280" y="640" type="curve" smooth="yes"/>
			<point x="181" y="640"/>
			<point x="85" y="595"/>
			<point x="75" y="477" type="curve"/>
			<point x="87" y="456"/>
			<point x="109" y="443"/>
			<point x="134" y="443" type="curve" smooth="yes"/>
			<point x="171" y="443"/>
			<point x="208" y="461"/>
			<point x="215" y="515" type="curve" smooth="yes"/>
			<point x="228" y="612" type="line"/>
			<point x="161" y="572" type="line"/>
			<point x="191" y="581"/>
			<point x="215" y="586"/>
			<point x="232" y="586" type="curve" smooth="yes"/>
			<point x="291" y="586"/>
			<point x="326" y="550"/>
			<point x="326" y="472" type="curve" smooth="yes"/>
			<point x="326" y="384"/>
			<point x="283" y="352"/>
			<point x="212" y="352" type="curve" smooth="yes"/>
			<point x="187" y="352" type="line"/>
			<point x="187" y="294" type="line"/>
			<point x="217" y="294" type="line" smooth="yes"/>
			<point x="292" y="294"/>
			<point x="335" y="252"/>
			<point x="335" y="171" type="curve" smooth="yes"/>
			<point x="335" y="78"/>
			<point x="290" y="39"/>
			<point x="206" y="39" type="curve" smooth="yes"/>
			<point x="182" y="39"/>
			<point x="169" y="44"/>
			<point x="147" y="54" type="curve"/>
			<point x="198" y="11" type="line"/>
			<point x="189" y="112" type="line" smooth="yes"/>
			<point x="182" y="188"/>
			<point x="153" y="208"/>
			<point x="109" y="208" type="curve" smooth="yes"/>
			<point x="83" y="208"/>
			<point x="54" y="194"/>
			<point x="42" y="159" type="curve"/>
			<point x="50" y="48"/>
			<point x="122" y="-16"/>
		</contour>
	</outline>
</glyph>
<glyph name="four" format="2">
	<unicode hex="0034"/>
	<advance width="560"/>
	<outline>
		<contour>
			<point x="275" y="-10" type="line"/>
			<point x="440" y="-10" type="line"/>
			<point x="440" y="635" type="line"/>
			<point x="308" y="635" type="line"/>
			<point x="20" y="216" type="line"/>
			<point x="20" y="109" type="line"/>
			<point x="527" y="109" type="line"/>
			<point x="527" y="239" type="line"/>
			<point x="96" y="239" type="line"/>
			<point x="96" y="283" type="line"/>
			<point x="83" y="198" type="line"/>
			<point x="197" y="367" type="line"/>
			<point x="312" y="536" type="line"/>
			<point x="256" y="506" type="line"/>
			<point x="275" y="506" type="line"/>
			<point x="275" y="194" type="line"/>
			<point x="275" y="162" type="line"/>
		</contour>
	</outline>
</glyph>
<glyph name="five" format="2">
	<unicode hex="0035"/>
	<advance width="560"/>
	<outline>
		<contour>
			<point x="259" y="-16" type="curve" smooth="yes"/>
			<point x="415" y="-16"/>
			<point x="537" y="48"/>
			<point x="537" y="188" type="curve" smooth="yes"/>
			<point x="537" y="316"/>
			<point x="441" y="383"/>
			<point x="279" y="383" type="curve" smooth="yes"/>
			<point x="225" y="383"/>
			<point x="178" y="377"/>
			<point x="131" y="362" type="curve"/>
			<point x="177" y="325" type="line"/>
			<point x="196" y="592" type="line"/>
			<point x="148" y="484" type="line"/>
			<point x="510" y="484" type="line"/>
			<point x="510" y="624" type="line"/>
			<point x="128" y="624" type="line"/>
			<point x="107" y="319" type="line"/>
			<point x="135" y="294" type="line"/>
			<point x="168" y="302"/>
			<point x="196" y="305"/>
			<point x="230" y="305" type="curve" smooth="yes"/>
			<point x="298" y="305"/>
			<point x="337" y="258"/>
			<point x="337" y="168" type="curve" smooth="yes"/>
			<point x="337" y="86"/>
			<point x="287" y="39"/>
			<point x="224" y="39" type="curve" smooth="yes"/>
			<point x="198" y="39"/>
			<point x="189" y="42"/>
			<point x="166" y="53" type="curve"/>
			<point x="195" y="19" type="line"/>
			<point x="188" y="117" type="line" smooth="yes"/>
			<point x="183" y="182"/>
			<point x="156" y="208"/>
			<point x="111" y="208" type="curve" smooth="yes"/>
			<point x="82" y="208"/>
			<point x="53" y="192"/>
			<point x="41" y="159" type="curve"/>
			<point x="41" y="55"/>
			<point x="120" y="-16"/>
		</contour>
	</outline>
</glyph>
<glyph name="six" format="2">
	<unicode hex="0036"/>
	<advance width="560"/>
	<outline>
		<contour>
			<point x="286" y="-16" type="curve" smooth="yes"/>
			<point x="407" y="-16"/>
			<point x="533" y="55"/>
			<point x="533" y="211" type="curve" smooth="yes"/>
			<point x="533" y="312"/>
			<point x="479" y="392"/>
			<point x="357" y="392" type="curve" smooth="yes"/>
			<point x="275" y="392"/>
			<point x="216" y="362"/>
			<point x="165" y="285" type="curve"/>
			<point x="159" y="285" type="line"/>
			<point x="185" y="269" type="line"/>
			<point x="220" y="309"/>
			<point x="250" y="320"/>
			<point x="279" y="320" type="curve" smooth="yes"/>
			<point x="323" y="320"/>
			<point x="345" y="270"/>
			<point x="345" y="191" type="curve" smooth="yes"/>
			<point x="345" y="79"/>
			<point x="315" y="39"/>
			<point x="282" y="39" type="curve" smooth="yes"/>
			<point x="240" y="39"/>
			<point x="216" y="91"/>
			<point x="216" y="222" type="curve" smooth="yes"/>
			<point x="216" y="430"/>
			<point x="300" y="536"/>
			<point x="484" y="583" type="curve"/>
			<point x="478" y="640" type="line"/>
			<point x="216" y="620"/>
			<point x="24" y="459"/>
			<point x="24" y="252" type="curve" smooth="yes"/>
			<point x="24" y="79"/>
			<point x="122" y="-16"/>
		</contour>
	</outline>
</glyph>
<glyph name="A" format="2">
	<unicode hex="0041"/>
	<advance width="680"/>
	<outline>
		<contour>
			<point x="10" y="0" type="line"/>
			<point x="220" y="0" type="line"/>
			<point x="220" y="59" type="line"/>
			<point x="131" y="74" type="line"/>
			<point x="114" y="74" type="line"/>
			<point x="10" y="59" type="line"/>
		</contour>
		<contour>
			<point x="65" y="0" type="line"/>
			<point x="129" y="0" type="line"/>
			<point x="286" y="495" type="line"/>
			<point x="291" y="509" type="line"/>
			<point x="273" y="509" type="line"/>
			<point x="431" y="0" type="line"/>
			<point x="632" y="0" type="line"/>
			<point x="409" y="652" type="line"/>
			<point x="289" y="652" type="line"/>
		</contour>
		<contour>
			<point x="167" y="180" type="line"/>
			<point x="468" y="180" type="line"/>
			<point x="468" y="243" type="line"/>
			<point x="167" y="243" type="line"/>
		</contour>
		<contour>
			<point x="342" y="0" type="line"/>
			<point x="665" y="0" type="line"/>
			<point x="665" y="56" type="line"/>
			<point x="535" y="71" type="line"/>
			<point x="450" y="71" type="line"/>
			<point x="342" y="56" type="line"/>
		</contour>
	</outline>
	<anchor name="aboveUC" x="347" y="672"/>
	<anchor name="belowLC" x="287" y="-20"/>
	<anchor name="ogonek" x="526" y="0"/>
</glyph>
<glyph name="D" format="2">
	<unicode hex="0044"/>
	<advance width="703"/>
	<outline>
		<contour>
			<point x="28" y="0" type="line"/>
			<point x="197" y="0" type="line"/>
			<point x="197" y="74" type="line"/>
			<point x="179" y="74" type="line"/>
			<point x="28" y="59" type="line"/>
		</contour>
		<contour>
			<point x="95" y="0" type="curve"/>
			<point x="299" y="0" type="line"/>
			<point x="296" y="103"/>
			<point x="296" y="207"/>
			<point x="296" y="311" type="curve" smooth="yes"/>
			<point x="296" y="342" type="line" smooth="yes"/>
			<point x="296" y="447"/>
			<point x="296" y="551"/>
			<point x="299" y="652" type="curve"/>
			<point x="95" y="652" type="line"/>
			<point x="98" y="549"/>
			<point x="98" y="445"/>
			<point x="98" y="342" type="curve" smooth="yes"/>
			<point x="98" y="310" type="line" smooth="yes"/>
			<point x="98" y="205"/>
			<point x="98" y="101"/>
		</contour>
		<contour>
			<point x="197" y="0" type="line"/>
			<point x="309" y="0" type="line" smooth="yes"/>
			<point x="537" y="0"/>
			<point x="675" y="123"/>
			<point x="675" y="329" type="curve" smooth="yes"/>
			<point x="675" y="525"/>
			<point x="548" y="652"/>
			<point x="326" y="652" type="curve" smooth="yes"/>
			<point x="197" y="652" type="line"/>
			<point x="197" y="590" type="line"/>
			<point x="311" y="590" type="line" smooth="yes"/>
			<point x="410" y="590"/>
			<point x="475" y="498"/>
			<point x="475" y="327" type="curve" smooth="yes"/>
			<point x="475" y="157"/>
			<point x="410" y="62"/>
			<point x="312" y="62" type="curve" smooth="yes"/>
			<point x="197" y="62" type="line"/>
		</contour>
		<contour>
			<point x="28" y="593" type="line"/>
			<point x="179" y="578" type="line"/>
			<point x="197" y="578" type="line"/>
			<point x="197" y="652" type="line"/>
			<point x="28" y="652" type="line"/>
		</contour>
	</outline>
	<anchor name="aboveUC" x="318" y="672"/>
	<anchor name="belowLC" x="320" y="-20"/>
</glyph>
<glyph name="E" format="2">
	<unicode hex="0045"/>
	<advance width="591"/>
	<outline>
		<contour>
			<point x="28" y="0" type="line"/>
			<point x="197" y="0" type="line"/>
			<point x="197" y="74" type="line"/>
			<point x="179" y="74" type="line"/>
			<point x="28" y="59" type="line"/>
		</contour>
		<contour>
			<point x="95" y="0" type="curve"/>
			<point x="299" y="0" type="line"/>
			<point x="296" y="103"/>
			<point x="296" y="207"/>
			<point x="296" y="311" type="curve" smooth="yes"/>
			<point x="296" y="342" type="line" smooth="yes"/>
			<point x="296" y="447"/>
			<point x="296" y="551"/>
			<point x="299" y="652" type="curve"/>
			<point x="95" y="652" type="line"/>
			<point x="98" y="549"/>
			<point x="98" y="445"/>
			<point x="98" y="342" type="curve" smooth="yes"/>
			<point x="98" y="310" type="line" smooth="yes"/>
			<point x="98" y="205"/>
			<point x="98" y="101"/>
		</contour>
		<contour>
			<point x="197" y="0" type="line"/>
			<point x="564" y="0" type="line"/>
			<point x="571" y="170" type="line"/>
			<point x="477" y="170" type="line"/>
			<point x="453" y="28" type="line"/>
			<point x="488" y="58" type="line"/>
			<point x="197" y="58" type="line"/>
		</contour>
		<contour>
			<point x="197" y="306" type="line"/>
			<point x="415" y="306" type="line"/>
			<point x="415" y="370" type="line"/>
			<point x="197" y="370" type="line"/>
		</contour>
		<contour>
			<point x="400" y="235" type="line"/>
			<point x="463" y="235" type="line"/>
			<point x="463" y="442" type="line"/>
			<point x="400" y="442" type="line"/>
			<point x="385" y="350" type="line"/>
			<point x="385" y="332" type="line"/>
		</contour>
		<contour>
			<point x="28" y="593" type="line"/>
			<point x="179" y="578" type="line"/>
			<point x="197" y="578" type="line"/>
			<point x="197" y="652" type="line"/>
			<point x="28" y="652" type="line"/>
		</contour>
		<contour>
			<point x="457" y="482" type="line"/>
			<point x="551" y="482" type="line"/>
			<point x="544" y="652" type="line"/>
			<point x="197" y="652" type="line"/>
			<point x="197" y="593" type="line"/>
			<point x="468" y="593" type="line"/>
			<point x="433" y="623" type="line"/>
		</contour>
	</outline>
	<anchor name="aboveUC" x="330" y="672"/>
	<anchor name="belowLC" x="324" y="-20"/>
	<anchor name="ogonek" x="452" y="0"/>
</glyph>
<glyph name="F" format="2">
	<unicode hex="0046"/>
	<advance width="580"/>
	<outline>
		<contour>
			<point x="28" y="0" type="line"/>
			<point x="386" y="0" type="line"/>
			<point x="386" y="59" type="line"/>
			<point x="235" y="74" type="line"/>
			<point x="179" y="74" type="line"/>
			<point x="28" y="59" type="line"/>
		</contour>
		<contour>
			<point x="95" y="0" type="curve"/>
			<point x="299" y="0" type="line"/>
			<point x="296" y="103"/>
			<point x="296" y="207"/>
			<point x="296" y="311" type="curve" smooth="yes"/>
			<point x="296" y="342" type="line" smooth="yes"/>
			<point x="296" y="447"/>
			<point x="296" y="551"/>
			<point x="299" y="652" type="curve"/>
			<point x="95" y="652" type="line"/>
			<point x="98" y="549"/>
			<point x="98" y="445"/>
			<point x="98" y="342" type="curve" smooth="yes"/>
			<point x="98" y="310" type="line" smooth="yes"/>
			<point x="98" y="205"/>
			<point x="98" y="101"/>
		</contour>
		<contour>
			<point x="197" y="306" type="line"/>
			<point x="416" y="306" type="line"/>
			<point x="416" y="370" type="line"/>
			<point x="197" y="370" type="line"/>
		</contour>
		<contour>
			<point x="401" y="225" type="line"/>
			<point x="464" y="225" type="line"/>
			<point x="464" y="442" type="line"/>
			<point x="401" y="442" type="line"/>
			<point x="386" y="350" type="line"/>
			<point x="386" y="322" type="line"/>
		</contour>
		<contour>
			<point x="28" y="593" type="line"/>
			<point x="179" y="578" type="line"/>
			<point x="197" y="578" type="line"/>
			<point x="197" y="652" type="line"/>
			<point x="28" y="652" type="line"/>
		</contour>
		<contour>
			<point x="466" y="482" type="line"/>
			<point x="560" y="482" type="line"/>
			<point x="553" y="652" type="line"/>
			<point x="197" y="652" type="line"/>
			<point x="197" y="593" type="line"/>
			<point x="477" y="593" type="line"/>
			<point x="442" y="623" type="line"/>
		</contour>
	</outline>
	<anchor name="aboveUC" x="325" y="672"/>
	<anchor name="belowLC" x="207" y="-20"/>
</glyph>
<glyph name="G" format="2">
	<unicode hex="0047"/>
	<advance width="672"/>
	<outline>
		<contour>
			<point x="378" y="-20" type="curve" smooth="yes"/>
			<point x="469" y="-20"/>
			<point x="537" y="-3"/>
			<point x="607" y="38" type="curve"/>
			<point x="607" y="79" type="line" smooth="yes"/>
			<point x="607" y="164"/>
			<point x="608" y="244"/>
			<point x="610" y="326" type="curve"/>
			<point x="418" y="326" type="line"/>
			<point x="420" y="242"/>
			<point x="421" y="167"/>
			<point x="421" y="84" type="curve" smooth="yes"/>
			<point x="421" y="1" type="line"/>
			<point x="509" y="72" type="line"/>
			<point x="471" y="50"/>
			<point x="448" y="39"/>
			<point x="412" y="39" type="curve" smooth="yes"/>
			<point x="319" y="39"/>
			<point x="233" y="126"/>
			<point x="233" y="328" type="curve" smooth="yes"/>
			<point x="233" y="530"/>
			<point x="321" y="613"/>
			<point x="417" y="613" type="curve" smooth="yes"/>
			<point x="453" y="613"/>
			<point x="490" y="601"/>
			<point x="537" y="567" type="curve"/>
			<point x="537" y="618" type="line"/>
			<point x="465" y="630" type="line"/>
			<point x="504" y="467" type="line"/>
			<point x="588" y="467" type="line"/>
			<point x="584" y="627" type="line"/>
			<point x="525" y="657"/>
			<point x="452" y="672"/>
			<point x="393" y="672" type="curve" smooth="yes"/>
			<point x="157" y="672"/>
			<point x="28" y="542"/>
			<point x="28" y="319" type="curve" smooth="yes"/>
			<point x="28" y="92"/>
			<point x="169" y="-20"/>
		</contour>
		<contour>
			<point x="335" y="267" type="line"/>
			<point x="454" y="249" type="line"/>
			<point x="537" y="249" type="line"/>
			<point x="657" y="267" type="line"/>
			<point x="657" y="326" type="line"/>
			<point x="335" y="326" type="line"/>
		</contour>
	</outline>
	<anchor name="aboveUC" x="387" y="672"/>
	<anchor name="belowLC" x="398" y="-20"/>
</glyph>
<glyph name="I" format="2">
	<unicode hex="0049"/>
	<advance width="395"/>
	<outline>
		<contour>
			<point x="28" y="0" type="line"/>
			<point x="367" y="0" type="line"/>
			<point x="367" y="59" type="line"/>
			<point x="212" y="74" type="line"/>
			<point x="179" y="74" type="line"/>
			<point x="28" y="59" type="line"/>
		</contour>
		<contour>
			<point x="95" y="0" type="curve"/>
			<point x="299" y="0" type="line"/>
			<point x="296" y="103"/>
			<point x="296" y="207"/>
			<point x="296" y="311" type="curve" smooth="yes"/>
			<point x="296" y="342" type="line" smooth="yes"/>
			<point x="296" y="447"/>
			<point x="296" y="551"/>
			<point x="299" y="652" type="curve"/>
			<point x="95" y="652" type="line"/>
			<point x="98" y="549"/>
			<point x="98" y="445"/>
			<point x="98" y="342" type="curve" smooth="yes"/>
			<point x="98" y="310" type="line" smooth="yes"/>
			<point x="98" y="205"/>
			<point x="98" y="101"/>
		</contour>
		<contour>
			<point x="28" y="593" type="line"/>
			<point x="179" y="578" type="line"/>
			<point x="212" y="578" type="line"/>
			<point x="367" y="593" type="line"/>
			<point x="367" y="652" type="line"/>
			<point x="28" y="652" type="line"/>
		</contour>
	</outline>
	<anchor name="aboveUC" x="198" y="672"/>
	<anchor name="belowLC" x="198" y="-20"/>
	<anchor name="ogonek" x="249" y="0"/>
</glyph>
<glyph name="J" format="2">
	<unicode hex="004A"/>
	<advance width="404"/>
	<outline>
		<contour>
			<point x="66" y="-152" type="curve" smooth="yes"/>
			<point x="122" y="-152"/>
			<point x="186" y="-132"/>
			<point x="242" y="-63" type="curve" smooth="yes"/>
			<point x="286" y="-9"/>
			<point x="308" y="53"/>
			<point x="308" y="185" type="curve" smooth="yes"/>
			<point x="308" y="355" type="line" smooth="yes"/>
			<point x="308" y="455"/>
			<point x="308" y="555"/>
			<point x="311" y="652" type="curve"/>
			<point x="115" y="652" type="line"/>
			<point x="119" y="373"/>
			<point x="120" y="261"/>
			<point x="120" y="187" type="curve" smooth="yes"/>
			<point x="120" y="92"/>
			<point x="128" y="-4"/>
			<point x="132" y="-99" type="curve" smooth="yes"/>
			<point x="132" y="-106" type="line"/>
			<point x="144" y="-106" type="line"/>
			<point x="144" y="-89" type="line"/>
			<point x="94" y="-51" type="line" smooth="yes"/>
			<point x="58" y="-23"/>
			<point x="44" y="-13"/>
			<point x="8" y="-13" type="curve" smooth="yes"/>
			<point x="-28" y="-13"/>
			<point x="-56" y="-29"/>
			<point x="-66" y="-78" type="curve"/>
			<point x="-59" y="-129"/>
			<point x="-16" y="-152"/>
		</contour>
		<contour>
			<point x="30" y="593" type="line"/>
			<point x="177" y="578" type="line"/>
			<point x="223" y="578" type="line"/>
			<point x="379" y="593" type="line"/>
			<point x="379" y="652" type="line"/>
			<point x="30" y="652" type="line"/>
		</contour>
	</outline>
	<anchor name="aboveUC" x="203" y="672"/>
	<anchor name="belowLC" x="117" y="-162"/>
</glyph>
<glyph name="L" format="2">
	<unicode hex="004C"/>
	<advance width="574"/>
	<outline>
		<contour>
			<point x="28" y="0" type="line"/>
			<point x="197" y="0" type="line"/>
			<point x="197" y="74" type="line"/>
			<point x="179" y="74" type="line"/>
			<point x="28" y="59" type="line"/>
		</contour>
		<contour>
			<point x="95" y="0" type="curve"/>
			<point x="299" y="0" type="line"/>
			<point x="296" y="103"/>
			<point x="296" y="207"/>
			<point x="296" y="296" type="curve" smooth="yes"/>
			<point x="296" y="342" type="line" smooth="yes"/>
			<point x="296" y="447"/>
			<point x="296" y="551"/>
			<point x="299" y="652" type="curve"/>
			<point x="95" y="652" type="line"/>
			<point x="98" y="549"/>
			<point x="98" y="445"/>
			<point x="98" y="342" type="curve" smooth="yes"/>
			<point x="98" y="281" type="line" smooth="yes"/>
			<point x="98" y="205"/>
			<point x="98" y="101"/>
		</contour>
		<contour>
			<point x="197" y="0" type="line"/>
			<point x="554" y="0" type="line"/>
			<point x="564" y="199" type="line"/>
			<point x="476" y="199" type="line"/>
			<point x="443" y="31" type="line"/>
			<point x="479" y="60" type="line"/>
			<point x="197" y="60" type="line"/>
		</contour>
		<contour>
			<point x="28" y="593" type="line"/>
			<point x="179" y="578" type="line"/>
			<point x="222" y="578" type="line"/>
			<point x="377" y="593" type="line"/>
			<point x="377" y="652" type="line"/>
			<point x="28" y="652" type="line"/>
		</contour>
	</outline>
	<anchor name="aboveUC" x="202" y="672"/>
	<anchor name="belowLC" x="300" y="-20"/>
</glyph>
<glyph name="M" format="2">
	<unicode hex="004D"/>
	<advance width="893"/>
	<outline>
		<contour>
			<point x="10" y="0" type="line"/>
			<point x="262" y="0" type="line"/>
			<point x="262" y="59" type="line"/>
			<point x="163" y="74" type="line"/>
			<point x="131" y="74" type="line"/>
			<point x="10" y="59" type="line"/>
		</contour>
		<contour>
			<point x="32" y="593" type="line"/>
			<point x="163" y="578" type="line"/>
			<point x="181" y="578" type="line"/>
			<point x="179" y="652" type="line"/>
			<point x="32" y="652" type="line"/>
		</contour>
		<contour>
			<point x="109" y="0" type="line"/>
			<point x="179" y="0" type="line"/>
			<point x="179" y="287" type="line"/>
			<point x="172" y="652" type="line"/>
			<point x="109" y="652" type="line"/>
		</contour>
		<contour>
			<point x="350" y="0" type="line"/>
			<point x="438" y="0" type="line"/>
			<point x="626" y="561" type="line"/>
			<point x="640" y="602" type="line"/>
			<point x="657" y="602" type="line"/>
			<point x="657" y="652" type="line"/>
			<point x="586" y="652" type="line"/>
			<point x="447" y="231" type="line"/>
			<point x="440" y="209" type="line"/>
			<point x="473" y="209" type="line"/>
			<point x="318" y="652" type="line"/>
			<point x="127" y="652" type="line"/>
			<point x="127" y="602" type="line"/>
			<point x="135" y="602" type="line"/>
		</contour>
		<contour>
			<point x="528" y="0" type="line"/>
			<point x="866" y="0" type="line"/>
			<point x="866" y="59" type="line"/>
			<point x="715" y="74" type="line"/>
			<point x="659" y="74" type="line"/>
			<point x="528" y="59" type="line"/>
		</contour>
		<contour>
			<point x="595" y="0" type="curve"/>
			<point x="799" y="0" type="line"/>
			<point x="796" y="101"/>
			<point x="796" y="205"/>
			<point x="796" y="310" type="curve" smooth="yes"/>
			<point x="796" y="342" type="line" smooth="yes"/>
			<point x="796" y="445"/>
			<point x="796" y="549"/>
			<point x="799" y="652" type="curve"/>
			<point x="603" y="652" type="line"/>
			<point x="598" y="281" type="line" smooth="yes"/>
			<point x="597" y="207"/>
			<point x="598" y="103"/>
		</contour>
		<contour>
			<point x="697" y="578" type="line"/>
			<point x="715" y="578" type="line"/>
			<point x="861" y="593" type="line"/>
			<point x="861" y="652" type="line"/>
			<point x="697" y="652" type="line"/>
		</contour>
	</outline>
	<anchor name="aboveUC" x="447" y="672"/>
	<anchor name="belowLC" x="396" y="-20"/>
</glyph>
<glyph name="N" format="2">
	<unicode hex="004E"/>
	<advance width="725"/>
	<outline>
		<contour>
			<point x="24" y="0" type="line"/>
			<point x="297" y="0" type="line"/>
			<point x="297" y="59" type="line"/>
			<point x="163" y="74" type="line"/>
			<point x="131" y="74" type="line"/>
			<point x="24" y="59" type="line"/>
		</contour>
		<contour>
			<point x="109" y="0" type="line"/>
			<point x="179" y="0" type="line"/>
			<point x="179" y="326" type="line"/>
			<point x="179" y="624" type="line"/>
			<point x="109" y="624" type="line"/>
		</contour>
		<contour>
			<point x="428" y="593" type="line"/>
			<point x="568" y="578" type="line"/>
			<point x="599" y="578" type="line"/>
			<point x="701" y="593" type="line"/>
			<point x="701" y="652" type="line"/>
			<point x="428" y="652" type="line"/>
		</contour>
		<contour>
			<point x="511" y="0" type="line"/>
			<point x="616" y="0" type="line"/>
			<point x="616" y="652" type="line"/>
			<point x="546" y="652" type="line"/>
			<point x="546" y="326" type="line"/>
			<point x="546" y="256" type="line"/>
			<point x="563" y="262" type="line"/>
			<point x="287" y="652" type="line"/>
			<point x="24" y="652" type="line"/>
			<point x="24" y="592" type="line"/>
			<point x="100" y="587" type="line"/>
			<point x="160" y="498" type="line"/>
			<point x="165" y="498" type="line"/>
		</contour>
	</outline>
	<anchor name="aboveUC" x="358" y="672"/>
	<anchor name="belowLC" x="381" y="-20"/>
	<guideline name="292.0" x="292" y="326" angle="90" identifier="gQxaaqFm3G"/>
	<guideline name="326.0" x="0" y="326" angle="0" identifier="8LgAdeMwHN"/>
</glyph>
<glyph name="O" format="2">
	<unicode hex="004F"/>
	<advance width="700"/>
	<outline>
		<contour>
			<point x="350" y="-20" type="curve" smooth="yes"/>
			<point x="519" y="-20"/>
			<point x="672" y="91"/>
			<point x="672" y="326" type="curve" smooth="yes"/>
			<point x="672" y="561"/>
			<point x="518" y="672"/>
			<point x="350" y="672" type="curve" smooth="yes"/>
			<point x="182" y="672"/>
			<point x="28" y="561"/>
			<point x="28" y="326" type="curve" smooth="yes"/>
			<point x="28" y="91"/>
			<point x="181" y="-20"/>
		</contour>
		<contour>
			<point x="350" y="41" type="curve" smooth="yes"/>
			<point x="265" y="41"/>
			<point x="233" y="154"/>
			<point x="233" y="326" type="curve" smooth="yes"/>
			<point x="233" y="497"/>
			<point x="265" y="612"/>
			<point x="350" y="612" type="curve" smooth="yes"/>
			<point x="435" y="612"/>
			<point x="467" y="497"/>
			<point x="467" y="326" type="curve" smooth="yes"/>
			<point x="467" y="154"/>
			<point x="435" y="41"/>
		</contour>
	</outline>
	<anchor name="aboveUC" x="350" y="672"/>
	<anchor name="belowLC" x="350" y="-20"/>
	<anchor name="hornLC" x="514" y="544"/>
	<anchor name="ogonek" x="440" y="0"/>
</glyph>
<glyph name="P" format="2">
	<unicode hex="0050"/>
	<advance width="622"/>
	<outline>
		<contour>
			<point x="28" y="0" type="line"/>
			<point x="386" y="0" type="line"/>
			<point x="386" y="59" type="line"/>
			<point x="235" y="74" type="line"/>
			<point x="179" y="74" type="line"/>
			<point x="28" y="59" type="line"/>
		</contour>
		<contour>
			<point x="95" y="0" type="curve"/>
			<point x="299" y="0" type="line"/>
			<point x="296" y="103"/>
			<point x="296" y="207"/>
			<point x="296" y="281" type="curve" smooth="yes"/>
			<point x="296" y="342" type="line" smooth="yes"/>
			<point x="296" y="447"/>
			<point x="296" y="551"/>
			<point x="299" y="652" type="curve"/>
			<point x="95" y="652" type="line"/>
			<point x="98" y="549"/>
			<point x="98" y="445"/>
			<point x="98" y="342" type="curve" smooth="yes"/>
			<point x="98" y="310" type="line" smooth="yes"/>
			<point x="98" y="205"/>
			<point x="98" y="101"/>
		</contour>
		<contour>
			<point x="197" y="246" type="line"/>
			<point x="314" y="246" type="line" smooth="yes"/>
			<point x="536" y="246"/>
			<point x="608" y="340"/>
			<point x="608" y="455" type="curve" smooth="yes"/>
			<point x="608" y="575"/>
			<point x="526" y="652"/>
			<point x="301" y="652" type="curve" smooth="yes"/>
			<point x="197" y="652" type="line"/>
			<point x="197" y="590" type="line"/>
			<point x="306" y="590" type="line" smooth="yes"/>
			<point x="380" y="590"/>
			<point x="427" y="546"/>
			<point x="427" y="456" type="curve" smooth="yes"/>
			<point x="427" y="366"/>
			<point x="385" y="306"/>
			<point x="310" y="306" type="curve" smooth="yes"/>
			<point x="197" y="306" type="line"/>
		</contour>
		<contour>
			<point x="28" y="593" type="line"/>
			<point x="179" y="578" type="line"/>
			<point x="197" y="578" type="line"/>
			<point x="197" y="652" type="line"/>
			<point x="28" y="652" type="line"/>
		</contour>
	</outline>
	<anchor name="aboveUC" x="330" y="672"/>
	<anchor name="belowLC" x="200" y="-20"/>
</glyph>
<glyph name="grave" format="2">
	<unicode hex="0060"/>
	<advance width="400"/>
	<outline>
		<contour>
			<point x="302" y="587" type="line"/>
			<point x="289" y="612"/>
			<point x="274" y="636"/>
			<point x="227" y="713" type="curve" smooth="yes"/>
			<point x="197" y="762"/>
			<point x="178" y="784"/>
			<point x="139" y="784" type="curve" smooth="yes"/>
			<point x="109" y="784"/>
			<point x="78" y="760"/>
			<point x="78" y="721" type="curve" smooth="yes"/>
			<point x="78" y="685"/>
			<point x="109" y="657"/>
			<point x="153" y="626" type="curve" smooth="yes"/>
			<point x="219" y="579"/>
			<point x="239" y="565"/>
			<point x="259" y="552" type="curve"/>
		</contour>
	</outline>
</glyph>
<glyph name="b" format="2">
	<unicode hex="0062"/>
	<advance width="623"/>
	<outline>
		<contour>
			<point x="28" y="-1" type="line"/>
			<point x="233" y="-16" type="line"/>
			<point x="264" y="70" type="line"/>
			<point x="264" y="74" type="line"/>
			<point x="264" y="421" type="line"/>
			<point x="261" y="434" type="line"/>
			<point x="261" y="571" type="line"/>
			<point x="265" y="710" type="line"/>
			<point x="248" y="721" type="line"/>
			<point x="20" y="676" type="line"/>
			<point x="20" y="631" type="line"/>
			<point x="74" y="624" type="line"/>
			<point x="74" y="209" type="line" smooth="yes"/>
			<point x="74" y="168"/>
			<point x="74" y="108"/>
			<point x="73" y="60" type="curve"/>
			<point x="28" y="50" type="line"/>
		</contour>
		<contour>
			<point x="384" y="-16" type="curve" smooth="yes"/>
			<point x="495" y="-16"/>
			<point x="601" y="83"/>
			<point x="601" y="247" type="curve" smooth="yes"/>
			<point x="601" y="418"/>
			<point x="513" y="503"/>
			<point x="403" y="503" type="curve" smooth="yes"/>
			<point x="336" y="503"/>
			<point x="282" y="475"/>
			<point x="237" y="418" type="curve"/>
			<point x="183" y="418" type="line"/>
			<point x="192" y="315" type="line"/>
			<point x="209" y="334"/>
			<point x="252" y="404"/>
			<point x="311" y="404" type="curve" smooth="yes"/>
			<point x="364" y="404"/>
			<point x="399" y="361"/>
			<point x="399" y="247" type="curve" smooth="yes"/>
			<point x="399" y="133"/>
			<point x="364" y="80"/>
			<point x="311" y="80" type="curve" smooth="yes"/>
			<point x="261" y="80"/>
			<point x="239" y="116"/>
			<point x="202" y="167" type="curve"/>
			<point x="193" y="85" type="line"/>
			<point x="222" y="85" type="line"/>
			<point x="258" y="20"/>
			<point x="305" y="-16"/>
		</contour>
	</outline>
	<anchor name="aboveLC" x="170" y="721"/>
	<anchor name="belowLC" x="290" y="-20"/>
</glyph>
<glyph name="c" format="2">
	<unicode hex="0063"/>
	<advance width="523"/>
	<outline>
		<contour>
			<point x="22" y="68"/>
			<point x="145" y="-16"/>
			<point x="281" y="-16" type="curve" smooth="yes"/>
			<point x="376" y="-16"/>
			<point x="451" y="20"/>
			<point x="494" y="101" type="curve"/>
			<point x="455" y="139" type="line"/>
			<point x="427" y="112"/>
			<point x="397" y="92"/>
			<point x="353" y="92" type="curve" smooth="yes"/>
			<point x="273" y="92"/>
			<point x="222" y="153"/>
			<point x="222" y="264" type="curve" smooth="yes"/>
			<point x="222" y="402"/>
			<point x="285" y="449"/>
			<point x="331" y="449" type="curve" smooth="yes"/>
			<point x="364" y="449"/>
			<point x="387" y="442"/>
			<point x="417" y="429" type="curve"/>
			<point x="334" y="472" type="line"/>
			<point x="337" y="407" type="line" smooth="yes"/>
			<point x="341" y="319"/>
			<point x="381" y="293"/>
			<point x="423" y="293" type="curve" smooth="yes"/>
			<point x="463" y="293"/>
			<point x="486" y="311"/>
			<point x="499" y="351" type="curve"/>
			<point x="494" y="433"/>
			<point x="420" y="503"/>
			<point x="308" y="503" type="curve" smooth="yes"/>
			<point x="147" y="503"/>
			<point x="22" y="408"/>
			<point x="22" y="242" type="curve" smooth="yes"/>
		</contour>
	</outline>
	<anchor name="aboveLC" x="293" y="520"/>
	<anchor name="belowLC" x="286" y="-22"/>
	<anchor name="baseLC" x="286" y="0"/>
</glyph>
<glyph name="d" format="2">
	<unicode hex="0064"/>
	<advance width="605"/>
	<outline>
		<contour>
			<point x="220" y="-16" type="curve" smooth="yes"/>
			<point x="294" y="-16"/>
			<point x="350" y="16"/>
			<point x="398" y="90" type="curve"/>
			<point x="433" y="90" type="line"/>
			<point x="420" y="169" type="line"/>
			<point x="394" y="124"/>
			<point x="361" y="83"/>
			<point x="314" y="83" type="curve" smooth="yes"/>
			<point x="260" y="83"/>
			<point x="224" y="140"/>
			<point x="224" y="241" type="curve" smooth="yes"/>
			<point x="224" y="352"/>
			<point x="263" y="407"/>
			<point x="318" y="407" type="curve" smooth="yes"/>
			<point x="360" y="407"/>
			<point x="384" y="380"/>
			<point x="416" y="336" type="curve"/>
			<point x="426" y="412" type="line"/>
			<point x="395" y="412" type="line"/>
			<point x="361" y="469"/>
			<point x="320" y="503"/>
			<point x="245" y="503" type="curve" smooth="yes"/>
			<point x="136" y="503"/>
			<point x="22" y="406"/>
			<point x="22" y="239" type="curve" smooth="yes"/>
			<point x="22" y="69"/>
			<point x="110" y="-16"/>
		</contour>
		<contour>
			<point x="369" y="-12" type="line"/>
			<point x="581" y="0" type="line"/>
			<point x="581" y="51" type="line"/>
			<point x="545" y="60" type="line"/>
			<point x="545" y="571" type="line"/>
			<point x="549" y="710" type="line"/>
			<point x="532" y="721" type="line"/>
			<point x="298" y="676" type="line"/>
			<point x="298" y="631" type="line"/>
			<point x="362" y="621" type="line"/>
			<point x="362" y="429" type="line"/>
			<point x="355" y="419" type="line"/>
			<point x="355" y="76" type="line"/>
			<point x="355" y="72" type="line"/>
		</contour>
	</outline>
	<anchor name="aboveLC" x="434" y="721"/>
	<anchor name="belowLC" x="319" y="-20"/>
</glyph>
<glyph name="e" format="2">
	<unicode hex="0065"/>
	<advance width="526"/>
	<outline>
		<contour>
			<point x="22" y="80"/>
			<point x="132" y="-16"/>
			<point x="282" y="-16" type="curve" smooth="yes"/>
			<point x="381" y="-16"/>
			<point x="456" y="20"/>
			<point x="499" y="101" type="curve"/>
			<point x="460" y="139" type="line"/>
			<point x="432" y="112"/>
			<point x="396" y="92"/>
			<point x="346" y="92" type="curve" smooth="yes"/>
			<point x="281" y="92"/>
			<point x="222" y="142"/>
			<point x="222" y="262" type="curve" smooth="yes"/>
			<point x="222" y="407"/>
			<point x="246" y="449"/>
			<point x="279" y="449" type="curve" smooth="yes"/>
			<point x="305" y="449"/>
			<point x="330" y="424"/>
			<point x="330" y="355" type="curve" smooth="yes"/>
			<point x="330" y="304"/>
			<point x="317" y="288"/>
			<point x="269" y="288" type="curve" smooth="yes"/>
			<point x="101" y="288" type="line"/>
			<point x="101" y="231" type="line"/>
			<point x="501" y="231" type="line"/>
			<point x="505" y="249"/>
			<point x="506" y="263"/>
			<point x="506" y="284" type="curve" smooth="yes"/>
			<point x="506" y="405"/>
			<point x="434" y="503"/>
			<point x="291" y="503" type="curve" smooth="yes"/>
			<point x="160" y="503"/>
			<point x="22" y="417"/>
			<point x="22" y="245" type="curve" smooth="yes"/>
		</contour>
	</outline>
	<anchor name="aboveLC" x="285" y="520"/>
	<anchor name="belowLC" x="293" y="-22"/>
	<anchor name="ogonek" x="369" y="0"/>
</glyph>
<glyph name="f" format="2">
	<unicode hex="0066"/>
	<advance width="365"/>
	<outline>
		<contour>
			<point x="27" y="0" type="line"/>
			<point x="337" y="0" type="line"/>
			<point x="337" y="51" type="line"/>
			<point x="254" y="71" type="line"/>
			<point x="120" y="71" type="line"/>
			<point x="27" y="51" type="line"/>
		</contour>
		<contour>
			<point x="71" y="0" type="curve"/>
			<point x="267" y="0" type="line"/>
			<point x="265" y="70"/>
			<point x="264" y="140"/>
			<point x="264" y="210" type="curve" smooth="yes"/>
			<point x="264" y="440" type="line"/>
			<point x="257" y="565"/>
			<point x="262" y="669"/>
			<point x="321" y="699" type="curve" smooth="yes"/>
			<point x="332" y="704"/>
			<point x="336" y="707"/>
			<point x="351" y="707" type="curve" smooth="yes"/>
			<point x="362" y="707"/>
			<point x="375" y="702"/>
			<point x="381" y="694" type="curve"/>
			<point x="376" y="722" type="line"/>
			<point x="273" y="691" type="line"/>
			<point x="292" y="658" type="line" smooth="yes"/>
			<point x="328" y="599"/>
			<point x="359" y="581"/>
			<point x="397" y="581" type="curve" smooth="yes"/>
			<point x="440" y="581"/>
			<point x="475" y="610"/>
			<point x="477" y="653" type="curve"/>
			<point x="465" y="709"/>
			<point x="400" y="732"/>
			<point x="341" y="732" type="curve" smooth="yes"/>
			<point x="268" y="732"/>
			<point x="207" y="709"/>
			<point x="162" y="666" type="curve" smooth="yes"/>
			<point x="112" y="618"/>
			<point x="78" y="545"/>
			<point x="72" y="450" type="curve"/>
			<point x="70" y="428" type="line"/>
			<point x="138" y="493" type="line"/>
			<point x="17" y="478" type="line"/>
			<point x="17" y="412" type="line"/>
			<point x="74" y="412" type="line"/>
			<point x="74" y="210" type="line" smooth="yes"/>
			<point x="74" y="140"/>
			<point x="73" y="70"/>
		</contour>
		<contour>
			<point x="170" y="412" type="line"/>
			<point x="356" y="412" type="line"/>
			<point x="356" y="487" type="line"/>
			<point x="170" y="487" type="line"/>
		</contour>
	</outline>
	<anchor name="aboveLC" x="293" y="740"/>
	<anchor name="belowLC" x="172" y="-22"/>
</glyph>
<glyph name="g" format="2">
	<unicode hex="0067"/>
	<advance width="553"/>
	<outline>
		<contour>
			<point x="28" y="342" type="curve" smooth="yes"/>
			<point x="28" y="257"/>
			<point x="91" y="184"/>
			<point x="249" y="184" type="curve" smooth="yes"/>
			<point x="407" y="184"/>
			<point x="470" y="258"/>
			<point x="470" y="342" type="curve" smooth="yes"/>
			<point x="470" y="431"/>
			<point x="407" y="503"/>
			<point x="249" y="503" type="curve" smooth="yes"/>
			<point x="91" y="503"/>
			<point x="28" y="430"/>
		</contour>
		<contour>
			<point x="305" y="344" type="curve" smooth="yes"/>
			<point x="305" y="274"/>
			<point x="289" y="234"/>
			<point x="249" y="234" type="curve" smooth="yes"/>
			<point x="209" y="234"/>
			<point x="195" y="274"/>
			<point x="195" y="344" type="curve" smooth="yes"/>
			<point x="195" y="414"/>
			<point x="212" y="453"/>
			<point x="249" y="453" type="curve" smooth="yes"/>
			<point x="286" y="453"/>
			<point x="305" y="414"/>
		</contour>
		<contour>
			<point x="398" y="413" type="line"/>
			<point x="548" y="413" type="line"/>
			<point x="548" y="496" type="line"/>
			<point x="532" y="506" type="line"/>
			<point x="406" y="448" type="line"/>
			<point x="398" y="448" type="line"/>
		</contour>
		<contour>
			<point x="7" y="-120" type="curve" smooth="yes"/>
			<point x="7" y="-194"/>
			<point x="108" y="-222"/>
			<point x="232" y="-222" type="curve" smooth="yes"/>
			<point x="436" y="-222"/>
			<point x="533" y="-134"/>
			<point x="533" y="-26" type="curve" smooth="yes"/>
			<point x="533" y="63"/>
			<point x="479" y="123"/>
			<point x="344" y="123" type="curve" smooth="yes"/>
			<point x="214" y="123" type="line" smooth="yes"/>
			<point x="173" y="123"/>
			<point x="156" y="136"/>
			<point x="156" y="158" type="curve" smooth="yes"/>
			<point x="156" y="181"/>
			<point x="173" y="195"/>
			<point x="182" y="210" type="curve"/>
			<point x="142" y="229" type="line"/>
			<point x="142" y="218" type="line"/>
			<point x="88" y="175"/>
			<point x="40" y="129"/>
			<point x="40" y="74" type="curve" smooth="yes"/>
			<point x="40" y="11"/>
			<point x="79" y="-14"/>
			<point x="135" y="-27" type="curve"/>
			<point x="147" y="-34" type="line"/>
			<point x="176" y="-40"/>
			<point x="204" y="-42"/>
			<point x="227" y="-42" type="curve" smooth="yes"/>
			<point x="308" y="-42" type="line" smooth="yes"/>
			<point x="370" y="-42"/>
			<point x="386" y="-63"/>
			<point x="386" y="-98" type="curve" smooth="yes"/>
			<point x="386" y="-140"/>
			<point x="350" y="-171"/>
			<point x="248" y="-171" type="curve" smooth="yes"/>
			<point x="157" y="-171"/>
			<point x="134" y="-139"/>
			<point x="134" y="-99" type="curve" smooth="yes"/>
			<point x="134" y="-73"/>
			<point x="144" y="-53"/>
			<point x="161" y="-36" type="curve"/>
			<point x="170" y="-22" type="line"/>
			<point x="71" y="-23"/>
			<point x="7" y="-53"/>
		</contour>
	</outline>
</glyph>
<glyph name="h" format="2">
	<unicode hex="0068"/>
	<advance width="624"/>
	<outline>
		<contour>
			<point x="27" y="0" type="line"/>
			<point x="303" y="0" type="line"/>
			<point x="303" y="51" type="line"/>
			<point x="211" y="71" type="line"/>
			<point x="113" y="71" type="line"/>
			<point x="27" y="51" type="line"/>
		</contour>
		<contour>
			<point x="71" y="0" type="curve"/>
			<point x="267" y="0" type="line"/>
			<point x="265" y="45"/>
			<point x="264" y="148"/>
			<point x="264" y="210" type="curve" smooth="yes"/>
			<point x="264" y="366" type="line"/>
			<point x="261" y="379" type="line"/>
			<point x="261" y="571" type="line"/>
			<point x="265" y="710" type="line"/>
			<point x="248" y="721" type="line"/>
			<point x="20" y="676" type="line"/>
			<point x="20" y="631" type="line"/>
			<point x="74" y="621" type="line"/>
			<point x="74" y="210" type="line" smooth="yes"/>
			<point x="74" y="148"/>
			<point x="73" y="45"/>
		</contour>
		<contour>
			<point x="330" y="0" type="line"/>
			<point x="607" y="0" type="line"/>
			<point x="607" y="51" type="line"/>
			<point x="510" y="71" type="line"/>
			<point x="413" y="71" type="line"/>
			<point x="330" y="51" type="line"/>
		</contour>
		<contour>
			<point x="371" y="0" type="curve"/>
			<point x="567" y="0" type="line"/>
			<point x="565" y="45"/>
			<point x="564" y="146"/>
			<point x="564" y="210" type="curve" smooth="yes"/>
			<point x="564" y="336" type="line" smooth="yes"/>
			<point x="564" y="445"/>
			<point x="499" y="503"/>
			<point x="410" y="503" type="curve" smooth="yes"/>
			<point x="344" y="503"/>
			<point x="301" y="481"/>
			<point x="233" y="388" type="curve"/>
			<point x="214" y="388" type="line"/>
			<point x="221" y="311" type="line"/>
			<point x="256" y="360"/>
			<point x="300" y="396"/>
			<point x="332" y="396" type="curve" smooth="yes"/>
			<point x="365" y="396"/>
			<point x="374" y="377"/>
			<point x="374" y="323" type="curve" smooth="yes"/>
			<point x="374" y="210" type="line" smooth="yes"/>
			<point x="374" y="146"/>
			<point x="373" y="45"/>
		</contour>
	</outline>
	<anchor name="aboveLC" x="162" y="721"/>
	<anchor name="belowLC" x="316" y="-20"/>
</glyph>
<glyph name="i" format="2">
	<unicode hex="0069"/>
	<advance width="324"/>
	<outline>
		<contour>
			<point x="28" y="0" type="line"/>
			<point x="307" y="0" type="line"/>
			<point x="307" y="51" type="line"/>
			<point x="211" y="71" type="line"/>
			<point x="114" y="71" type="line"/>
			<point x="28" y="51" type="line"/>
		</contour>
		<contour>
			<point x="74" y="148"/>
			<point x="73" y="45"/>
			<point x="71" y="0" type="curve"/>
			<point x="267" y="0" type="line"/>
			<point x="265" y="45"/>
			<point x="264" y="148"/>
			<point x="264" y="210" type="curve" smooth="yes"/>
			<point x="264" y="343" type="line"/>
			<point x="267" y="492" type="line"/>
			<point x="249" y="503" type="line"/>
			<point x="17" y="434" type="line"/>
			<point x="17" y="393" type="line"/>
			<point x="71" y="384" type="line"/>
			<point x="73" y="344"/>
			<point x="74" y="313"/>
			<point x="74" y="258" type="curve" smooth="yes"/>
			<point x="74" y="210" type="line" smooth="yes"/>
		</contour>
		<contour>
			<point x="167" y="562" type="curve" smooth="yes"/>
			<point x="218" y="562"/>
			<point x="259" y="598"/>
			<point x="259" y="648" type="curve" smooth="yes"/>
			<point x="259" y="698"/>
			<point x="218" y="734"/>
			<point x="167" y="734" type="curve" smooth="yes"/>
			<point x="116" y="734"/>
			<point x="75" y="698"/>
			<point x="75" y="648" type="curve" smooth="yes"/>
			<point x="75" y="598"/>
			<point x="116" y="562"/>
		</contour>
	</outline>
	<anchor name="aboveLC" x="167" y="728"/>
	<anchor name="belowLC" x="173" y="-22"/>
	<anchor name="ogonek" x="203" y="0"/>
</glyph>
<glyph name="j" format="2">
	<unicode hex="006A"/>
	<advance width="320"/>
	<outline>
		<contour>
			<point x="17" y="-232" type="curve" smooth="yes"/>
			<point x="65" y="-232"/>
			<point x="135" y="-218"/>
			<point x="193" y="-160" type="curve" smooth="yes"/>
			<point x="240" y="-113"/>
			<point x="260" y="-67"/>
			<point x="260" y="35" type="curve" smooth="yes"/>
			<point x="260" y="343" type="line"/>
			<point x="263" y="492" type="line"/>
			<point x="245" y="503" type="line"/>
			<point x="13" y="434" type="line"/>
			<point x="13" y="393" type="line"/>
			<point x="67" y="384" type="line"/>
			<point x="69" y="344"/>
			<point x="70" y="313"/>
			<point x="70" y="258" type="curve" smooth="yes"/>
			<point x="70" y="105" type="line" smooth="yes"/>
			<point x="70" y="10"/>
			<point x="83" y="-89"/>
			<point x="75" y="-140" type="curve" smooth="yes"/>
			<point x="72" y="-162"/>
			<point x="69" y="-169"/>
			<point x="63" y="-185" type="curve"/>
			<point x="63" y="-213" type="line"/>
			<point x="83" y="-213" type="line"/>
			<point x="83" y="-208" type="line"/>
			<point x="59" y="-142" type="line" smooth="yes"/>
			<point x="42" y="-95"/>
			<point x="19" y="-72"/>
			<point x="-20" y="-72" type="curve" smooth="yes"/>
			<point x="-66" y="-72"/>
			<point x="-96" y="-99"/>
			<point x="-105" y="-152" type="curve"/>
			<point x="-90" y="-205"/>
			<point x="-51" y="-232"/>
		</contour>
		<contour>
			<point x="162" y="562" type="curve" smooth="yes"/>
			<point x="213" y="562"/>
			<point x="254" y="598"/>
			<point x="254" y="648" type="curve" smooth="yes"/>
			<point x="254" y="698"/>
			<point x="213" y="734"/>
			<point x="162" y="734" type="curve" smooth="yes"/>
			<point x="111" y="734"/>
			<point x="70" y="698"/>
			<point x="70" y="648" type="curve" smooth="yes"/>
			<point x="70" y="598"/>
			<point x="111" y="562"/>
		</contour>
	</outline>
	<anchor name="aboveLC" x="162" y="734"/>
	<anchor name="belowLC" x="99" y="-232"/>
</glyph>
<glyph name="k" format="2">
	<unicode hex="006B"/>
	<advance width="619"/>
	<outline>
		<contour>
			<point x="27" y="0" type="line"/>
			<point x="308" y="0" type="line"/>
			<point x="308" y="51" type="line"/>
			<point x="211" y="71" type="line"/>
			<point x="113" y="71" type="line"/>
			<point x="27" y="51" type="line"/>
		</contour>
		<contour>
			<point x="71" y="0" type="curve"/>
			<point x="267" y="0" type="line"/>
			<point x="265" y="32"/>
			<point x="264" y="155"/>
			<point x="264" y="220" type="curve" smooth="yes"/>
			<point x="264" y="571" type="line"/>
			<point x="268" y="710" type="line"/>
			<point x="251" y="721" type="line"/>
			<point x="20" y="676" type="line"/>
			<point x="20" y="631" type="line"/>
			<point x="74" y="621" type="line"/>
			<point x="74" y="210" type="line" smooth="yes"/>
			<point x="74" y="155"/>
			<point x="73" y="32"/>
		</contour>
		<contour>
			<point x="165" y="122" type="line"/>
			<point x="567" y="487" type="line"/>
			<point x="481" y="487" type="line"/>
			<point x="326" y="339" type="line"/>
			<point x="172" y="191" type="line"/>
			<point x="165" y="191" type="line"/>
		</contour>
		<contour>
			<point x="385" y="0" type="line"/>
			<point x="617" y="0" type="line"/>
			<point x="617" y="51" type="line"/>
			<point x="554" y="68" type="line"/>
			<point x="413" y="376" type="line"/>
			<point x="280" y="259" type="line"/>
		</contour>
		<contour>
			<point x="346" y="440" type="line"/>
			<point x="459" y="425" type="line"/>
			<point x="479" y="425" type="line"/>
			<point x="590" y="440" type="line"/>
			<point x="590" y="487" type="line"/>
			<point x="346" y="487" type="line"/>
		</contour>
	</outline>
	<anchor name="aboveLC" x="170" y="721"/>
	<anchor name="belowLC" x="327" y="-20"/>
</glyph>
<glyph name="o" format="2">
	<unicode hex="006F"/>
	<advance width="572"/>
	<outline>
		<contour>
			<point x="286" y="-16" type="curve" smooth="yes"/>
			<point x="457" y="-16"/>
			<point x="550" y="95"/>
			<point x="550" y="247" type="curve" smooth="yes"/>
			<point x="550" y="399"/>
			<point x="440" y="503"/>
			<point x="286" y="503" type="curve" smooth="yes"/>
			<point x="132" y="503"/>
			<point x="22" y="396"/>
			<point x="22" y="247" type="curve" smooth="yes"/>
			<point x="22" y="98"/>
			<point x="114" y="-16"/>
		</contour>
		<contour>
			<point x="286" y="39" type="curve" smooth="yes"/>
			<point x="242" y="39"/>
			<point x="222" y="98"/>
			<point x="222" y="244" type="curve" smooth="yes"/>
			<point x="222" y="389"/>
			<point x="242" y="448"/>
			<point x="286" y="448" type="curve" smooth="yes"/>
			<point x="330" y="448"/>
			<point x="350" y="389"/>
			<point x="350" y="244" type="curve" smooth="yes"/>
			<point x="350" y="98"/>
			<point x="330" y="39"/>
		</contour>
	</outline>
	<anchor name="aboveLC" x="286" y="507"/>
	<anchor name="belowLC" x="286" y="-20"/>
	<anchor name="hornLC" x="409" y="378"/>
	<anchor name="ogonek" x="366" y="0"/>
</glyph>
<glyph name="q" format="2">
	<unicode hex="0071"/>
	<advance width="594"/>
	<outline>
		<contour>
			<point x="303" y="-222" type="line"/>
			<point x="584" y="-222" type="line"/>
			<point x="584" y="-170" type="line"/>
			<point x="501" y="-150" type="line"/>
			<point x="376" y="-150" type="line"/>
			<point x="303" y="-170" type="line"/>
		</contour>
		<contour>
			<point x="220" y="-16" type="curve" smooth="yes"/>
			<point x="293" y="-16"/>
			<point x="350" y="16"/>
			<point x="397" y="89" type="curve"/>
			<point x="433" y="89" type="line"/>
			<point x="420" y="168" type="line"/>
			<point x="394" y="123"/>
			<point x="361" y="83"/>
			<point x="314" y="83" type="curve" smooth="yes"/>
			<point x="260" y="83"/>
			<point x="224" y="139"/>
			<point x="224" y="240" type="curve" smooth="yes"/>
			<point x="224" y="351"/>
			<point x="261" y="407"/>
			<point x="320" y="407" type="curve" smooth="yes"/>
			<point x="354" y="407"/>
			<point x="389" y="389"/>
			<point x="426" y="342" type="curve"/>
			<point x="436" y="416" type="line"/>
			<point x="403" y="416" type="line"/>
			<point x="361" y="476"/>
			<point x="315" y="503"/>
			<point x="255" y="503" type="curve" smooth="yes"/>
			<point x="133" y="503"/>
			<point x="22" y="407"/>
			<point x="22" y="238" type="curve" smooth="yes"/>
			<point x="22" y="68"/>
			<point x="110" y="-16"/>
		</contour>
		<contour>
			<point x="355" y="-222" type="curve"/>
			<point x="548" y="-222" type="line"/>
			<point x="546" y="-152"/>
			<point x="545" y="-82"/>
			<point x="545" y="-12" type="curve" smooth="yes"/>
			<point x="545" y="358" type="line"/>
			<point x="548" y="493" type="line"/>
			<point x="513" y="503" type="line"/>
			<point x="355" y="437" type="line"/>
			<point x="355" y="436" type="line"/>
			<point x="355" y="81" type="line"/>
			<point x="358" y="67" type="line"/>
			<point x="358" y="-12" type="line" smooth="yes"/>
			<point x="358" y="-82"/>
			<point x="357" y="-152"/>
		</contour>
	</outline>
	<anchor name="aboveLC" x="331" y="507"/>
	<anchor name="belowLC" x="446" y="-242"/>
</glyph>
<glyph name="r" format="2">
	<unicode hex="0072"/>
	<advance width="483"/>
	<outline>
		<contour>
			<point x="21" y="0" type="line"/>
			<point x="339" y="0" type="line"/>
			<point x="339" y="51" type="line"/>
			<point x="249" y="71" type="line"/>
			<point x="111" y="71" type="line"/>
			<point x="21" y="51" type="line"/>
		</contour>
		<contour>
			<point x="67" y="0" type="curve"/>
			<point x="263" y="0" type="line"/>
			<point x="261" y="45"/>
			<point x="260" y="148"/>
			<point x="260" y="210" type="curve" smooth="yes"/>
			<point x="260" y="368" type="line"/>
			<point x="260" y="370" type="line"/>
			<point x="252" y="492" type="line"/>
			<point x="234" y="503" type="line"/>
			<point x="13" y="434" type="line"/>
			<point x="13" y="393" type="line"/>
			<point x="67" y="384" type="line"/>
			<point x="69" y="344"/>
			<point x="70" y="328"/>
			<point x="70" y="273" type="curve" smooth="yes"/>
			<point x="70" y="210" type="line" smooth="yes"/>
			<point x="70" y="148"/>
			<point x="69" y="45"/>
		</contour>
		<contour>
			<point x="260" y="273" type="line"/>
			<point x="269" y="326"/>
			<point x="305" y="380"/>
			<point x="331" y="404" type="curve"/>
			<point x="294" y="428" type="line"/>
			<point x="324" y="384" type="line" smooth="yes"/>
			<point x="350" y="346"/>
			<point x="375" y="329"/>
			<point x="408" y="329" type="curve" smooth="yes"/>
			<point x="448" y="329"/>
			<point x="481" y="360"/>
			<point x="484" y="414" type="curve"/>
			<point x="477" y="475"/>
			<point x="440" y="503"/>
			<point x="391" y="503" type="curve" smooth="yes"/>
			<point x="337" y="503"/>
			<point x="272" y="451"/>
			<point x="251" y="342" type="curve"/>
			<point x="216" y="342" type="line"/>
		</contour>
	</outline>
	<anchor name="aboveLC" x="286" y="507"/>
	<anchor name="belowLC" x="172" y="-20"/>
</glyph>
<glyph name="u" format="2">
	<unicode hex="0075"/>
	<advance width="617"/>
	<outline>
		<contour>
			<point x="211" y="-16" type="curve" smooth="yes"/>
			<point x="300" y="-16"/>
			<point x="366" y="44"/>
			<point x="410" y="138" type="curve"/>
			<point x="431" y="138" type="line"/>
			<point x="405" y="176" type="line"/>
			<point x="383" y="137"/>
			<point x="336" y="91"/>
			<point x="301" y="91" type="curve" smooth="yes"/>
			<point x="275" y="91"/>
			<point x="257" y="107"/>
			<point x="257" y="159" type="curve" smooth="yes"/>
			<point x="257" y="343" type="line"/>
			<point x="262" y="487" type="line"/>
			<point x="244" y="498" type="line"/>
			<point x="17" y="463" type="line"/>
			<point x="17" y="418" type="line"/>
			<point x="105" y="398" type="line"/>
			<point x="69" y="435" type="line"/>
			<point x="65" y="164" type="line" smooth="yes"/>
			<point x="63" y="32"/>
			<point x="123" y="-16"/>
		</contour>
		<contour>
			<point x="371" y="-12" type="line"/>
			<point x="603" y="-1" type="line"/>
			<point x="603" y="50" type="line"/>
			<point x="557" y="60" type="line"/>
			<point x="557" y="343" type="line"/>
			<point x="560" y="487" type="line"/>
			<point x="542" y="498" type="line"/>
			<point x="321" y="458" type="line"/>
			<point x="321" y="418" type="line"/>
			<point x="369" y="407" type="line"/>
			<point x="365" y="107" type="line"/>
			<point x="365" y="106" type="line"/>
		</contour>
	</outline>
	<anchor name="aboveLC" x="313" y="507"/>
	<anchor name="belowLC" x="316" y="-20"/>
	<anchor name="hornLC" x="508" y="448"/>
	<anchor name="ogonek" x="508" y="0"/>
</glyph>
<glyph name="v" format="2">
	<unicode hex="0076"/>
	<advance width="536"/>
	<outline>
		<contour>
			<point x="216" y="0" type="line"/>
			<point x="306" y="0" type="line"/>
			<point x="493" y="487" type="line"/>
			<point x="417" y="487" type="line"/>
			<point x="316" y="183" type="line"/>
			<point x="312" y="171" type="line"/>
			<point x="331" y="171" type="line"/>
			<point x="217" y="487" type="line"/>
			<point x="14" y="487" type="line"/>
		</contour>
		<contour>
			<point x="-10" y="440" type="line"/>
			<point x="78" y="422" type="line"/>
			<point x="212" y="422" type="line"/>
			<point x="291" y="440" type="line"/>
			<point x="291" y="487" type="line"/>
			<point x="-10" y="487" type="line"/>
		</contour>
		<contour>
			<point x="343" y="440" type="line"/>
			<point x="420" y="425" type="line"/>
			<point x="444" y="425" type="line"/>
			<point x="531" y="440" type="line"/>
			<point x="531" y="487" type="line"/>
			<point x="343" y="487" type="line"/>
		</contour>
	</outline>
	<anchor name="aboveLC" x="318" y="507"/>
	<anchor name="belowLC" x="262" y="-20"/>
</glyph>
<glyph name="w" format="2">
	<unicode hex="0077"/>
	<advance width="800"/>
	<outline>
		<contour>
			<point x="186" y="0" type="line"/>
			<point x="276" y="0" type="line"/>
			<point x="393" y="336" type="line"/>
			<point x="373" y="336" type="line"/>
			<point x="492" y="0" type="line"/>
			<point x="582" y="0" type="line"/>
			<point x="757" y="487" type="line"/>
			<point x="681" y="487" type="line"/>
			<point x="579" y="178" type="line"/>
			<point x="597" y="177" type="line"/>
			<point x="502" y="487" type="line"/>
			<point x="381" y="487" type="line"/>
			<point x="277" y="170" type="line"/>
			<point x="294" y="169" type="line"/>
			<point x="202" y="487" type="line"/>
			<point x="10" y="487" type="line"/>
		</contour>
		<contour>
			<point x="-10" y="440" type="line"/>
			<point x="87" y="425" type="line"/>
			<point x="152" y="425" type="line"/>
			<point x="268" y="440" type="line"/>
			<point x="268" y="487" type="line"/>
			<point x="-10" y="487" type="line"/>
		</contour>
		<contour>
			<point x="311" y="440" type="line"/>
			<point x="417" y="425" type="line"/>
			<point x="468" y="425" type="line"/>
			<point x="565" y="440" type="line"/>
			<point x="565" y="487" type="line"/>
			<point x="311" y="487" type="line"/>
		</contour>
		<contour>
			<point x="613" y="440" type="line"/>
			<point x="692" y="429" type="line"/>
			<point x="708" y="429" type="line"/>
			<point x="795" y="440" type="line"/>
			<point x="795" y="487" type="line"/>
			<point x="613" y="487" type="line"/>
		</contour>
	</outline>
	<anchor name="aboveLC" x="424" y="520"/>
	<anchor name="belowLC" x="401" y="-22"/>
</glyph>
<glyph name="z" format="2">
	<unicode hex="007A"/>
	<advance width="468"/>
	<outline>
		<contour>
			<point x="14" y="0" type="line"/>
			<point x="448" y="0" type="line"/>
			<point x="458" y="169" type="line"/>
			<point x="365" y="169" type="line"/>
			<point x="329" y="19" type="line"/>
			<point x="366" y="48" type="line"/>
			<point x="196" y="48" type="line"/>
			<point x="211" y="22" type="line"/>
			<point x="450" y="447" type="line"/>
			<point x="450" y="487" type="line"/>
			<point x="28" y="487" type="line"/>
			<point x="20" y="333" type="line"/>
			<point x="112" y="329" type="line"/>
			<point x="146" y="469" type="line"/>
			<point x="109" y="440" type="line"/>
			<point x="279" y="440" type="line"/>
			<point x="264" y="466" type="line"/>
			<point x="14" y="41" type="line"/>
		</contour>
	</outline>
	<anchor name="aboveLC" x="249" y="520"/>
	<anchor name="belowLC" x="246" y="-22"/>
</glyph>
<glyph name="yen" format="2">
	<unicode hex="00A5"/>
	<advance width="560"/>
	<outline>
		<contour>
			<point x="350" y="245" type="line"/>
			<point x="544" y="625" type="line"/>
			<point x="462" y="625" type="line"/>
			<point x="323" y="329" type="line"/>
			<point x="314" y="309" type="line"/>
			<point x="346" y="309" type="line"/>
			<point x="203" y="625" type="line"/>
			<point x="11" y="625" type="line"/>
			<point x="211" y="245" type="line"/>
		</contour>
		<contour>
			<point x="132" y="553" type="line"/>
			<point x="165" y="553" type="line"/>
			<point x="307" y="567" type="line"/>
			<point x="307" y="625" type="line"/>
			<point x="-4" y="625" type="line"/>
			<point x="-4" y="567" type="line"/>
		</contour>
		<contour>
			<point x="244" y="72" type="line"/>
			<point x="101" y="58" type="line"/>
			<point x="101" y="0" type="line"/>
			<point x="458" y="0" type="line"/>
			<point x="458" y="58" type="line"/>
			<point x="315" y="72" type="line"/>
		</contour>
		<contour>
			<point x="188" y="189" type="line" smooth="yes"/>
			<point x="188" y="131"/>
			<point x="188" y="101"/>
			<point x="185" y="0" type="curve"/>
			<point x="375" y="0" type="line"/>
			<point x="372" y="100"/>
			<point x="372" y="132"/>
			<point x="372" y="189" type="curve" smooth="yes"/>
			<point x="372" y="301" type="line"/>
			<point x="188" y="301" type="line"/>
		</contour>
		<contour>
			<point x="449" y="553" type="line"/>
			<point x="493" y="553" type="line"/>
			<point x="563" y="567" type="line"/>
			<point x="563" y="625" type="line"/>
			<point x="365" y="625" type="line"/>
			<point x="365" y="567" type="line"/>
		</contour>
		<contour>
			<point x="62" y="136" type="line"/>
			<point x="498" y="136" type="line"/>
			<point x="498" y="196" type="line"/>
			<point x="62" y="196" type="line"/>
		</contour>
		<contour>
			<point x="62" y="266" type="line"/>
			<point x="498" y="266" type="line"/>
			<point x="498" y="326" type="line"/>
			<point x="62" y="326" type="line"/>
		</contour>
	</outline>
</glyph>
<glyph name="brokenbar" format="2">
	<unicode hex="00A6"/>
	<advance width="320"/>
	<outline>
		<contour>
			<point x="103" y="-250" type="line"/>
			<point x="217" y="-250" type="line"/>
			<point x="217" y="200" type="line"/>
			<point x="103" y="200" type="line"/>
		</contour>
		<contour>
			<point x="217" y="320" type="line"/>
			<point x="217" y="750" type="line"/>
			<point x="103" y="750" type="line"/>
			<point x="103" y="320" type="line"/>
		</contour>
	</outline>
</glyph>
<glyph name="section" format="2">
	<unicode hex="00A7"/>
	<advance width="549"/>
	<outline>
		<contour>
			<point x="260" y="-110" type="curve" smooth="yes"/>
			<point x="386" y="-110"/>
			<point x="453" y="-51"/>
			<point x="453" y="29" type="curve" smooth="yes"/>
			<point x="453" y="95"/>
			<point x="429" y="126"/>
			<point x="382" y="157" type="curve"/>
			<point x="382" y="164" type="line"/>
			<point x="345" y="185"/>
			<point x="328" y="194"/>
			<point x="279" y="216" type="curve" smooth="yes"/>
			<point x="179" y="261"/>
			<point x="157" y="280"/>
			<point x="157" y="317" type="curve" smooth="yes"/>
			<point x="157" y="351"/>
			<point x="174" y="373"/>
			<point x="215" y="388" type="curve"/>
			<point x="195" y="445" type="line"/>
			<point x="195" y="430" type="line"/>
			<point x="97" y="405"/>
			<point x="47" y="349"/>
			<point x="47" y="278" type="curve" smooth="yes"/>
			<point x="47" y="198"/>
			<point x="93" y="154"/>
			<point x="218" y="98" type="curve" smooth="yes"/>
			<point x="304" y="60"/>
			<point x="338" y="40"/>
			<point x="338" y="1" type="curve" smooth="yes"/>
			<point x="338" y="-32"/>
			<point x="316" y="-55"/>
			<point x="253" y="-55" type="curve" smooth="yes"/>
			<point x="218" y="-55"/>
			<point x="201" y="-56"/>
			<point x="185" y="-51" type="curve"/>
			<point x="235" y="-78" type="line"/>
			<point x="218" y="-17" type="line" smooth="yes"/>
			<point x="200" y="49"/>
			<point x="171" y="63"/>
			<point x="136" y="63" type="curve" smooth="yes"/>
			<point x="113" y="63"/>
			<point x="86" y="50"/>
			<point x="78" y="14" type="curve"/>
			<point x="84" y="-62"/>
			<point x="144" y="-110"/>
		</contour>
		<contour>
			<point x="290" y="672" type="curve" smooth="yes"/>
			<point x="164" y="672"/>
			<point x="97" y="612"/>
			<point x="97" y="527" type="curve" smooth="yes"/>
			<point x="97" y="469"/>
			<point x="121" y="435"/>
			<point x="168" y="404" type="curve"/>
			<point x="168" y="397" type="line"/>
			<point x="204" y="376"/>
			<point x="221" y="367"/>
			<point x="271" y="345" type="curve" smooth="yes"/>
			<point x="377" y="298"/>
			<point x="390" y="278"/>
			<point x="390" y="243" type="curve" smooth="yes"/>
			<point x="390" y="206"/>
			<point x="371" y="185"/>
			<point x="335" y="173" type="curve"/>
			<point x="354" y="120" type="line"/>
			<point x="355" y="131" type="line"/>
			<point x="454" y="156"/>
			<point x="504" y="211"/>
			<point x="504" y="281" type="curve" smooth="yes"/>
			<point x="504" y="362"/>
			<point x="458" y="407"/>
			<point x="332" y="463" type="curve" smooth="yes"/>
			<point x="246" y="502"/>
			<point x="212" y="523"/>
			<point x="212" y="563" type="curve" smooth="yes"/>
			<point x="212" y="594"/>
			<point x="234" y="617"/>
			<point x="297" y="617" type="curve" smooth="yes"/>
			<point x="332" y="617"/>
			<point x="349" y="618"/>
			<point x="365" y="613" type="curve"/>
			<point x="315" y="640" type="line"/>
			<point x="332" y="579" type="line" smooth="yes"/>
			<point x="350" y="513"/>
			<point x="379" y="499"/>
			<point x="414" y="499" type="curve" smooth="yes"/>
			<point x="437" y="499"/>
			<point x="464" y="512"/>
			<point x="472" y="548" type="curve"/>
			<point x="466" y="624"/>
			<point x="406" y="672"/>
		</contour>
	</outline>
</glyph>
<glyph name="copyright" format="2">
	<unicode hex="00A9"/>
	<advance width="740"/>
	<outline>
		<contour>
			<point x="371" y="-20" type="curve" smooth="yes"/>
			<point x="551" y="-20"/>
			<point x="711" y="117"/>
			<point x="711" y="326" type="curve" smooth="yes"/>
			<point x="711" y="536"/>
			<point x="551" y="672"/>
			<point x="371" y="672" type="curve" smooth="yes"/>
			<point x="191" y="672"/>
			<point x="30" y="536"/>
			<point x="30" y="326" type="curve" smooth="yes"/>
			<point x="30" y="117"/>
			<point x="191" y="-20"/>
		</contour>
		<contour>
			<point x="371" y="37" type="curve" smooth="yes"/>
			<point x="224" y="37"/>
			<point x="96" y="151"/>
			<point x="96" y="326" type="curve" smooth="yes"/>
			<point x="96" y="501"/>
			<point x="224" y="615"/>
			<point x="371" y="615" type="curve" smooth="yes"/>
			<point x="518" y="615"/>
			<point x="646" y="501"/>
			<point x="646" y="326" type="curve" smooth="yes"/>
			<point x="646" y="151"/>
			<point x="518" y="37"/>
		</contour>
		<contour>
			<point x="391" y="120" type="curve" smooth="yes"/>
			<point x="445" y="120"/>
			<point x="487" y="135"/>
			<point x="516" y="152" type="curve"/>
			<point x="518" y="246" type="line"/>
			<point x="469" y="246" type="line"/>
			<point x="447" y="150" type="line"/>
			<point x="493" y="199" type="line"/>
			<point x="469" y="180"/>
			<point x="444" y="166"/>
			<point x="417" y="166" type="curve" smooth="yes"/>
			<point x="361" y="166"/>
			<point x="310" y="219"/>
			<point x="310" y="327" type="curve" smooth="yes"/>
			<point x="310" y="435"/>
			<point x="361" y="490"/>
			<point x="419" y="490" type="curve" smooth="yes"/>
			<point x="444" y="490"/>
			<point x="464" y="478"/>
			<point x="489" y="456" type="curve"/>
			<point x="443" y="507" type="line"/>
			<point x="466" y="410" type="line"/>
			<point x="515" y="410" type="line"/>
			<point x="512" y="506" type="line"/>
			<point x="480" y="524"/>
			<point x="447" y="536"/>
			<point x="397" y="536" type="curve" smooth="yes"/>
			<point x="286" y="536"/>
			<point x="181" y="470"/>
			<point x="181" y="325" type="curve" smooth="yes"/>
			<point x="181" y="186"/>
			<point x="278" y="120"/>
		</contour>
	</outline>
</glyph>
<glyph name="macron" format="2">
	<unicode hex="00AF"/>
	<advance width="400"/>
	<outline>
		<contour>
			<point x="60" y="583" type="line"/>
			<point x="340" y="583" type="line"/>
			<point x="340" y="683" type="line"/>
			<point x="60" y="683" type="line"/>
		</contour>
	</outline>
</glyph>
<glyph name="two.sups" format="2">
	<unicode hex="00B2"/>
	<advance width="374"/>
	<outline>
		<contour>
			<point x="39" y="406" type="line"/>
			<point x="336" y="406" type="line"/>
			<point x="336" y="499" type="line"/>
			<point x="90" y="499" type="line"/>
			<point x="101" y="482" type="line"/>
			<point x="168" y="520" type="line" smooth="yes"/>
			<point x="277" y="582"/>
			<point x="331" y="633"/>
			<point x="331" y="695" type="curve" smooth="yes"/>
			<point x="331" y="755"/>
			<point x="289" y="803"/>
			<point x="201" y="803" type="curve" smooth="yes"/>
			<point x="105" y="803"/>
			<point x="36" y="769"/>
			<point x="36" y="696" type="curve"/>
			<point x="44" y="679"/>
			<point x="62" y="668"/>
			<point x="81" y="668" type="curve" smooth="yes"/>
			<point x="102" y="668"/>
			<point x="127" y="678"/>
			<point x="133" y="725" type="curve" smooth="yes"/>
			<point x="142" y="785" type="line"/>
			<point x="89" y="756" type="line"/>
			<point x="113" y="767"/>
			<point x="129" y="769"/>
			<point x="149" y="769" type="curve" smooth="yes"/>
			<point x="186" y="769"/>
			<point x="209" y="743"/>
			<point x="209" y="696" type="curve" smooth="yes"/>
			<point x="209" y="637"/>
			<point x="179" y="601"/>
			<point x="120" y="545" type="curve" smooth="yes"/>
			<point x="39" y="467" type="line"/>
		</contour>
	</outline>
</glyph>
<glyph name="three.sups" format="2">
	<unicode hex="00B3"/>
	<advance width="374"/>
	<outline>
		<contour>
			<point x="176" y="403" type="curve" smooth="yes"/>
			<point x="282" y="403"/>
			<point x="342" y="450"/>
			<point x="342" y="516" type="curve" smooth="yes"/>
			<point x="342" y="578"/>
			<point x="308" y="615"/>
			<point x="203" y="623" type="curve"/>
			<point x="203" y="613" type="line"/>
			<point x="298" y="625"/>
			<point x="330" y="670"/>
			<point x="330" y="712" type="curve" smooth="yes"/>
			<point x="330" y="768"/>
			<point x="285" y="812"/>
			<point x="182" y="812" type="curve" smooth="yes"/>
			<point x="111" y="812"/>
			<point x="47" y="781"/>
			<point x="51" y="708" type="curve"/>
			<point x="59" y="698"/>
			<point x="73" y="690"/>
			<point x="89" y="690" type="curve" smooth="yes"/>
			<point x="112" y="690"/>
			<point x="136" y="701"/>
			<point x="141" y="734" type="curve" smooth="yes"/>
			<point x="149" y="794" type="line"/>
			<point x="106" y="770" type="line"/>
			<point x="125" y="775"/>
			<point x="141" y="778"/>
			<point x="151" y="778" type="curve" smooth="yes"/>
			<point x="189" y="778"/>
			<point x="212" y="756"/>
			<point x="212" y="708" type="curve" smooth="yes"/>
			<point x="212" y="653"/>
			<point x="184" y="633"/>
			<point x="139" y="633" type="curve" smooth="yes"/>
			<point x="123" y="633" type="line"/>
			<point x="123" y="597" type="line"/>
			<point x="142" y="597" type="line" smooth="yes"/>
			<point x="190" y="597"/>
			<point x="217" y="572"/>
			<point x="217" y="522" type="curve" smooth="yes"/>
			<point x="217" y="462"/>
			<point x="189" y="437"/>
			<point x="135" y="437" type="curve" smooth="yes"/>
			<point x="119" y="437"/>
			<point x="111" y="440"/>
			<point x="97" y="446" type="curve"/>
			<point x="130" y="419" type="line"/>
			<point x="124" y="482" type="line" smooth="yes"/>
			<point x="119" y="529"/>
			<point x="101" y="541"/>
			<point x="73" y="541" type="curve" smooth="yes"/>
			<point x="56" y="541"/>
			<point x="38" y="533"/>
			<point x="30" y="511" type="curve"/>
			<point x="30" y="444"/>
			<point x="77" y="403"/>
		</contour>
	</outline>
</glyph>
<glyph name="acute" format="2">
	<unicode hex="00B4"/>
	<advance width="400"/>
	<outline>
		<contour>
			<point x="98" y="587" type="curve"/>
			<point x="141" y="552" type="line"/>
			<point x="161" y="565"/>
			<point x="181" y="579"/>
			<point x="247" y="625" type="curve" smooth="yes"/>
			<point x="291" y="656"/>
			<point x="322" y="685"/>
			<point x="322" y="721" type="curve" smooth="yes"/>
			<point x="322" y="760"/>
			<point x="291" y="784"/>
			<point x="261" y="784" type="curve" smooth="yes"/>
			<point x="222" y="784"/>
			<point x="202" y="762"/>
			<point x="172" y="712" type="curve" smooth="yes"/>
			<point x="125" y="634"/>
			<point x="111" y="611"/>
		</contour>
	</outline>
</glyph>
<glyph name="paragraph" format="2">
	<unicode hex="00B6"/>
	<advance width="651"/>
	<outline>
		<contour>
			<point x="313" y="103" type="curve"/>
			<point x="313" y="593" type="line"/>
			<point x="476" y="593" type="line"/>
			<point x="476" y="652" type="line"/>
			<point x="377" y="652" type="line" smooth="yes"/>
			<point x="179" y="652"/>
			<point x="21" y="582"/>
			<point x="21" y="380" type="curve" smooth="yes"/>
			<point x="21" y="184"/>
			<point x="163" y="105"/>
		</contour>
		<contour>
			<point x="390" y="-110" type="curve"/>
			<point x="554" y="-110" type="line"/>
			<point x="551" y="-7"/>
			<point x="551" y="97"/>
			<point x="551" y="201" type="curve" smooth="yes"/>
			<point x="551" y="342" type="line" smooth="yes"/>
			<point x="551" y="447"/>
			<point x="551" y="551"/>
			<point x="554" y="652" type="curve"/>
			<point x="393" y="652" type="line"/>
			<point x="393" y="200" type="line" smooth="yes"/>
			<point x="393" y="95"/>
			<point x="393" y="-9"/>
		</contour>
		<contour>
			<point x="472" y="578" type="line"/>
			<point x="488" y="578" type="line"/>
			<point x="622" y="593" type="line"/>
			<point x="622" y="652" type="line"/>
			<point x="472" y="652" type="line"/>
		</contour>
	</outline>
</glyph>
<glyph name="cedilla" format="2">
	<unicode hex="00B8"/>
	<advance width="400"/>
	<outline>
		<contour>
			<point x="130" y="-90" type="line"/>
			<point x="169" y="-92"/>
			<point x="190" y="-106"/>
			<point x="190" y="-135" type="curve" smooth="yes"/>
			<point x="190" y="-156"/>
			<point x="175" y="-170"/>
			<point x="140" y="-170" type="curve" smooth="yes"/>
			<point x="122" y="-170"/>
			<point x="105" y="-167"/>
			<point x="85" y="-160" type="curve"/>
			<point x="73" y="-212" type="line"/>
			<point x="99" y="-222"/>
			<point x="123" y="-227"/>
			<point x="157" y="-227" type="curve" smooth="yes"/>
			<point x="253" y="-227"/>
			<point x="301" y="-188"/>
			<point x="301" y="-135" type="curve" smooth="yes"/>
			<point x="301" y="-92"/>
			<point x="268" y="-53"/>
			<point x="159" y="-43" type="curve"/>
			<point x="194" y="-71" type="line"/>
			<point x="203" y="5" type="line"/>
			<point x="145" y="5" type="line"/>
		</contour>
	</outline>
</glyph>
<glyph name="one.sups" format="2">
	<unicode hex="00B9"/>
	<advance width="374"/>
	<outline>
		<contour>
			<point x="64" y="415" type="line"/>
			<point x="328" y="415" type="line"/>
			<point x="328" y="447" type="line"/>
			<point x="258" y="466" type="line"/>
			<point x="142" y="466" type="line"/>
			<point x="64" y="447" type="line"/>
		</contour>
		<contour>
			<point x="137" y="415" type="line"/>
			<point x="260" y="415" type="line"/>
			<point x="260" y="806" type="line"/>
			<point x="251" y="813" type="line"/>
			<point x="70" y="771" type="line"/>
			<point x="70" y="729" type="line"/>
			<point x="137" y="739" type="line"/>
		</contour>
	</outline>
</glyph>
<glyph name="onequarter" format="2">
	<unicode hex="00BC"/>
	<advance width="858"/>
	<outline>
		<contour>
			<point x="672" y="0" type="line"/>
			<point x="778" y="0" type="line"/>
			<point x="778" y="387" type="line"/>
			<point x="693" y="387" type="line"/>
			<point x="509" y="149" type="line"/>
			<point x="509" y="85" type="line"/>
			<point x="833" y="85" type="line"/>
			<point x="833" y="163" type="line"/>
			<point x="561" y="163" type="line"/>
			<point x="561" y="179" type="line"/>
			<point x="552" y="142" type="line"/>
			<point x="638" y="254" type="line"/>
			<point x="725" y="366" type="line"/>
			<point x="660" y="314" type="line"/>
			<point x="672" y="314" type="line"/>
			<point x="672" y="139" type="line"/>
			<point x="672" y="114" type="line"/>
		</contour>
		<contour>
			<point x="64" y="265" type="line"/>
			<point x="328" y="265" type="line"/>
			<point x="328" y="297" type="line"/>
			<point x="258" y="316" type="line"/>
			<point x="142" y="316" type="line"/>
			<point x="64" y="297" type="line"/>
		</contour>
		<contour>
			<point x="137" y="265" type="line"/>
			<point x="260" y="265" type="line"/>
			<point x="260" y="656" type="line"/>
			<point x="251" y="663" type="line"/>
			<point x="70" y="621" type="line"/>
			<point x="70" y="579" type="line"/>
			<point x="137" y="589" type="line"/>
		</contour>
		<component base="fraction" xOffset="374"/>
	</outline>
</glyph>
<glyph name="threequarters" format="2">
	<unicode hex="00BE"/>
	<advance width="858"/>
	<outline>
		<contour>
			<point x="672" y="0" type="line"/>
			<point x="778" y="0" type="line"/>
			<point x="778" y="387" type="line"/>
			<point x="693" y="387" type="line"/>
			<point x="509" y="149" type="line"/>
			<point x="509" y="85" type="line"/>
			<point x="833" y="85" type="line"/>
			<point x="833" y="163" type="line"/>
			<point x="561" y="163" type="line"/>
			<point x="561" y="179" type="line"/>
			<point x="552" y="142" type="line"/>
			<point x="638" y="254" type="line"/>
			<point x="725" y="366" type="line"/>
			<point x="660" y="314" type="line"/>
			<point x="672" y="314" type="line"/>
			<point x="672" y="139" type="line"/>
			<point x="672" y="114" type="line"/>
		</contour>
		<contour>
			<point x="176" y="253" type="curve" smooth="yes"/>
			<point x="282" y="253"/>
			<point x="342" y="300"/>
			<point x="342" y="366" type="curve" smooth="yes"/>
			<point x="342" y="428"/>
			<point x="308" y="465"/>
			<point x="203" y="473" type="curve"/>
			<point x="203" y="463" type="line"/>
			<point x="298" y="475"/>
			<point x="330" y="520"/>
			<point x="330" y="562" type="curve" smooth="yes"/>
			<point x="330" y="618"/>
			<point x="285" y="662"/>
			<point x="182" y="662" type="curve" smooth="yes"/>
			<point x="111" y="662"/>
			<point x="47" y="631"/>
			<point x="51" y="558" type="curve"/>
			<point x="59" y="548"/>
			<point x="73" y="540"/>
			<point x="89" y="540" type="curve" smooth="yes"/>
			<point x="112" y="540"/>
			<point x="136" y="551"/>
			<point x="141" y="584" type="curve" smooth="yes"/>
			<point x="149" y="644" type="line"/>
			<point x="106" y="620" type="line"/>
			<point x="125" y="625"/>
			<point x="141" y="628"/>
			<point x="151" y="628" type="curve" smooth="yes"/>
			<point x="189" y="628"/>
			<point x="212" y="606"/>
			<point x="212" y="558" type="curve" smooth="yes"/>
			<point x="212" y="503"/>
			<point x="184" y="483"/>
			<point x="139" y="483" type="curve" smooth="yes"/>
			<point x="123" y="483" type="line"/>
			<point x="123" y="447" type="line"/>
			<point x="142" y="447" type="line" smooth="yes"/>
			<point x="190" y="447"/>
			<point x="217" y="422"/>
			<point x="217" y="372" type="curve" smooth="yes"/>
			<point x="217" y="312"/>
			<point x="189" y="287"/>
			<point x="135" y="287" type="curve" smooth="yes"/>
			<point x="119" y="287"/>
			<point x="111" y="290"/>
			<point x="97" y="296" type="curve"/>
			<point x="130" y="269" type="line"/>
			<point x="124" y="332" type="line" smooth="yes"/>
			<point x="119" y="379"/>
			<point x="101" y="391"/>
			<point x="73" y="391" type="curve" smooth="yes"/>
			<point x="56" y="391"/>
			<point x="38" y="383"/>
			<point x="30" y="361" type="curve"/>
			<point x="30" y="294"/>
			<point x="77" y="253"/>
		</contour>
		<component base="fraction" xOffset="374"/>
	</outline>
</glyph>
<glyph name="Agrave" format="2">
	<unicode hex="00C0"/>
	<advance width="680"/>
	<outline>
		<contour>
			<point x="446" y="729" type="line"/>
			<point x="406" y="768"/>
			<point x="365" y="806"/>
			<point x="328" y="841" type="curve" smooth="yes"/>
			<point x="295" y="872"/>
			<point x="275" y="881"/>
			<point x="249" y="881" type="curve" smooth="yes"/>
			<point x="213" y="881"/>
			<point x="188" y="851"/>
			<point x="188" y="823" type="curve" smooth="yes"/>
			<point x="188" y="804"/>
			<point x="196" y="774"/>
			<point x="249" y="752" type="curve" smooth="yes"/>
			<point x="306" y="728"/>
			<point x="361" y="706"/>
			<point x="415" y="684" type="curve"/>
		</contour>
		<component base="A"/>
	</outline>
</glyph>
<glyph name="Aacute" format="2">
	<unicode hex="00C1"/>
	<advance width="680"/>
	<outline>
		<contour>
			<point x="248" y="729" type="curve"/>
			<point x="279" y="684" type="line"/>
			<point x="335" y="708"/>
			<point x="390" y="730"/>
			<point x="447" y="754" type="curve" smooth="yes"/>
			<point x="498" y="775"/>
			<point x="506" y="804"/>
			<point x="506" y="823" type="curve" smooth="yes"/>
			<point x="506" y="851"/>
			<point x="481" y="881"/>
			<point x="445" y="881" type="curve" smooth="yes"/>
			<point x="419" y="881"/>
			<point x="399" y="872"/>
			<point x="365" y="840" type="curve" smooth="yes"/>
			<point x="328" y="805"/>
			<point x="287" y="767"/>
		</contour>
		<component base="A"/>
	</outline>
</glyph>
<glyph name="Atilde" format="2">
	<unicode hex="00C3"/>
	<advance width="680"/>
	<outline>
		<contour>
			<point x="165" y="714" type="curve"/>
			<point x="212" y="694" type="line"/>
			<point x="224" y="725"/>
			<point x="245" y="744"/>
			<point x="273" y="744" type="curve" smooth="yes"/>
			<point x="298" y="744"/>
			<point x="318" y="729"/>
			<point x="339" y="718" type="curve" smooth="yes"/>
			<point x="360" y="707"/>
			<point x="387" y="695"/>
			<point x="414" y="695" type="curve" smooth="yes"/>
			<point x="470" y="695"/>
			<point x="519" y="747"/>
			<point x="530" y="839" type="curve"/>
			<point x="483" y="859" type="line"/>
			<point x="471" y="827"/>
			<point x="449" y="808"/>
			<point x="421" y="808" type="curve" smooth="yes"/>
			<point x="397" y="808"/>
			<point x="377" y="821"/>
			<point x="357" y="833" type="curve" smooth="yes"/>
			<point x="337" y="845"/>
			<point x="313" y="857"/>
			<point x="284" y="857" type="curve" smooth="yes"/>
			<point x="225" y="857"/>
			<point x="176" y="807"/>
		</contour>
		<component base="A"/>
	</outline>
</glyph>
<glyph name="Aring" format="2">
	<unicode hex="00C5"/>
	<advance width="680"/>
	<outline>
		<contour>
			<point x="347" y="693" type="curve" smooth="yes"/>
			<point x="408" y="693"/>
			<point x="453" y="730"/>
			<point x="453" y="794" type="curve" smooth="yes"/>
			<point x="453" y="857"/>
			<point x="408" y="895"/>
			<point x="347" y="895" type="curve" smooth="yes"/>
			<point x="286" y="895"/>
			<point x="241" y="855"/>
			<point x="241" y="794" type="curve" smooth="yes"/>
			<point x="241" y="732"/>
			<point x="286" y="693"/>
		</contour>
		<contour>
			<point x="347" y="743" type="curve" smooth="yes"/>
			<point x="317" y="743"/>
			<point x="297" y="762"/>
			<point x="297" y="794" type="curve" smooth="yes"/>
			<point x="297" y="824"/>
			<point x="317" y="845"/>
			<point x="347" y="845" type="curve" smooth="yes"/>
			<point x="377" y="845"/>
			<point x="397" y="824"/>
			<point x="397" y="794" type="curve" smooth="yes"/>
			<point x="397" y="762"/>
			<point x="377" y="743"/>
		</contour>
		<component base="A"/>
	</outline>
</glyph>
<glyph name="AE" format="2">
	<unicode hex="00C6"/>
	<advance width="880"/>
	<outline>
		<contour>
			<point x="384" y="0" type="curve"/>
			<point x="588" y="0" type="line"/>
			<point x="585" y="103"/>
			<point x="585" y="207"/>
			<point x="585" y="311" type="curve" smooth="yes"/>
			<point x="585" y="342" type="line" smooth="yes"/>
			<point x="585" y="447"/>
			<point x="585" y="551"/>
			<point x="588" y="652" type="curve"/>
			<point x="387" y="652" type="line"/>
			<point x="387" y="300" type="line" smooth="yes"/>
			<point x="387" y="205"/>
			<point x="387" y="101"/>
		</contour>
		<contour>
			<point x="10" y="0" type="line"/>
			<point x="220" y="0" type="line"/>
			<point x="220" y="59" type="line"/>
			<point x="131" y="74" type="line"/>
			<point x="114" y="74" type="line"/>
			<point x="10" y="59" type="line"/>
		</contour>
		<contour>
			<point x="689" y="235" type="line"/>
			<point x="752" y="235" type="line"/>
			<point x="752" y="442" type="line"/>
			<point x="689" y="442" type="line"/>
			<point x="674" y="350" type="line"/>
			<point x="674" y="332" type="line"/>
		</contour>
		<contour>
			<point x="746" y="482" type="line"/>
			<point x="840" y="482" type="line"/>
			<point x="833" y="652" type="line"/>
			<point x="486" y="652" type="line"/>
			<point x="486" y="593" type="line"/>
			<point x="727" y="593" type="line"/>
		</contour>
		<contour>
			<point x="486" y="0" type="line"/>
			<point x="853" y="0" type="line"/>
			<point x="860" y="170" type="line"/>
			<point x="766" y="170" type="line"/>
			<point x="747" y="58" type="line"/>
			<point x="486" y="58" type="line"/>
		</contour>
		<contour>
			<point x="207" y="593" type="line"/>
			<point x="348" y="578" type="line"/>
			<point x="486" y="578" type="line"/>
			<point x="486" y="652" type="line"/>
			<point x="207" y="652" type="line"/>
		</contour>
		<contour>
			<point x="317" y="0" type="line"/>
			<point x="486" y="0" type="line"/>
			<point x="486" y="74" type="line"/>
			<point x="468" y="74" type="line"/>
			<point x="317" y="59" type="line"/>
		</contour>
		<contour>
			<point x="37" y="0" type="line"/>
			<point x="113" y="0" type="line"/>
			<point x="236" y="270" type="line"/>
			<point x="409" y="652" type="line"/>
			<point x="341" y="652" type="line"/>
		</contour>
		<contour>
			<point x="188" y="222" type="line"/>
			<point x="477" y="222" type="line"/>
			<point x="477" y="285" type="line"/>
			<point x="188" y="285" type="line"/>
		</contour>
		<contour>
			<point x="487" y="306" type="line"/>
			<point x="704" y="306" type="line"/>
			<point x="704" y="370" type="line"/>
			<point x="487" y="370" type="line"/>
		</contour>
	</outline>
	<anchor name="aboveUC" x="546" y="672"/>
</glyph>
<glyph name="Eacute" format="2">
	<unicode hex="00C9"/>
	<advance width="591"/>
	<outline>
		<contour>
			<point x="231" y="729" type="curve"/>
			<point x="262" y="684" type="line"/>
			<point x="318" y="708"/>
			<point x="373" y="730"/>
			<point x="430" y="754" type="curve" smooth="yes"/>
			<point x="481" y="775"/>
			<point x="489" y="804"/>
			<point x="489" y="823" type="curve" smooth="yes"/>
			<point x="489" y="851"/>
			<point x="464" y="881"/>
			<point x="428" y="881" type="curve" smooth="yes"/>
			<point x="402" y="881"/>
			<point x="382" y="872"/>
			<point x="348" y="840" type="curve" smooth="yes"/>
			<point x="311" y="805"/>
			<point x="270" y="767"/>
		</contour>
		<component base="E"/>
	</outline>
</glyph>
<glyph name="Edieresis" format="2">
	<unicode hex="00CB"/>
	<advance width="591"/>
	<outline>
		<contour>
			<point x="200" y="700" type="curve" smooth="yes"/>
			<point x="243" y="700"/>
			<point x="280" y="727"/>
			<point x="280" y="775" type="curve" smooth="yes"/>
			<point x="280" y="823"/>
			<point x="243" y="850"/>
			<point x="200" y="850" type="curve" smooth="yes"/>
			<point x="159" y="850"/>
			<point x="120" y="823"/>
			<point x="120" y="775" type="curve" smooth="yes"/>
			<point x="120" y="727"/>
			<point x="159" y="700"/>
		</contour>
		<contour>
			<point x="460" y="700" type="curve" smooth="yes"/>
			<point x="503" y="700"/>
			<point x="540" y="727"/>
			<point x="540" y="775" type="curve" smooth="yes"/>
			<point x="540" y="823"/>
			<point x="503" y="850"/>
			<point x="460" y="850" type="curve" smooth="yes"/>
			<point x="419" y="850"/>
			<point x="380" y="823"/>
			<point x="380" y="775" type="curve" smooth="yes"/>
			<point x="380" y="727"/>
			<point x="419" y="700"/>
		</contour>
		<component base="E"/>
	</outline>
</glyph>
<glyph name="Idieresis" format="2">
	<unicode hex="00CF"/>
	<advance width="395"/>
	<outline>
		<contour>
			<point x="100" y="700" type="curve" smooth="yes"/>
			<point x="138" y="700"/>
			<point x="174" y="727"/>
			<point x="174" y="775" type="curve" smooth="yes"/>
			<point x="174" y="823"/>
			<point x="138" y="850"/>
			<point x="100" y="850" type="curve" smooth="yes"/>
			<point x="60" y="850"/>
			<point x="24" y="823"/>
			<point x="24" y="775" type="curve" smooth="yes"/>
			<point x="24" y="727"/>
			<point x="60" y="700"/>
		</contour>
		<contour>
			<point x="297" y="700" type="curve" smooth="yes"/>
			<point x="335" y="700"/>
			<point x="371" y="727"/>
			<point x="371" y="775" type="curve" smooth="yes"/>
			<point x="371" y="823"/>
			<point x="335" y="850"/>
			<point x="297" y="850" type="curve" smooth="yes"/>
			<point x="257" y="850"/>
			<point x="221" y="823"/>
			<point x="221" y="775" type="curve" smooth="yes"/>
			<point x="221" y="727"/>
			<point x="257" y="700"/>
		</contour>
		<component base="I"/>
	</outline>
</glyph>
<glyph name="Eth" format="2">
	<unicode hex="00D0"/>
	<advance width="703"/>
	<outline>
		<contour>
			<point x="398" y="303" type="line"/>
			<point x="398" y="366" type="line"/>
			<point x="28" y="366" type="line"/>
			<point x="28" y="303" type="line"/>
		</contour>
		<component base="D"/>
	</outline>
</glyph>
<glyph name="Uacute" format="2">
	<unicode hex="00DA"/>
	<advance width="732"/>
	<outline>
		<contour>
			<point x="323" y="729" type="curve"/>
			<point x="354" y="684" type="line"/>
			<point x="410" y="708"/>
			<point x="465" y="730"/>
			<point x="522" y="754" type="curve" smooth="yes"/>
			<point x="573" y="775"/>
			<point x="581" y="804"/>
			<point x="581" y="823" type="curve" smooth="yes"/>
			<point x="581" y="851"/>
			<point x="556" y="881"/>
			<point x="520" y="881" type="curve" smooth="yes"/>
			<point x="494" y="881"/>
			<point x="474" y="872"/>
			<point x="440" y="840" type="curve" smooth="yes"/>
			<point x="403" y="805"/>
			<point x="362" y="767"/>
		</contour>
		<component base="U"/>
	</outline>
</glyph>
<glyph name="Udieresis" format="2">
	<unicode hex="00DC"/>
	<advance width="732"/>
	<outline>
		<contour>
			<point x="292" y="700" type="curve" smooth="yes"/>
			<point x="335" y="700"/>
			<point x="372" y="727"/>
			<point x="372" y="775" type="curve" smooth="yes"/>
			<point x="372" y="823"/>
			<point x="335" y="850"/>
			<point x="292" y="850" type="curve" smooth="yes"/>
			<point x="251" y="850"/>
			<point x="212" y="823"/>
			<point x="212" y="775" type="curve" smooth="yes"/>
			<point x="212" y="727"/>
			<point x="251" y="700"/>
		</contour>
		<contour>
			<point x="552" y="700" type="curve" smooth="yes"/>
			<point x="595" y="700"/>
			<point x="632" y="727"/>
			<point x="632" y="775" type="curve" smooth="yes"/>
			<point x="632" y="823"/>
			<point x="595" y="850"/>
			<point x="552" y="850" type="curve" smooth="yes"/>
			<point x="511" y="850"/>
			<point x="472" y="823"/>
			<point x="472" y="775" type="curve" smooth="yes"/>
			<point x="472" y="727"/>
			<point x="511" y="700"/>
		</contour>
		<component base="U"/>
	</outline>
</glyph>
<glyph name="germandbls" format="2">
	<unicode hex="00DF"/>
	<advance width="687"/>
	<outline>
		<contour>
			<point x="182" y="71" type="line"/>
			<point x="121" y="71" type="line"/>
			<point x="27" y="51" type="line"/>
			<point x="27" y="0" type="line"/>
			<point x="182" y="0" type="line"/>
		</contour>
		<contour>
			<point x="74" y="210" type="line" smooth="yes"/>
			<point x="74" y="140"/>
			<point x="73" y="70"/>
			<point x="71" y="0" type="curve"/>
			<point x="267" y="0" type="line"/>
			<point x="265" y="70"/>
			<point x="264" y="140"/>
			<point x="264" y="210" type="curve" smooth="yes"/>
			<point x="264" y="404" type="line" smooth="yes"/>
			<point x="264" y="556"/>
			<point x="273" y="617"/>
			<point x="308" y="652" type="curve" smooth="yes"/>
			<point x="325" y="669"/>
			<point x="349" y="676"/>
			<point x="381" y="676" type="curve" smooth="yes"/>
			<point x="434" y="676"/>
			<point x="466" y="639"/>
			<point x="466" y="590" type="curve" smooth="yes"/>
			<point x="466" y="546"/>
			<point x="446" y="520"/>
			<point x="420" y="497" type="curve" smooth="yes"/>
			<point x="379" y="461"/>
			<point x="326" y="433"/>
			<point x="326" y="356" type="curve" smooth="yes"/>
			<point x="326" y="277"/>
			<point x="382" y="240"/>
			<point x="434" y="207" type="curve" smooth="yes"/>
			<point x="479" y="179"/>
			<point x="521" y="154"/>
			<point x="521" y="108" type="curve" smooth="yes"/>
			<point x="521" y="62"/>
			<point x="490" y="43"/>
			<point x="442" y="43" type="curve" smooth="yes"/>
			<point x="401" y="43"/>
			<point x="374" y="45"/>
			<point x="327" y="66" type="curve"/>
			<point x="426" y="4" type="line"/>
			<point x="405" y="144" type="line"/>
			<point x="314" y="144" type="line"/>
			<point x="309" y="16" type="line"/>
			<point x="350" y="-9"/>
			<point x="401" y="-16"/>
			<point x="450" y="-16" type="curve" smooth="yes"/>
			<point x="589" y="-16"/>
			<point x="677" y="70"/>
			<point x="677" y="169" type="curve" smooth="yes"/>
			<point x="677" y="263"/>
			<point x="614" y="309"/>
			<point x="557" y="344" type="curve" smooth="yes"/>
			<point x="511" y="373"/>
			<point x="468" y="394"/>
			<point x="468" y="428" type="curve" smooth="yes"/>
			<point x="468" y="459"/>
			<point x="506" y="472"/>
			<point x="543" y="494" type="curve" smooth="yes"/>
			<point x="578" y="515"/>
			<point x="612" y="542"/>
			<point x="612" y="598" type="curve" smooth="yes"/>
			<point x="612" y="671"/>
			<point x="548" y="731"/>
			<point x="386" y="731" type="curve" smooth="yes"/>
			<point x="305" y="731"/>
			<point x="229" y="707"/>
			<point x="175" y="667" type="curve" smooth="yes"/>
			<point x="114" y="622"/>
			<point x="74" y="542"/>
			<point x="74" y="435" type="curve" smooth="yes"/>
		</contour>
	</outline>
</glyph>
<glyph name="agrave" format="2">
	<unicode hex="00E0"/>
	<advance width="540"/>
	<outline>
		<contour>
			<point x="333" y="587" type="line"/>
			<point x="320" y="612"/>
			<point x="305" y="636"/>
			<point x="258" y="713" type="curve" smooth="yes"/>
			<point x="228" y="762"/>
			<point x="209" y="784"/>
			<point x="170" y="784" type="curve" smooth="yes"/>
			<point x="140" y="784"/>
			<point x="109" y="760"/>
			<point x="109" y="721" type="curve" smooth="yes"/>
			<point x="109" y="685"/>
			<point x="140" y="657"/>
			<point x="184" y="626" type="curve" smooth="yes"/>
			<point x="250" y="579"/>
			<point x="270" y="565"/>
			<point x="290" y="552" type="curve"/>
		</contour>
		<component base="a"/>
	</outline>
</glyph>
<glyph name="atilde" format="2">
	<unicode hex="00E3"/>
	<advance width="540"/>
	<outline>
		<contour>
			<point x="89" y="583" type="curve"/>
			<point x="138" y="569" type="line"/>
			<point x="150" y="600"/>
			<point x="168" y="619"/>
			<point x="193" y="619" type="curve" smooth="yes"/>
			<point x="216" y="619"/>
			<point x="235" y="604"/>
			<point x="253" y="594" type="curve" smooth="yes"/>
			<point x="276" y="582"/>
			<point x="304" y="570"/>
			<point x="331" y="570" type="curve" smooth="yes"/>
			<point x="383" y="570"/>
			<point x="428" y="614"/>
			<point x="439" y="720" type="curve"/>
			<point x="390" y="734" type="line"/>
			<point x="378" y="702"/>
			<point x="359" y="683"/>
			<point x="334" y="683" type="curve" smooth="yes"/>
			<point x="312" y="683"/>
			<point x="295" y="696"/>
			<point x="274" y="708" type="curve" smooth="yes"/>
			<point x="254" y="720"/>
			<point x="229" y="732"/>
			<point x="200" y="732" type="curve" smooth="yes"/>
			<point x="145" y="732"/>
			<point x="100" y="690"/>
		</contour>
		<component base="a"/>
	</outline>
</glyph>
<glyph name="aring" format="2">
	<unicode hex="00E5"/>
	<advance width="540"/>
	<outline>
		<contour>
			<point x="264" y="610" type="curve" smooth="yes"/>
			<point x="225" y="610"/>
			<point x="204" y="643"/>
			<point x="204" y="674" type="curve" smooth="yes"/>
			<point x="204" y="707"/>
			<point x="225" y="738"/>
			<point x="264" y="738" type="curve" smooth="yes"/>
			<point x="303" y="738"/>
			<point x="324" y="707"/>
			<point x="324" y="674" type="curve" smooth="yes"/>
			<point x="324" y="643"/>
			<point x="303" y="610"/>
		</contour>
		<contour>
			<point x="264" y="554" type="curve" smooth="yes"/>
			<point x="336" y="554"/>
			<point x="391" y="598"/>
			<point x="391" y="674" type="curve" smooth="yes"/>
			<point x="391" y="750"/>
			<point x="336" y="794"/>
			<point x="264" y="794" type="curve" smooth="yes"/>
			<point x="192" y="794"/>
			<point x="137" y="747"/>
			<point x="137" y="674" type="curve" smooth="yes"/>
			<point x="137" y="601"/>
			<point x="192" y="554"/>
		</contour>
		<component base="a"/>
	</outline>
</glyph>
<glyph name="ae" format="2">
	<unicode hex="00E6"/>
	<advance width="792"/>
	<outline>
		<contour>
			<point x="197" y="144" type="curve" smooth="yes"/>
			<point x="197" y="198"/>
			<point x="234" y="230"/>
			<point x="262" y="243" type="curve" smooth="yes"/>
			<point x="291" y="257"/>
			<point x="343" y="270"/>
			<point x="391" y="283" type="curve"/>
			<point x="391" y="327" type="line"/>
			<point x="345" y="315"/>
			<point x="271" y="296"/>
			<point x="230" y="285" type="curve" smooth="yes"/>
			<point x="68" y="242"/>
			<point x="25" y="190"/>
			<point x="25" y="113" type="curve" smooth="yes"/>
			<point x="25" y="31"/>
			<point x="76" y="-16"/>
			<point x="166" y="-16" type="curve" smooth="yes"/>
			<point x="250" y="-16"/>
			<point x="314" y="11"/>
			<point x="373" y="109" type="curve"/>
			<point x="344" y="131" type="line"/>
			<point x="298" y="80"/>
			<point x="284" y="71"/>
			<point x="253" y="71" type="curve" smooth="yes"/>
			<point x="224" y="71"/>
			<point x="197" y="89"/>
		</contour>
		<contour>
			<point x="548" y="-16" type="curve" smooth="yes"/>
			<point x="647" y="-16"/>
			<point x="722" y="20"/>
			<point x="765" y="101" type="curve"/>
			<point x="726" y="139" type="line"/>
			<point x="698" y="112"/>
			<point x="662" y="92"/>
			<point x="612" y="92" type="curve" smooth="yes"/>
			<point x="547" y="92"/>
			<point x="488" y="142"/>
			<point x="488" y="262" type="curve" smooth="yes"/>
			<point x="488" y="407"/>
			<point x="512" y="449"/>
			<point x="544" y="449" type="curve" smooth="yes"/>
			<point x="571" y="449"/>
			<point x="596" y="424"/>
			<point x="596" y="355" type="curve" smooth="yes"/>
			<point x="596" y="304"/>
			<point x="583" y="288"/>
			<point x="535" y="288" type="curve" smooth="yes"/>
			<point x="367" y="288" type="line"/>
			<point x="367" y="231" type="line"/>
			<point x="767" y="231" type="line"/>
			<point x="771" y="249"/>
			<point x="772" y="263"/>
			<point x="772" y="284" type="curve" smooth="yes"/>
			<point x="772" y="405"/>
			<point x="700" y="503"/>
			<point x="557" y="503" type="curve" smooth="yes"/>
			<point x="492" y="503"/>
			<point x="425" y="480"/>
			<point x="379" y="416" type="curve"/>
			<point x="338" y="402" type="line"/>
			<point x="307" y="362"/>
			<point x="288" y="309"/>
			<point x="288" y="245" type="curve" smooth="yes"/>
			<point x="288" y="84"/>
			<point x="399" y="-16"/>
		</contour>
		<contour>
			<point x="465" y="308" type="line" smooth="yes"/>
			<point x="465" y="447"/>
			<point x="407" y="503"/>
			<point x="286" y="503" type="curve" smooth="yes"/>
			<point x="125" y="503"/>
			<point x="42" y="442"/>
			<point x="42" y="356" type="curve"/>
			<point x="52" y="320"/>
			<point x="79" y="302"/>
			<point x="118" y="302" type="curve" smooth="yes"/>
			<point x="161" y="302"/>
			<point x="200" y="334"/>
			<point x="200" y="415" type="curve" smooth="yes"/>
			<point x="200" y="478" type="line"/>
			<point x="120" y="436" type="line"/>
			<point x="166" y="446"/>
			<point x="190" y="449"/>
			<point x="215" y="449" type="curve" smooth="yes"/>
			<point x="278" y="449"/>
			<point x="291" y="421"/>
			<point x="291" y="336" type="curve" smooth="yes"/>
			<point x="291" y="228" type="line"/>
			<point x="465" y="228" type="line"/>
		</contour>
	</outline>
	<anchor name="aboveLC" x="399" y="520"/>
	<anchor name="belowLC" x="380" y="-22"/>
</glyph>
<glyph name="ccedilla" format="2">
	<unicode hex="00E7"/>
	<advance width="523"/>
	<outline>
		<contour>
			<point x="246" y="-90" type="line"/>
			<point x="285" y="-92"/>
			<point x="306" y="-106"/>
			<point x="306" y="-135" type="curve" smooth="yes"/>
			<point x="306" y="-156"/>
			<point x="291" y="-170"/>
			<point x="256" y="-170" type="curve" smooth="yes"/>
			<point x="238" y="-170"/>
			<point x="221" y="-167"/>
			<point x="201" y="-160" type="curve"/>
			<point x="189" y="-212" type="line"/>
			<point x="215" y="-222"/>
			<point x="239" y="-227"/>
			<point x="273" y="-227" type="curve" smooth="yes"/>
			<point x="369" y="-227"/>
			<point x="417" y="-188"/>
			<point x="417" y="-135" type="curve" smooth="yes"/>
			<point x="417" y="-92"/>
			<point x="384" y="-53"/>
			<point x="275" y="-43" type="curve"/>
			<point x="310" y="-71" type="line"/>
			<point x="319" y="5" type="line"/>
			<point x="261" y="5" type="line"/>
		</contour>
		<component base="c"/>
	</outline>
</glyph>
<glyph name="eacute" format="2">
	<unicode hex="00E9"/>
	<advance width="526"/>
	<outline>
		<contour>
			<point x="202" y="587" type="curve"/>
			<point x="245" y="552" type="line"/>
			<point x="265" y="565"/>
			<point x="285" y="579"/>
			<point x="351" y="625" type="curve" smooth="yes"/>
			<point x="395" y="656"/>
			<point x="426" y="685"/>
			<point x="426" y="721" type="curve" smooth="yes"/>
			<point x="426" y="760"/>
			<point x="395" y="784"/>
			<point x="365" y="784" type="curve" smooth="yes"/>
			<point x="326" y="784"/>
			<point x="306" y="762"/>
			<point x="276" y="712" type="curve" smooth="yes"/>
			<point x="229" y="634"/>
			<point x="215" y="611"/>
		</contour>
		<component base="e"/>
	</outline>
</glyph>
<glyph name="ecircumflex" format="2">
	<unicode hex="00EA"/>
	<advance width="526"/>
	<outline>
		<contour>
			<point x="409" y="544" type="line"/>
			<point x="449" y="582" type="line"/>
			<point x="319" y="757" type="line"/>
			<point x="243" y="757" type="line"/>
			<point x="113" y="582" type="line"/>
			<point x="153" y="544" type="line"/>
			<point x="331" y="679" type="line"/>
			<point x="231" y="679" type="line"/>
		</contour>
		<component base="e"/>
	</outline>
</glyph>
<glyph name="edieresis" format="2">
	<unicode hex="00EB"/>
	<advance width="526"/>
	<outline>
		<contour>
			<point x="165" y="567" type="curve" smooth="yes"/>
			<point x="210" y="567"/>
			<point x="249" y="595"/>
			<point x="249" y="646" type="curve" smooth="yes"/>
			<point x="249" y="696"/>
			<point x="210" y="725"/>
			<point x="165" y="725" type="curve" smooth="yes"/>
			<point x="122" y="725"/>
			<point x="81" y="696"/>
			<point x="81" y="646" type="curve" smooth="yes"/>
			<point x="81" y="595"/>
			<point x="122" y="567"/>
		</contour>
		<contour>
			<point x="397" y="567" type="curve" smooth="yes"/>
			<point x="442" y="567"/>
			<point x="481" y="595"/>
			<point x="481" y="646" type="curve" smooth="yes"/>
			<point x="481" y="696"/>
			<point x="442" y="725"/>
			<point x="397" y="725" type="curve" smooth="yes"/>
			<point x="354" y="725"/>
			<point x="313" y="696"/>
			<point x="313" y="646" type="curve" smooth="yes"/>
			<point x="313" y="595"/>
			<point x="354" y="567"/>
		</contour>
		<component base="e"/>
	</outline>
</glyph>
<glyph name="icircumflex" format="2">
	<unicode hex="00EE"/>
	<advance width="324"/>
	<outline>
		<contour>
			<point x="294" y="544" type="line"/>
			<point x="334" y="582" type="line"/>
			<point x="204" y="757" type="line"/>
			<point x="128" y="757" type="line"/>
			<point x="-2" y="582" type="line"/>
			<point x="38" y="544" type="line"/>
			<point x="216" y="679" type="line"/>
			<point x="116" y="679" type="line"/>
		</contour>
		<component base="dotlessi"/>
	</outline>
</glyph>
<glyph name="idieresis" format="2">
	<unicode hex="00EF"/>
	<advance width="324"/>
	<outline>
		<contour>
			<point x="70" y="567" type="curve" smooth="yes"/>
			<point x="110" y="567"/>
			<point x="144" y="595"/>
			<point x="144" y="646" type="curve" smooth="yes"/>
			<point x="144" y="696"/>
			<point x="110" y="725"/>
			<point x="70" y="725" type="curve" smooth="yes"/>
			<point x="32" y="725"/>
			<point x="-4" y="696"/>
			<point x="-4" y="646" type="curve" smooth="yes"/>
			<point x="-4" y="595"/>
			<point x="32" y="567"/>
		</contour>
		<contour>
			<point x="262" y="567" type="curve" smooth="yes"/>
			<point x="302" y="567"/>
			<point x="336" y="595"/>
			<point x="336" y="646" type="curve" smooth="yes"/>
			<point x="336" y="696"/>
			<point x="302" y="725"/>
			<point x="262" y="725" type="curve" smooth="yes"/>
			<point x="224" y="725"/>
			<point x="188" y="696"/>
			<point x="188" y="646" type="curve" smooth="yes"/>
			<point x="188" y="595"/>
			<point x="224" y="567"/>
		</contour>
		<component base="dotlessi"/>
	</outline>
</glyph>
<glyph name="ntilde" format="2">
	<unicode hex="00F1"/>
	<advance width="620"/>
	<outline>
		<contour>
			<point x="155" y="583" type="curve"/>
			<point x="204" y="569" type="line"/>
			<point x="216" y="600"/>
			<point x="234" y="619"/>
			<point x="259" y="619" type="curve" smooth="yes"/>
			<point x="282" y="619"/>
			<point x="301" y="604"/>
			<point x="319" y="594" type="curve" smooth="yes"/>
			<point x="342" y="582"/>
			<point x="370" y="570"/>
			<point x="397" y="570" type="curve" smooth="yes"/>
			<point x="449" y="570"/>
			<point x="494" y="614"/>
			<point x="505" y="720" type="curve"/>
			<point x="456" y="734" type="line"/>
			<point x="444" y="702"/>
			<point x="425" y="683"/>
			<point x="400" y="683" type="curve" smooth="yes"/>
			<point x="378" y="683"/>
			<point x="361" y="696"/>
			<point x="340" y="708" type="curve" smooth="yes"/>
			<point x="320" y="720"/>
			<point x="295" y="732"/>
			<point x="266" y="732" type="curve" smooth="yes"/>
			<point x="211" y="732"/>
			<point x="166" y="690"/>
		</contour>
		<component base="n"/>
	</outline>
</glyph>
<glyph name="ograve" format="2">
	<unicode hex="00F2"/>
	<advance width="572"/>
	<outline>
		<contour>
			<point x="355" y="587" type="line"/>
			<point x="342" y="612"/>
			<point x="327" y="636"/>
			<point x="280" y="713" type="curve" smooth="yes"/>
			<point x="250" y="762"/>
			<point x="231" y="784"/>
			<point x="192" y="784" type="curve" smooth="yes"/>
			<point x="162" y="784"/>
			<point x="131" y="760"/>
			<point x="131" y="721" type="curve" smooth="yes"/>
			<point x="131" y="685"/>
			<point x="162" y="657"/>
			<point x="206" y="626" type="curve" smooth="yes"/>
			<point x="272" y="579"/>
			<point x="292" y="565"/>
			<point x="312" y="552" type="curve"/>
		</contour>
		<component base="o"/>
	</outline>
</glyph>
<glyph name="divide" format="2">
	<unicode hex="00F7"/>
	<advance width="550"/>
	<outline>
		<contour>
			<point x="275" y="65" type="curve" smooth="yes"/>
			<point x="318" y="65"/>
			<point x="351" y="96"/>
			<point x="351" y="137" type="curve" smooth="yes"/>
			<point x="351" y="177"/>
			<point x="318" y="210"/>
			<point x="275" y="210" type="curve" smooth="yes"/>
			<point x="232" y="210"/>
			<point x="199" y="177"/>
			<point x="199" y="137" type="curve" smooth="yes"/>
			<point x="199" y="96"/>
			<point x="232" y="65"/>
		</contour>
		<contour>
			<point x="275" y="430" type="curve" smooth="yes"/>
			<point x="318" y="430"/>
			<point x="351" y="462"/>
			<point x="351" y="503" type="curve" smooth="yes"/>
			<point x="351" y="543"/>
			<point x="318" y="575"/>
			<point x="275" y="575" type="curve" smooth="yes"/>
			<point x="232" y="575"/>
			<point x="199" y="543"/>
			<point x="199" y="503" type="curve" smooth="yes"/>
			<point x="199" y="462"/>
			<point x="232" y="430"/>
		</contour>
		<component base="minus"/>
	</outline>
</glyph>
<glyph name="oslash" format="2">
	<unicode hex="00F8"/>
	<advance width="572"/>
	<outline>
		<contour>
			<point x="521" y="484" type="line"/>
			<point x="469" y="527" type="line"/>
			<point x="53" y="2" type="line"/>
			<point x="106" y="-40" type="line"/>
		</contour>
		<contour>
			<point x="286" y="-16" type="curve" smooth="yes"/>
			<point x="457" y="-16"/>
			<point x="550" y="95"/>
			<point x="550" y="247" type="curve" smooth="yes"/>
			<point x="550" y="399"/>
			<point x="440" y="503"/>
			<point x="286" y="503" type="curve" smooth="yes"/>
			<point x="132" y="503"/>
			<point x="22" y="396"/>
			<point x="22" y="247" type="curve" smooth="yes"/>
			<point x="22" y="98"/>
			<point x="114" y="-16"/>
		</contour>
		<contour>
			<point x="286" y="39" type="curve" smooth="yes"/>
			<point x="235" y="39"/>
			<point x="212" y="98"/>
			<point x="212" y="244" type="curve" smooth="yes"/>
			<point x="212" y="389"/>
			<point x="235" y="448"/>
			<point x="286" y="448" type="curve" smooth="yes"/>
			<point x="337" y="448"/>
			<point x="360" y="389"/>
			<point x="360" y="244" type="curve" smooth="yes"/>
			<point x="360" y="98"/>
			<point x="337" y="39"/>
		</contour>
	</outline>
	<anchor name="aboveLC" x="286" y="507"/>
</glyph>
<glyph name="ugrave" format="2">
	<unicode hex="00F9"/>
	<advance width="617"/>
	<outline>
		<contour>
			<point x="382" y="587" type="line"/>
			<point x="369" y="612"/>
			<point x="354" y="636"/>
			<point x="307" y="713" type="curve" smooth="yes"/>
			<point x="277" y="762"/>
			<point x="258" y="784"/>
			<point x="219" y="784" type="curve" smooth="yes"/>
			<point x="189" y="784"/>
			<point x="158" y="760"/>
			<point x="158" y="721" type="curve" smooth="yes"/>
			<point x="158" y="685"/>
			<point x="189" y="657"/>
			<point x="233" y="626" type="curve" smooth="yes"/>
			<point x="299" y="579"/>
			<point x="319" y="565"/>
			<point x="339" y="552" type="curve"/>
		</contour>
		<component base="u"/>
	</outline>
</glyph>
<glyph name="uacute" format="2">
	<unicode hex="00FA"/>
	<advance width="617"/>
	<outline>
		<contour>
			<point x="234" y="587" type="curve"/>
			<point x="277" y="552" type="line"/>
			<point x="297" y="565"/>
			<point x="317" y="579"/>
			<point x="383" y="625" type="curve" smooth="yes"/>
			<point x="427" y="656"/>
			<point x="458" y="685"/>
			<point x="458" y="721" type="curve" smooth="yes"/>
			<point x="458" y="760"/>
			<point x="427" y="784"/>
			<point x="397" y="784" type="curve" smooth="yes"/>
			<point x="358" y="784"/>
			<point x="338" y="762"/>
			<point x="308" y="712" type="curve" smooth="yes"/>
			<point x="261" y="634"/>
			<point x="247" y="611"/>
		</contour>
		<component base="u"/>
	</outline>
</glyph>
<glyph name="ucircumflex" format="2">
	<unicode hex="00FB"/>
	<advance width="617"/>
	<outline>
		<contour>
			<point x="441" y="544" type="line"/>
			<point x="481" y="582" type="line"/>
			<point x="351" y="757" type="line"/>
			<point x="275" y="757" type="line"/>
			<point x="145" y="582" type="line"/>
			<point x="185" y="544" type="line"/>
			<point x="363" y="679" type="line"/>
			<point x="263" y="679" type="line"/>
		</contour>
		<component base="u"/>
	</outline>
</glyph>
<glyph name="udieresis" format="2">
	<unicode hex="00FC"/>
	<advance width="617"/>
	<outline>
		<contour>
			<point x="197" y="567" type="curve" smooth="yes"/>
			<point x="242" y="567"/>
			<point x="281" y="595"/>
			<point x="281" y="646" type="curve" smooth="yes"/>
			<point x="281" y="696"/>
			<point x="242" y="725"/>
			<point x="197" y="725" type="curve" smooth="yes"/>
			<point x="154" y="725"/>
			<point x="113" y="696"/>
			<point x="113" y="646" type="curve" smooth="yes"/>
			<point x="113" y="595"/>
			<point x="154" y="567"/>
		</contour>
		<contour>
			<point x="429" y="567" type="curve" smooth="yes"/>
			<point x="474" y="567"/>
			<point x="513" y="595"/>
			<point x="513" y="646" type="curve" smooth="yes"/>
			<point x="513" y="696"/>
			<point x="474" y="725"/>
			<point x="429" y="725" type="curve" smooth="yes"/>
			<point x="386" y="725"/>
			<point x="345" y="696"/>
			<point x="345" y="646" type="curve" smooth="yes"/>
			<point x="345" y="595"/>
			<point x="386" y="567"/>
		</contour>
		<component base="u"/>
	</outline>
</glyph>
<glyph name="thorn" format="2">
	<unicode hex="00FE"/>
	<advance width="623"/>
	<outline>
		<contour>
			<point x="71" y="-222" type="curve"/>
			<point x="264" y="-222" type="line"/>
			<point x="262" y="-126"/>
			<point x="261" y="-53"/>
			<point x="261" y="8" type="curve" smooth="yes"/>
			<point x="261" y="69" type="line"/>
			<point x="264" y="84" type="line"/>
			<point x="264" y="422" type="line"/>
			<point x="261" y="435" type="line"/>
			<point x="261" y="571" type="line"/>
			<point x="265" y="710" type="line"/>
			<point x="248" y="721" type="line"/>
			<point x="20" y="676" type="line"/>
			<point x="20" y="631" type="line"/>
			<point x="74" y="624" type="line"/>
			<point x="74" y="8" type="line" smooth="yes"/>
			<point x="74" y="-53"/>
			<point x="73" y="-126"/>
		</contour>
		<contour>
			<point x="384" y="-16" type="curve" smooth="yes"/>
			<point x="495" y="-16"/>
			<point x="601" y="82"/>
			<point x="601" y="246" type="curve" smooth="yes"/>
			<point x="601" y="417"/>
			<point x="514" y="503"/>
			<point x="403" y="503" type="curve" smooth="yes"/>
			<point x="307" y="503"/>
			<point x="240" y="446"/>
			<point x="183" y="331" type="curve"/>
			<point x="181" y="331" type="line"/>
			<point x="192" y="315" type="line"/>
			<point x="209" y="334"/>
			<point x="252" y="404"/>
			<point x="311" y="404" type="curve" smooth="yes"/>
			<point x="364" y="404"/>
			<point x="399" y="360"/>
			<point x="399" y="246" type="curve" smooth="yes"/>
			<point x="399" y="132"/>
			<point x="364" y="80"/>
			<point x="311" y="80" type="curve" smooth="yes"/>
			<point x="261" y="80"/>
			<point x="239" y="116"/>
			<point x="202" y="167" type="curve"/>
			<point x="191" y="147" type="line"/>
			<point x="193" y="147" type="line"/>
			<point x="234" y="44"/>
			<point x="283" y="-16"/>
		</contour>
		<contour>
			<point x="27" y="-222" type="line"/>
			<point x="316" y="-222" type="line"/>
			<point x="316" y="-170" type="line"/>
			<point x="243" y="-150" type="line"/>
			<point x="116" y="-150" type="line"/>
			<point x="27" y="-170" type="line"/>
		</contour>
	</outline>
	<anchor name="aboveLC" x="168" y="721"/>
	<anchor name="belowLC" x="453" y="-20"/>
</glyph>
<glyph name="ydieresis" format="2">
	<unicode hex="00FF"/>
	<advance width="543"/>
	<outline>
		<contour>
			<point x="199" y="567" type="curve" smooth="yes"/>
			<point x="244" y="567"/>
			<point x="283" y="595"/>
			<point x="283" y="646" type="curve" smooth="yes"/>
			<point x="283" y="696"/>
			<point x="244" y="725"/>
			<point x="199" y="725" type="curve" smooth="yes"/>
			<point x="156" y="725"/>
			<point x="115" y="696"/>
			<point x="115" y="646" type="curve" smooth="yes"/>
			<point x="115" y="595"/>
			<point x="156" y="567"/>
		</contour>
		<contour>
			<point x="431" y="567" type="curve" smooth="yes"/>
			<point x="476" y="567"/>
			<point x="515" y="595"/>
			<point x="515" y="646" type="curve" smooth="yes"/>
			<point x="515" y="696"/>
			<point x="476" y="725"/>
			<point x="431" y="725" type="curve" smooth="yes"/>
			<point x="388" y="725"/>
			<point x="347" y="696"/>
			<point x="347" y="646" type="curve" smooth="yes"/>
			<point x="347" y="595"/>
			<point x="388" y="567"/>
		</contour>
		<component base="y"/>
	</outline>
</glyph>
<glyph name="aogonek" format="2">
	<unicode hex="0105"/>
	<advance width="540"/>
	<outline>
		<contour>
			<point x="155" y="-16" type="curve" smooth="yes"/>
			<point x="232" y="-16"/>
			<point x="262" y="16"/>
			<point x="306" y="64" type="curve"/>
			<point x="353" y="64" type="line"/>
			<point x="344" y="116" type="line"/>
			<point x="301" y="83"/>
			<point x="278" y="71"/>
			<point x="250" y="71" type="curve" smooth="yes"/>
			<point x="220" y="71"/>
			<point x="197" y="93"/>
			<point x="197" y="137" type="curve" smooth="yes"/>
			<point x="197" y="195"/>
			<point x="227" y="234"/>
			<point x="276" y="249" type="curve" smooth="yes"/>
			<point x="305" y="258"/>
			<point x="348" y="272"/>
			<point x="391" y="285" type="curve"/>
			<point x="391" y="327" type="line"/>
			<point x="337" y="313"/>
			<point x="284" y="299"/>
			<point x="230" y="285" type="curve" smooth="yes"/>
			<point x="68" y="242"/>
			<point x="25" y="190"/>
			<point x="25" y="113" type="curve" smooth="yes"/>
			<point x="25" y="31"/>
			<point x="76" y="-16"/>
		</contour>
		<contour>
			<point x="417" y="-227" type="curve" smooth="yes"/>
			<point x="459" y="-227"/>
			<point x="508" y="-209"/>
			<point x="540" y="-179" type="curve"/>
			<point x="525" y="-124" type="line"/>
			<point x="512" y="-131"/>
			<point x="499" y="-134"/>
			<point x="480" y="-134" type="curve" smooth="yes"/>
			<point x="447" y="-134"/>
			<point x="428" y="-118"/>
			<point x="428" y="-82" type="curve" smooth="yes"/>
			<point x="428" y="-44"/>
			<point x="450" y="-27"/>
			<point x="492" y="0" type="curve" smooth="yes"/>
			<point x="517" y="16"/>
			<point x="535" y="36"/>
			<point x="548" y="69" type="curve"/>
			<point x="519" y="85" type="line"/>
			<point x="507" y="67"/>
			<point x="500" y="63"/>
			<point x="492" y="63" type="curve" smooth="yes"/>
			<point x="481" y="63"/>
			<point x="475" y="70"/>
			<point x="475" y="80" type="curve" smooth="yes"/>
			<point x="475" y="308" type="line" smooth="yes"/>
			<point x="475" y="445"/>
			<point x="424" y="503"/>
			<point x="286" y="503" type="curve" smooth="yes"/>
			<point x="125" y="503"/>
			<point x="42" y="442"/>
			<point x="42" y="356" type="curve"/>
			<point x="52" y="320"/>
			<point x="79" y="302"/>
			<point x="118" y="302" type="curve" smooth="yes"/>
			<point x="161" y="302"/>
			<point x="200" y="334"/>
			<point x="200" y="415" type="curve" smooth="yes"/>
			<point x="200" y="478" type="line"/>
			<point x="120" y="436" type="line"/>
			<point x="166" y="446"/>
			<point x="190" y="449"/>
			<point x="215" y="449" type="curve" smooth="yes"/>
			<point x="278" y="449"/>
			<point x="291" y="421"/>
			<point x="291" y="336" type="curve" smooth="yes"/>
			<point x="291" y="76" type="line"/>
			<point x="291" y="75" type="line"/>
			<point x="305" y="18"/>
			<point x="343" y="-16"/>
			<point x="414" y="-16" type="curve" smooth="yes"/>
			<point x="417" y="-16"/>
			<point x="419" y="-16"/>
			<point x="422" y="-16" type="curve"/>
			<point x="417" y="-12" type="line"/>
			<point x="348" y="-40"/>
			<point x="308" y="-75"/>
			<point x="308" y="-132" type="curve" smooth="yes"/>
			<point x="308" y="-184"/>
			<point x="342" y="-227"/>
		</contour>
	</outline>
	<anchor name="aboveLC" x="264" y="507"/>
</glyph>
<glyph name="eogonek" format="2">
	<unicode hex="0119"/>
	<advance width="526"/>
	<outline>
		<contour>
			<point x="339" y="-227" type="curve" smooth="yes"/>
			<point x="381" y="-227"/>
			<point x="430" y="-209"/>
			<point x="462" y="-179" type="curve"/>
			<point x="447" y="-124" type="line"/>
			<point x="434" y="-131"/>
			<point x="421" y="-134"/>
			<point x="402" y="-134" type="curve" smooth="yes"/>
			<point x="369" y="-134"/>
			<point x="350" y="-116"/>
			<point x="350" y="-77" type="curve" smooth="yes"/>
			<point x="350" y="-38"/>
			<point x="364" y="-20"/>
			<point x="404" y="6" type="curve" smooth="yes"/>
			<point x="444" y="32"/>
			<point x="479" y="60"/>
			<point x="505" y="107" type="curve"/>
			<point x="465" y="139" type="line"/>
			<point x="438" y="108"/>
			<point x="405" y="92"/>
			<point x="358" y="92" type="curve" smooth="yes"/>
			<point x="289" y="92"/>
			<point x="222" y="142"/>
			<point x="222" y="262" type="curve" smooth="yes"/>
			<point x="222" y="407"/>
			<point x="246" y="449"/>
			<point x="279" y="449" type="curve" smooth="yes"/>
			<point x="305" y="449"/>
			<point x="330" y="424"/>
			<point x="330" y="355" type="curve" smooth="yes"/>
			<point x="330" y="304"/>
			<point x="317" y="288"/>
			<point x="269" y="288" type="curve" smooth="yes"/>
			<point x="101" y="288" type="line"/>
			<point x="101" y="231" type="line"/>
			<point x="501" y="231" type="line"/>
			<point x="505" y="249"/>
			<point x="506" y="263"/>
			<point x="506" y="284" type="curve" smooth="yes"/>
			<point x="506" y="405"/>
			<point x="426" y="503"/>
			<point x="280" y="503" type="curve" smooth="yes"/>
			<point x="132" y="503"/>
			<point x="22" y="408"/>
			<point x="22" y="238" type="curve" smooth="yes"/>
			<point x="22" y="72"/>
			<point x="134" y="-16"/>
			<point x="288" y="-16" type="curve" smooth="yes"/>
			<point x="296" y="-16"/>
			<point x="310" y="-15"/>
			<point x="323" y="-14" type="curve"/>
			<point x="321" y="-7" type="line"/>
			<point x="263" y="-34"/>
			<point x="230" y="-71"/>
			<point x="230" y="-127" type="curve" smooth="yes"/>
			<point x="230" y="-182"/>
			<point x="264" y="-227"/>
		</contour>
	</outline>
	<anchor name="aboveLC" x="281" y="507"/>
</glyph>
<glyph name="Lslash" format="2">
	<unicode hex="0141"/>
	<advance width="574"/>
	<outline>
		<contour>
			<point x="404" y="469" type="line"/>
			<point x="228" y="379" type="line"/>
			<point x="228" y="295" type="line"/>
			<point x="404" y="385" type="line"/>
		</contour>
		<contour>
			<point x="188" y="364" type="line"/>
			<point x="26" y="281" type="line"/>
			<point x="26" y="197" type="line"/>
			<point x="188" y="280" type="line"/>
		</contour>
		<component base="L"/>
	</outline>
</glyph>
<glyph name="Eng" format="2">
	<unicode hex="014A"/>
	<advance width="725"/>
	<outline>
		<contour>
			<point x="24" y="0" type="line"/>
			<point x="297" y="0" type="line"/>
			<point x="297" y="59" type="line"/>
			<point x="163" y="74" type="line"/>
			<point x="131" y="74" type="line"/>
			<point x="24" y="59" type="line"/>
		</contour>
		<contour>
			<point x="109" y="0" type="line"/>
			<point x="179" y="0" type="line"/>
			<point x="179" y="326" type="line"/>
			<point x="179" y="624" type="line"/>
			<point x="109" y="624" type="line"/>
		</contour>
		<contour>
			<point x="384" y="-152" type="curve" smooth="yes"/>
			<point x="440" y="-152"/>
			<point x="494" y="-132"/>
			<point x="550" y="-63" type="curve" smooth="yes"/>
			<point x="594" y="-9"/>
			<point x="616" y="53"/>
			<point x="616" y="185" type="curve" smooth="yes"/>
			<point x="616" y="652" type="line"/>
			<point x="546" y="652" type="line"/>
			<point x="546" y="326" type="line"/>
			<point x="547" y="187" type="line"/>
			<point x="547" y="29"/>
			<point x="517" y="-56"/>
			<point x="440" y="-95" type="curve"/>
			<point x="440" y="-106" type="line"/>
			<point x="467" y="-106" type="line"/>
			<point x="467" y="-94" type="line"/>
			<point x="412" y="-51" type="line" smooth="yes"/>
			<point x="377" y="-23"/>
			<point x="362" y="-13"/>
			<point x="326" y="-13" type="curve" smooth="yes"/>
			<point x="290" y="-13"/>
			<point x="262" y="-29"/>
			<point x="252" y="-78" type="curve"/>
			<point x="259" y="-129"/>
			<point x="302" y="-152"/>
		</contour>
		<contour>
			<point x="511" y="0" type="line"/>
			<point x="586" y="0" type="line"/>
			<point x="586" y="235" type="line"/>
			<point x="583" y="235" type="line"/>
			<point x="289" y="652" type="line"/>
			<point x="34" y="652" type="line"/>
			<point x="34" y="592" type="line"/>
			<point x="100" y="587" type="line"/>
			<point x="161" y="498" type="line"/>
			<point x="164" y="498" type="line"/>
		</contour>
		<contour>
			<point x="568" y="578" type="line"/>
			<point x="599" y="578" type="line"/>
			<point x="701" y="593" type="line"/>
			<point x="701" y="652" type="line"/>
			<point x="428" y="652" type="line"/>
			<point x="428" y="593" type="line"/>
		</contour>
	</outline>
</glyph>
<glyph name="OE" format="2">
	<unicode hex="0152"/>
	<advance width="927"/>
	<outline>
		<contour>
			<point x="233" y="326" type="curve" smooth="yes"/>
			<point x="233" y="504"/>
			<point x="299" y="612"/>
			<point x="410" y="612" type="curve" smooth="yes"/>
			<point x="454" y="612"/>
			<point x="497" y="603"/>
			<point x="536" y="582" type="curve"/>
			<point x="536" y="652" type="line"/>
			<point x="499" y="665"/>
			<point x="448" y="672"/>
			<point x="395" y="672" type="curve" smooth="yes"/>
			<point x="194" y="672"/>
			<point x="28" y="568"/>
			<point x="28" y="326" type="curve" smooth="yes"/>
			<point x="28" y="84"/>
			<point x="194" y="-20"/>
			<point x="395" y="-20" type="curve" smooth="yes"/>
			<point x="452" y="-20"/>
			<point x="503" y="-11"/>
			<point x="536" y="0" type="curve"/>
			<point x="536" y="70" type="line"/>
			<point x="497" y="49"/>
			<point x="454" y="40"/>
			<point x="410" y="40" type="curve" smooth="yes"/>
			<point x="299" y="40"/>
			<point x="233" y="148"/>
		</contour>
		<contour>
			<point x="431" y="0" type="curve"/>
			<point x="635" y="0" type="line"/>
			<point x="632" y="103"/>
			<point x="632" y="207"/>
			<point x="632" y="311" type="curve" smooth="yes"/>
			<point x="632" y="342" type="line" smooth="yes"/>
			<point x="632" y="447"/>
			<point x="632" y="551"/>
			<point x="635" y="652" type="curve"/>
			<point x="431" y="652" type="line"/>
			<point x="434" y="549"/>
			<point x="434" y="445"/>
			<point x="434" y="342" type="curve" smooth="yes"/>
			<point x="434" y="310" type="line" smooth="yes"/>
			<point x="434" y="205"/>
			<point x="434" y="101"/>
		</contour>
		<contour>
			<point x="736" y="235" type="line"/>
			<point x="799" y="235" type="line"/>
			<point x="799" y="442" type="line"/>
			<point x="736" y="442" type="line"/>
			<point x="721" y="350" type="line"/>
			<point x="721" y="332" type="line"/>
		</contour>
		<contour>
			<point x="536" y="306" type="line"/>
			<point x="751" y="306" type="line"/>
			<point x="751" y="370" type="line"/>
			<point x="536" y="370" type="line"/>
		</contour>
		<contour>
			<point x="793" y="482" type="line"/>
			<point x="887" y="482" type="line"/>
			<point x="880" y="652" type="line"/>
			<point x="536" y="652" type="line"/>
			<point x="536" y="593" type="line"/>
			<point x="774" y="593" type="line"/>
		</contour>
		<contour>
			<point x="813" y="170" type="line"/>
			<point x="794" y="58" type="line"/>
			<point x="536" y="58" type="line"/>
			<point x="536" y="0" type="line"/>
			<point x="900" y="0" type="line"/>
			<point x="907" y="170" type="line"/>
		</contour>
	</outline>
	<anchor name="aboveUC" x="537" y="672"/>
</glyph>
<glyph name="oe" format="2">
	<unicode hex="0153"/>
	<advance width="854"/>
	<outline>
		<contour>
			<point x="286" y="-16" type="curve" smooth="yes"/>
			<point x="393" y="-16"/>
			<point x="450" y="37"/>
			<point x="492" y="117" type="curve"/>
			<point x="399" y="117" type="line"/>
			<point x="439" y="31"/>
			<point x="516" y="-16"/>
			<point x="616" y="-16" type="curve" smooth="yes"/>
			<point x="722" y="-16"/>
			<point x="788" y="24"/>
			<point x="833" y="107" type="curve"/>
			<point x="793" y="139" type="line"/>
			<point x="766" y="108"/>
			<point x="733" y="92"/>
			<point x="686" y="92" type="curve" smooth="yes"/>
			<point x="617" y="92"/>
			<point x="550" y="142"/>
			<point x="550" y="262" type="curve" smooth="yes"/>
			<point x="550" y="407"/>
			<point x="574" y="449"/>
			<point x="607" y="449" type="curve" smooth="yes"/>
			<point x="633" y="449"/>
			<point x="658" y="424"/>
			<point x="658" y="355" type="curve" smooth="yes"/>
			<point x="658" y="304"/>
			<point x="645" y="288"/>
			<point x="597" y="288" type="curve" smooth="yes"/>
			<point x="429" y="288" type="line"/>
			<point x="429" y="231" type="line"/>
			<point x="829" y="231" type="line"/>
			<point x="833" y="249"/>
			<point x="834" y="263"/>
			<point x="834" y="284" type="curve" smooth="yes"/>
			<point x="834" y="405"/>
			<point x="754" y="503"/>
			<point x="617" y="503" type="curve" smooth="yes"/>
			<point x="530" y="503"/>
			<point x="463" y="460"/>
			<point x="420" y="385" type="curve"/>
			<point x="494" y="384" type="line"/>
			<point x="454" y="456"/>
			<point x="378" y="503"/>
			<point x="286" y="503" type="curve" smooth="yes"/>
			<point x="132" y="503"/>
			<point x="22" y="396"/>
			<point x="22" y="247" type="curve" smooth="yes"/>
			<point x="22" y="98"/>
			<point x="114" y="-16"/>
		</contour>
		<contour>
			<point x="286" y="39" type="curve" smooth="yes"/>
			<point x="242" y="39"/>
			<point x="222" y="98"/>
			<point x="222" y="244" type="curve" smooth="yes"/>
			<point x="222" y="389"/>
			<point x="242" y="448"/>
			<point x="286" y="448" type="curve" smooth="yes"/>
			<point x="330" y="448"/>
			<point x="350" y="389"/>
			<point x="350" y="244" type="curve" smooth="yes"/>
			<point x="350" y="98"/>
			<point x="330" y="39"/>
		</contour>
	</outline>
	<anchor name="aboveLC" x="447" y="507"/>
</glyph>
<glyph name="Scaron" format="2">
	<unicode hex="0160"/>
	<advance width="553"/>
	<outline>
		<contour>
			<point x="150" y="892" type="line"/>
			<point x="113" y="855" type="line"/>
			<point x="252" y="696" type="line"/>
			<point x="342" y="696" type="line"/>
			<point x="482" y="855" type="line"/>
			<point x="444" y="892" type="line"/>
			<point x="253" y="773" type="line"/>
			<point x="341" y="773" type="line"/>
		</contour>
		<component base="S"/>
	</outline>
</glyph>
<glyph name="Tbar" format="2">
	<unicode hex="0166"/>
	<advance width="646"/>
	<outline>
		<contour>
			<point x="65" y="277" type="line"/>
			<point x="581" y="277" type="line"/>
			<point x="581" y="340" type="line"/>
			<point x="65" y="340" type="line"/>
		</contour>
		<component base="T"/>
	</outline>
</glyph>
<glyph name="tbar" format="2">
	<unicode hex="0167"/>
	<advance width="372"/>
	<outline>
		<contour>
			<point x="12" y="248" type="line"/>
			<point x="351" y="248" type="line"/>
			<point x="351" y="311" type="line"/>
			<point x="12" y="311" type="line"/>
		</contour>
		<component base="t"/>
	</outline>
</glyph>
<glyph name="uogonek" format="2">
	<unicode hex="0173"/>
	<advance width="617"/>
	<outline>
		<contour>
			<point x="470" y="-227" type="curve" smooth="yes"/>
			<point x="512" y="-227"/>
			<point x="561" y="-209"/>
			<point x="593" y="-179" type="curve"/>
			<point x="578" y="-124" type="line"/>
			<point x="565" y="-131"/>
			<point x="552" y="-134"/>
			<point x="533" y="-134" type="curve" smooth="yes"/>
			<point x="500" y="-134"/>
			<point x="481" y="-116"/>
			<point x="481" y="-77" type="curve" smooth="yes"/>
			<point x="481" y="-38"/>
			<point x="493" y="-13"/>
			<point x="532" y="8" type="curve"/>
			<point x="486" y="8" type="line"/>
			<point x="486" y="7" type="line"/>
			<point x="407" y="-20"/>
			<point x="361" y="-63"/>
			<point x="361" y="-127" type="curve" smooth="yes"/>
			<point x="361" y="-182"/>
			<point x="395" y="-227"/>
		</contour>
		<component base="u"/>
	</outline>
	<anchor name="aboveLC" x="313" y="507"/>
</glyph>
<glyph name="Zcaron" format="2">
	<unicode hex="017D"/>
	<advance width="568"/>
	<outline>
		<contour>
			<point x="142" y="892" type="line"/>
			<point x="105" y="855" type="line"/>
			<point x="244" y="696" type="line"/>
			<point x="334" y="696" type="line"/>
			<point x="474" y="855" type="line"/>
			<point x="436" y="892" type="line"/>
			<point x="245" y="773" type="line"/>
			<point x="333" y="773" type="line"/>
		</contour>
		<component base="Z"/>
	</outline>
</glyph>
<glyph name="zcaron" format="2">
	<unicode hex="017E"/>
	<advance width="468"/>
	<outline>
		<contour>
			<point x="113" y="779" type="line"/>
			<point x="69" y="742" type="line"/>
			<point x="195" y="563" type="line"/>
			<point x="285" y="563" type="line"/>
			<point x="411" y="742" type="line"/>
			<point x="367" y="779" type="line"/>
			<point x="196" y="640" type="line"/>
			<point x="284" y="640" type="line"/>
		</contour>
		<component base="z"/>
	</outline>
</glyph>
<glyph name="dotlessj" format="2">
	<unicode hex="0237"/>
	<advance width="320"/>
	<outline>
		<contour>
			<point x="17" y="-232" type="curve" smooth="yes"/>
			<point x="65" y="-232"/>
			<point x="135" y="-218"/>
			<point x="193" y="-160" type="curve" smooth="yes"/>
			<point x="240" y="-113"/>
			<point x="260" y="-67"/>
			<point x="260" y="35" type="curve" smooth="yes"/>
			<point x="260" y="343" type="line"/>
			<point x="263" y="492" type="line"/>
			<point x="245" y="503" type="line"/>
			<point x="13" y="434" type="line"/>
			<point x="13" y="393" type="line"/>
			<point x="67" y="384" type="line"/>
			<point x="69" y="344"/>
			<point x="70" y="313"/>
			<point x="70" y="258" type="curve" smooth="yes"/>
			<point x="70" y="105" type="line" smooth="yes"/>
			<point x="70" y="10"/>
			<point x="83" y="-89"/>
			<point x="75" y="-140" type="curve" smooth="yes"/>
			<point x="72" y="-162"/>
			<point x="69" y="-169"/>
			<point x="63" y="-185" type="curve"/>
			<point x="63" y="-213" type="line"/>
			<point x="83" y="-213" type="line"/>
			<point x="83" y="-208" type="line"/>
			<point x="59" y="-142" type="line" smooth="yes"/>
			<point x="42" y="-95"/>
			<point x="19" y="-72"/>
			<point x="-20" y="-72" type="curve" smooth="yes"/>
			<point x="-66" y="-72"/>
			<point x="-96" y="-99"/>
			<point x="-105" y="-152" type="curve"/>
			<point x="-90" y="-205"/>
			<point x="-51" y="-232"/>
		</contour>
	</outline>
	<anchor name="aboveLC" x="157" y="507"/>
	<anchor name="belowLC" x="99" y="-232"/>
</glyph>
<glyph name="schwa" format="2">
	<unicode hex="0259"/>
	<advance width="531"/>
	<outline>
		<contour>
			<point x="265" y="-16" type="curve" smooth="yes"/>
			<point x="407" y="-16"/>
			<point x="511" y="76"/>
			<point x="511" y="232" type="curve" smooth="yes"/>
			<point x="511" y="403"/>
			<point x="424" y="503"/>
			<point x="255" y="503" type="curve" smooth="yes"/>
			<point x="168" y="503"/>
			<point x="87" y="467"/>
			<point x="44" y="386" type="curve"/>
			<point x="83" y="348" type="line"/>
			<point x="111" y="375"/>
			<point x="152" y="395"/>
			<point x="203" y="395" type="curve" smooth="yes"/>
			<point x="275" y="395"/>
			<point x="321" y="348"/>
			<point x="321" y="235" type="curve" smooth="yes"/>
			<point x="321" y="78"/>
			<point x="296" y="38"/>
			<point x="262" y="38" type="curve" smooth="yes"/>
			<point x="229" y="38"/>
			<point x="203" y="59"/>
			<point x="203" y="146" type="curve" smooth="yes"/>
			<point x="203" y="198"/>
			<point x="217" y="214"/>
			<point x="269" y="214" type="curve" smooth="yes"/>
			<point x="432" y="214" type="line"/>
			<point x="432" y="271" type="line"/>
			<point x="32" y="271" type="line"/>
			<point x="27" y="246"/>
			<point x="27" y="227"/>
			<point x="27" y="198" type="curve" smooth="yes"/>
			<point x="27" y="80"/>
			<point x="99" y="-16"/>
		</contour>
	</outline>
	<anchor name="aboveLC" x="261" y="507"/>
	<anchor name="belowLC" x="268" y="-20"/>
</glyph>
<glyph name="gscript" format="2">
	<unicode hex="0261"/>
	<advance width="592"/>
	<outline>
		<contour>
			<point x="248" y="-232" type="curve" smooth="yes"/>
			<point x="360" y="-232"/>
			<point x="430" y="-211"/>
			<point x="480" y="-161" type="curve" smooth="yes"/>
			<point x="537" y="-104"/>
			<point x="548" y="-46"/>
			<point x="545" y="83" type="curve" smooth="yes"/>
			<point x="545" y="358" type="line"/>
			<point x="548" y="493" type="line"/>
			<point x="513" y="503" type="line"/>
			<point x="357" y="437" type="line"/>
			<point x="355" y="437" type="line"/>
			<point x="355" y="86" type="line"/>
			<point x="360" y="73" type="line"/>
			<point x="361" y="51"/>
			<point x="362" y="30"/>
			<point x="362" y="11" type="curve" smooth="yes"/>
			<point x="362" y="-58"/>
			<point x="353" y="-109"/>
			<point x="324" y="-138" type="curve" smooth="yes"/>
			<point x="297" y="-165"/>
			<point x="267" y="-178"/>
			<point x="218" y="-178" type="curve" smooth="yes"/>
			<point x="202" y="-178"/>
			<point x="181" y="-175"/>
			<point x="161" y="-169" type="curve"/>
			<point x="222" y="-208" type="line"/>
			<point x="206" y="-145" type="line" smooth="yes"/>
			<point x="183" y="-55"/>
			<point x="164" y="-26"/>
			<point x="123" y="-26" type="curve" smooth="yes"/>
			<point x="84" y="-26"/>
			<point x="60" y="-43"/>
			<point x="44" y="-85" type="curve"/>
			<point x="46" y="-171"/>
			<point x="124" y="-232"/>
		</contour>
		<contour>
			<point x="220" y="0" type="curve" smooth="yes"/>
			<point x="292" y="0"/>
			<point x="347" y="30"/>
			<point x="394" y="100" type="curve"/>
			<point x="396" y="100" type="line"/>
			<point x="375" y="125" type="line"/>
			<point x="357" y="109"/>
			<point x="337" y="99"/>
			<point x="314" y="99" type="curve" smooth="yes"/>
			<point x="260" y="99"/>
			<point x="224" y="137"/>
			<point x="224" y="250" type="curve" smooth="yes"/>
			<point x="224" y="362"/>
			<point x="267" y="407"/>
			<point x="326" y="407" type="curve" smooth="yes"/>
			<point x="345" y="407"/>
			<point x="364" y="401"/>
			<point x="384" y="388" type="curve"/>
			<point x="411" y="416" type="line"/>
			<point x="409" y="416" type="line"/>
			<point x="367" y="476"/>
			<point x="321" y="503"/>
			<point x="261" y="503" type="curve" smooth="yes"/>
			<point x="136" y="503"/>
			<point x="31" y="405"/>
			<point x="31" y="235" type="curve" smooth="yes"/>
			<point x="31" y="77"/>
			<point x="115" y="0"/>
		</contour>
	</outline>
	<anchor name="aboveLC" x="331" y="507"/>
	<anchor name="belowLC" x="286" y="-242"/>
</glyph>
<glyph name="j.sups" format="2">
	<unicode hex="02B2"/>
	<advance width="200"/>
	<outline>
		<contour>
			<point x="10" y="259" type="curve" smooth="yes"/>
			<point x="42" y="259"/>
			<point x="87" y="267"/>
			<point x="121" y="301" type="curve" smooth="yes"/>
			<point x="156" y="336"/>
			<point x="165" y="373"/>
			<point x="165" y="449" type="curve" smooth="yes"/>
			<point x="165" y="733" type="line"/>
			<point x="154" y="740" type="line"/>
			<point x="12" y="697" type="line"/>
			<point x="12" y="672" type="line"/>
			<point x="54" y="666" type="line"/>
			<point x="54" y="463" type="line" smooth="yes"/>
			<point x="54" y="397"/>
			<point x="58" y="341"/>
			<point x="45" y="313" type="curve" smooth="yes"/>
			<point x="39" y="300"/>
			<point x="27" y="283"/>
			<point x="9" y="283" type="curve"/>
			<point x="9" y="269" type="line"/>
			<point x="64" y="269" type="line"/>
			<point x="64" y="278" type="line"/>
			<point x="40" y="313" type="line" smooth="yes"/>
			<point x="22" y="342"/>
			<point x="0" y="352"/>
			<point x="-27" y="352" type="curve" smooth="yes"/>
			<point x="-55" y="352"/>
			<point x="-77" y="333"/>
			<point x="-80" y="304" type="curve"/>
			<point x="-69" y="281"/>
			<point x="-42" y="259"/>
		</contour>
		<contour>
			<point x="109" y="791" type="curve" smooth="yes"/>
			<point x="142" y="791"/>
			<point x="169" y="814"/>
			<point x="169" y="844" type="curve" smooth="yes"/>
			<point x="169" y="875"/>
			<point x="142" y="897"/>
			<point x="109" y="897" type="curve" smooth="yes"/>
			<point x="77" y="897"/>
			<point x="48" y="875"/>
			<point x="48" y="844" type="curve" smooth="yes"/>
			<point x="48" y="814"/>
			<point x="77" y="791"/>
		</contour>
	</outline>
</glyph>
<glyph name="r.sups" format="2">
	<unicode hex="02B3"/>
	<advance width="315"/>
	<outline>
		<contour>
			<point x="216" y="673" type="curve"/>
			<point x="186" y="678" type="line"/>
			<point x="202" y="655" type="line" smooth="yes"/>
			<point x="216" y="637"/>
			<point x="232" y="627"/>
			<point x="256" y="627" type="curve" smooth="yes"/>
			<point x="293" y="627"/>
			<point x="311" y="653"/>
			<point x="311" y="688" type="curve"/>
			<point x="303" y="719"/>
			<point x="284" y="731"/>
			<point x="254" y="731" type="curve" smooth="yes"/>
			<point x="217" y="731"/>
			<point x="169" y="692"/>
			<point x="158" y="613" type="curve"/>
			<point x="166" y="630" type="line"/>
			<point x="115" y="630" type="line"/>
			<point x="115" y="590" type="line"/>
			<point x="166" y="586" type="line"/>
			<point x="174" y="626"/>
			<point x="193" y="656"/>
		</contour>
		<contour>
			<point x="157" y="449" type="line"/>
			<point x="82" y="449" type="line"/>
			<point x="18" y="436" type="line"/>
			<point x="18" y="406" type="line"/>
			<point x="220" y="406" type="line"/>
			<point x="220" y="436" type="line"/>
		</contour>
		<contour>
			<point x="166" y="406" type="line"/>
			<point x="166" y="644" type="line"/>
			<point x="160" y="724" type="line"/>
			<point x="149" y="731" type="line"/>
			<point x="13" y="688" type="line"/>
			<point x="13" y="663" type="line"/>
			<point x="55" y="657" type="line"/>
			<point x="55" y="406" type="line"/>
		</contour>
	</outline>
</glyph>
<glyph name="w.sups" format="2">
	<unicode hex="02B7"/>
	<advance width="533"/>
	<outline>
		<contour>
			<point x="132" y="413" type="line"/>
			<point x="184" y="413" type="line"/>
			<point x="266" y="636" type="line"/>
			<point x="276" y="664" type="line"/>
			<point x="245" y="646" type="line"/>
			<point x="336" y="413" type="line"/>
			<point x="388" y="413" type="line"/>
			<point x="504" y="728" type="line"/>
			<point x="456" y="728" type="line"/>
			<point x="387" y="518" type="line"/>
			<point x="383" y="505" type="line"/>
			<point x="401" y="499" type="line"/>
			<point x="326" y="728" type="line"/>
			<point x="258" y="728" type="line"/>
			<point x="186" y="515" type="line"/>
			<point x="182" y="505" type="line"/>
			<point x="198" y="499" type="line"/>
			<point x="127" y="728" type="line"/>
			<point x="14" y="728" type="line"/>
		</contour>
		<contour>
			<point x="-5" y="699" type="line"/>
			<point x="63" y="690" type="line"/>
			<point x="99" y="690" type="line"/>
			<point x="176" y="699" type="line"/>
			<point x="176" y="728" type="line"/>
			<point x="-5" y="728" type="line"/>
		</contour>
		<contour>
			<point x="208" y="699" type="line"/>
			<point x="279" y="690" type="line"/>
			<point x="308" y="690" type="line"/>
			<point x="373" y="699" type="line"/>
			<point x="373" y="728" type="line"/>
			<point x="208" y="728" type="line"/>
		</contour>
		<contour>
			<point x="407" y="699" type="line"/>
			<point x="465" y="690" type="line"/>
			<point x="476" y="690" type="line"/>
			<point x="532" y="699" type="line"/>
			<point x="532" y="728" type="line"/>
			<point x="407" y="728" type="line"/>
		</contour>
	</outline>
</glyph>
<glyph name="ringhalfrightmod" format="2">
	<unicode hex="02BE"/>
	<advance width="180"/>
	<outline>
		<contour>
			<point x="20" y="544" type="line"/>
			<point x="109" y="544"/>
			<point x="160" y="591"/>
			<point x="160" y="664" type="curve" smooth="yes"/>
			<point x="160" y="737"/>
			<point x="109" y="784"/>
			<point x="20" y="784" type="curve"/>
			<point x="20" y="728" type="line"/>
			<point x="63" y="728"/>
			<point x="86" y="697"/>
			<point x="86" y="664" type="curve" smooth="yes"/>
			<point x="86" y="633"/>
			<point x="63" y="600"/>
			<point x="20" y="600" type="curve"/>
		</contour>
	</outline>
</glyph>
<glyph name="ringhalfleftmod" format="2">
	<unicode hex="02BF"/>
	<advance width="180"/>
	<outline>
		<contour>
			<point x="20" y="664" type="curve" smooth="yes"/>
			<point x="20" y="591"/>
			<point x="71" y="544"/>
			<point x="160" y="544" type="curve"/>
			<point x="160" y="600" type="line"/>
			<point x="117" y="600"/>
			<point x="94" y="633"/>
			<point x="94" y="664" type="curve" smooth="yes"/>
			<point x="94" y="697"/>
			<point x="117" y="728"/>
			<point x="160" y="728" type="curve"/>
			<point x="160" y="784" type="line"/>
			<point x="71" y="784"/>
			<point x="20" y="737"/>
		</contour>
	</outline>
</glyph>
<glyph name="breve" format="2">
	<unicode hex="02D8"/>
	<advance width="400"/>
	<outline>
		<contour>
			<point x="34" y="722" type="line"/>
			<point x="38" y="657"/>
			<point x="76" y="563"/>
			<point x="200" y="563" type="curve" smooth="yes"/>
			<point x="324" y="563"/>
			<point x="362" y="657"/>
			<point x="366" y="722" type="curve"/>
			<point x="310" y="738" type="line"/>
			<point x="291" y="692"/>
			<point x="254" y="653"/>
			<point x="200" y="653" type="curve" smooth="yes"/>
			<point x="146" y="653"/>
			<point x="111" y="690"/>
			<point x="90" y="738" type="curve"/>
		</contour>
	</outline>
</glyph>
<glyph name="ogonek" format="2">
	<unicode hex="02DB"/>
	<advance width="400"/>
	<outline>
		<contour>
			<point x="178" y="-227" type="curve" smooth="yes"/>
			<point x="220" y="-227"/>
			<point x="269" y="-209"/>
			<point x="301" y="-179" type="curve"/>
			<point x="286" y="-124" type="line"/>
			<point x="273" y="-131"/>
			<point x="260" y="-134"/>
			<point x="241" y="-134" type="curve" smooth="yes"/>
			<point x="208" y="-134"/>
			<point x="189" y="-116"/>
			<point x="189" y="-77" type="curve" smooth="yes"/>
			<point x="189" y="-38"/>
			<point x="201" y="-13"/>
			<point x="240" y="8" type="curve"/>
			<point x="194" y="8" type="line"/>
			<point x="194" y="7" type="line"/>
			<point x="115" y="-20"/>
			<point x="69" y="-63"/>
			<point x="69" y="-127" type="curve" smooth="yes"/>
			<point x="69" y="-182"/>
			<point x="103" y="-227"/>
		</contour>
	</outline>
</glyph>
<glyph name="tilde" format="2">
	<unicode hex="02DC"/>
	<advance width="400"/>
	<outline>
		<contour>
			<point x="27" y="583" type="curve"/>
			<point x="76" y="569" type="line"/>
			<point x="88" y="600"/>
			<point x="106" y="619"/>
			<point x="131" y="619" type="curve" smooth="yes"/>
			<point x="154" y="619"/>
			<point x="173" y="604"/>
			<point x="191" y="594" type="curve" smooth="yes"/>
			<point x="214" y="582"/>
			<point x="242" y="570"/>
			<point x="269" y="570" type="curve" smooth="yes"/>
			<point x="321" y="570"/>
			<point x="366" y="614"/>
			<point x="377" y="720" type="curve"/>
			<point x="328" y="734" type="line"/>
			<point x="316" y="702"/>
			<point x="297" y="683"/>
			<point x="272" y="683" type="curve" smooth="yes"/>
			<point x="250" y="683"/>
			<point x="233" y="696"/>
			<point x="212" y="708" type="curve" smooth="yes"/>
			<point x="192" y="720"/>
			<point x="167" y="732"/>
			<point x="138" y="732" type="curve" smooth="yes"/>
			<point x="83" y="732"/>
			<point x="38" y="690"/>
		</contour>
	</outline>
</glyph>
<glyph name="hungarumlaut" format="2">
	<unicode hex="02DD"/>
	<advance width="400"/>
	<outline>
		<contour>
			<point x="69" y="576" type="line"/>
			<point x="116" y="551" type="line"/>
			<point x="203" y="671" type="line" smooth="yes"/>
			<point x="228" y="704"/>
			<point x="240" y="726"/>
			<point x="240" y="749" type="curve" smooth="yes"/>
			<point x="240" y="781"/>
			<point x="221" y="800"/>
			<point x="191" y="800" type="curve" smooth="yes"/>
			<point x="155" y="800"/>
			<point x="129" y="780"/>
			<point x="111" y="718" type="curve" smooth="yes"/>
		</contour>
		<contour>
			<point x="217" y="579" type="line"/>
			<point x="263" y="552" type="line"/>
			<point x="354" y="669" type="line" smooth="yes"/>
			<point x="380" y="701"/>
			<point x="394" y="723"/>
			<point x="394" y="750" type="curve" smooth="yes"/>
			<point x="394" y="778"/>
			<point x="376" y="799"/>
			<point x="342" y="799" type="curve" smooth="yes"/>
			<point x="310" y="799"/>
			<point x="284" y="781"/>
			<point x="264" y="720" type="curve" smooth="yes"/>
		</contour>
	</outline>
</glyph>
<glyph name="x.sups" format="2">
	<unicode hex="02E3"/>
	<advance width="375"/>
	<outline>
		<contour>
			<point x="8" y="415" type="line"/>
			<point x="133" y="415" type="line"/>
			<point x="133" y="445" type="line"/>
			<point x="88" y="454" type="line"/>
			<point x="65" y="454" type="line"/>
			<point x="8" y="445" type="line"/>
		</contour>
		<contour>
			<point x="10" y="699" type="line"/>
			<point x="80" y="690" type="line"/>
			<point x="136" y="690" type="line"/>
			<point x="200" y="699" type="line"/>
			<point x="200" y="728" type="line"/>
			<point x="10" y="728" type="line"/>
		</contour>
		<contour>
			<point x="222" y="415" type="line"/>
			<point x="352" y="415" type="line"/>
			<point x="228" y="606" type="line"/>
			<point x="150" y="728" type="line"/>
			<point x="24" y="728" type="line"/>
			<point x="141" y="547" type="line"/>
		</contour>
		<contour>
			<point x="170" y="415" type="line"/>
			<point x="363" y="415" type="line"/>
			<point x="363" y="445" type="line"/>
			<point x="289" y="458" type="line"/>
			<point x="259" y="458" type="line"/>
			<point x="170" y="445" type="line"/>
		</contour>
		<contour>
			<point x="235" y="699" type="line"/>
			<point x="279" y="690" type="line"/>
			<point x="302" y="690" type="line"/>
			<point x="350" y="699" type="line"/>
			<point x="350" y="728" type="line"/>
			<point x="235" y="728" type="line"/>
		</contour>
		<contour>
			<point x="27" y="415" type="line"/>
			<point x="78" y="415" type="line"/>
			<point x="172" y="553" type="line"/>
			<point x="191" y="553" type="line"/>
			<point x="168" y="604" type="line"/>
		</contour>
		<contour>
			<point x="205" y="550" type="line"/>
			<point x="340" y="728" type="line"/>
			<point x="289" y="728" type="line"/>
			<point x="206" y="604" type="line"/>
			<point x="185" y="604" type="line"/>
		</contour>
	</outline>
</glyph>
<glyph name="circumflexcmb" format="2">
	<unicode hex="0302"/>
	<outline>
		<contour>
			<point x="128" y="544" type="line"/>
			<point x="168" y="582" type="line"/>
			<point x="38" y="757" type="line"/>
			<point x="-38" y="757" type="line"/>
			<point x="-168" y="582" type="line"/>
			<point x="-128" y="544" type="line"/>
			<point x="50" y="679" type="line"/>
			<point x="-50" y="679" type="line"/>
		</contour>
	</outline>
	<anchor name="_aboveLC" x="0" y="507"/>
	<anchor name="aboveLC" x="0" y="757"/>
</glyph>
<glyph name="dieresiscmb" format="2">
	<unicode hex="0308"/>
	<outline>
		<contour>
			<point x="-116" y="567" type="curve" smooth="yes"/>
			<point x="-71" y="567"/>
			<point x="-32" y="595"/>
			<point x="-32" y="646" type="curve" smooth="yes"/>
			<point x="-32" y="696"/>
			<point x="-71" y="725"/>
			<point x="-116" y="725" type="curve" smooth="yes"/>
			<point x="-159" y="725"/>
			<point x="-200" y="696"/>
			<point x="-200" y="646" type="curve" smooth="yes"/>
			<point x="-200" y="595"/>
			<point x="-159" y="567"/>
		</contour>
		<contour>
			<point x="116" y="567" type="curve" smooth="yes"/>
			<point x="161" y="567"/>
			<point x="200" y="595"/>
			<point x="200" y="646" type="curve" smooth="yes"/>
			<point x="200" y="696"/>
			<point x="161" y="725"/>
			<point x="116" y="725" type="curve" smooth="yes"/>
			<point x="73" y="725"/>
			<point x="32" y="696"/>
			<point x="32" y="646" type="curve" smooth="yes"/>
			<point x="32" y="595"/>
			<point x="73" y="567"/>
		</contour>
	</outline>
	<anchor name="_aboveLC" x="0" y="507"/>
	<anchor name="aboveLC" x="0" y="725"/>
</glyph>
<glyph name="ringcmb" format="2">
	<unicode hex="030A"/>
	<outline>
		<contour>
			<point x="0" y="610" type="curve" smooth="yes"/>
			<point x="-39" y="610"/>
			<point x="-60" y="643"/>
			<point x="-60" y="674" type="curve" smooth="yes"/>
			<point x="-60" y="707"/>
			<point x="-39" y="738"/>
			<point x="0" y="738" type="curve" smooth="yes"/>
			<point x="39" y="738"/>
			<point x="60" y="707"/>
			<point x="60" y="674" type="curve" smooth="yes"/>
			<point x="60" y="643"/>
			<point x="39" y="610"/>
		</contour>
		<contour>
			<point x="0" y="554" type="curve" smooth="yes"/>
			<point x="72" y="554"/>
			<point x="127" y="598"/>
			<point x="127" y="674" type="curve" smooth="yes"/>
			<point x="127" y="750"/>
			<point x="72" y="794"/>
			<point x="0" y="794" type="curve" smooth="yes"/>
			<point x="-72" y="794"/>
			<point x="-127" y="747"/>
			<point x="-127" y="674" type="curve" smooth="yes"/>
			<point x="-127" y="601"/>
			<point x="-72" y="554"/>
		</contour>
	</outline>
	<anchor name="_aboveLC" x="0" y="507"/>
	<anchor name="aboveLC" x="0" y="794"/>
</glyph>
<glyph name="hungarumlautcmb" format="2">
	<unicode hex="030B"/>
	<outline>
		<contour>
			<point x="-111" y="576" type="line"/>
			<point x="-64" y="551" type="line"/>
			<point x="23" y="671" type="line" smooth="yes"/>
			<point x="48" y="704"/>
			<point x="60" y="726"/>
			<point x="60" y="749" type="curve" smooth="yes"/>
			<point x="60" y="781"/>
			<point x="41" y="800"/>
			<point x="11" y="800" type="curve" smooth="yes"/>
			<point x="-25" y="800"/>
			<point x="-51" y="780"/>
			<point x="-69" y="718" type="curve" smooth="yes"/>
		</contour>
		<contour>
			<point x="37" y="579" type="line"/>
			<point x="83" y="552" type="line"/>
			<point x="174" y="669" type="line" smooth="yes"/>
			<point x="200" y="701"/>
			<point x="214" y="723"/>
			<point x="214" y="750" type="curve" smooth="yes"/>
			<point x="214" y="778"/>
			<point x="196" y="799"/>
			<point x="162" y="799" type="curve" smooth="yes"/>
			<point x="130" y="799"/>
			<point x="104" y="781"/>
			<point x="84" y="720" type="curve" smooth="yes"/>
		</contour>
	</outline>
	<anchor name="_aboveLC" x="0" y="507"/>
	<anchor name="aboveLC" x="0" y="800"/>
</glyph>
<glyph name="caroncmb" format="2">
	<unicode hex="030C"/>
	<outline>
		<contour>
			<point x="-127" y="779" type="line"/>
			<point x="-171" y="742" type="line"/>
			<point x="-45" y="563" type="line"/>
			<point x="45" y="563" type="line"/>
			<point x="171" y="742" type="line"/>
			<point x="127" y="779" type="line"/>
			<point x="-44" y="640" type="line"/>
			<point x="44" y="640" type="line"/>
		</contour>
	</outline>
	<anchor name="_aboveLC" x="0" y="507"/>
	<anchor name="aboveLC" x="0" y="779"/>
</glyph>
<glyph name="horncmb" format="2">
	<unicode hex="031B"/>
	<outline>
		<contour>
			<point x="0" y="487" type="line"/>
			<point x="79" y="492"/>
			<point x="149" y="555"/>
			<point x="149" y="659" type="curve" smooth="yes"/>
			<point x="149" y="684"/>
			<point x="144" y="704"/>
			<point x="132" y="726" type="curve"/>
			<point x="114" y="736"/>
			<point x="99" y="741"/>
			<point x="78" y="741" type="curve" smooth="yes"/>
			<point x="43" y="741"/>
			<point x="19" y="714"/>
			<point x="19" y="679" type="curve" smooth="yes"/>
			<point x="19" y="629"/>
			<point x="56" y="624"/>
			<point x="56" y="578" type="curve" smooth="yes"/>
			<point x="56" y="541"/>
			<point x="32" y="524"/>
			<point x="0" y="521" type="curve"/>
		</contour>
	</outline>
	<anchor name="_hornLC" x="0" y="487"/>
</glyph>
<glyph name="commabelowcmb" format="2">
	<unicode hex="0326"/>
	<outline>
		<contour>
			<point x="71" y="-126" type="curve" smooth="yes"/>
			<point x="71" y="-103"/>
			<point x="69" y="-90"/>
			<point x="60" y="-69" type="curve"/>
			<point x="41" y="-52"/>
			<point x="24" y="-46"/>
			<point x="0" y="-46" type="curve" smooth="yes"/>
			<point x="-43" y="-46"/>
			<point x="-76" y="-78"/>
			<point x="-76" y="-120" type="curve" smooth="yes"/>
			<point x="-76" y="-142"/>
			<point x="-69" y="-179"/>
			<point x="8" y="-198" type="curve"/>
			<point x="8" y="-156" type="line"/>
			<point x="-12" y="-195"/>
			<point x="-35" y="-209"/>
			<point x="-83" y="-226" type="curve"/>
			<point x="-67" y="-268" type="line"/>
			<point x="6" y="-248"/>
			<point x="71" y="-211"/>
		</contour>
	</outline>
	<anchor name="_belowLC" x="0" y="-20"/>
	<anchor name="belowLC" x="0" y="-268"/>
</glyph>
<glyph name="cedillacmb" format="2">
	<unicode hex="0327"/>
	<outline>
		<contour>
			<point x="-42" y="-90" type="line"/>
			<point x="-3" y="-92"/>
			<point x="18" y="-106"/>
			<point x="18" y="-135" type="curve" smooth="yes"/>
			<point x="18" y="-156"/>
			<point x="3" y="-170"/>
			<point x="-32" y="-170" type="curve" smooth="yes"/>
			<point x="-50" y="-170"/>
			<point x="-67" y="-167"/>
			<point x="-87" y="-160" type="curve"/>
			<point x="-99" y="-212" type="line"/>
			<point x="-73" y="-222"/>
			<point x="-49" y="-227"/>
			<point x="-15" y="-227" type="curve" smooth="yes"/>
			<point x="81" y="-227"/>
			<point x="129" y="-188"/>
			<point x="129" y="-135" type="curve" smooth="yes"/>
			<point x="129" y="-92"/>
			<point x="96" y="-53"/>
			<point x="-13" y="-43" type="curve"/>
			<point x="22" y="-71" type="line"/>
			<point x="31" y="5" type="line"/>
			<point x="-27" y="5" type="line"/>
		</contour>
	</outline>
	<anchor name="_baseLC" x="0" y="0"/>
</glyph>
<glyph name="ogonekcmb" format="2">
	<unicode hex="0328"/>
	<outline>
		<contour>
			<point x="-31" y="-227" type="curve" smooth="yes"/>
			<point x="11" y="-227"/>
			<point x="60" y="-209"/>
			<point x="92" y="-179" type="curve"/>
			<point x="77" y="-124" type="line"/>
			<point x="64" y="-131"/>
			<point x="51" y="-134"/>
			<point x="32" y="-134" type="curve" smooth="yes"/>
			<point x="-1" y="-134"/>
			<point x="-20" y="-116"/>
			<point x="-20" y="-77" type="curve" smooth="yes"/>
			<point x="-20" y="-38"/>
			<point x="-8" y="-13"/>
			<point x="31" y="8" type="curve"/>
			<point x="-15" y="8" type="line"/>
			<point x="-15" y="7" type="line"/>
			<point x="-94" y="-20"/>
			<point x="-140" y="-63"/>
			<point x="-140" y="-127" type="curve" smooth="yes"/>
			<point x="-140" y="-182"/>
			<point x="-106" y="-227"/>
		</contour>
	</outline>
	<anchor name="_ogonek" x="0" y="0"/>
</glyph>
<glyph name="Theta" format="2">
	<unicode hex="0398"/>
	<advance width="720"/>
	<outline>
		<contour>
			<point x="264" y="225" type="line"/>
			<point x="309" y="225" type="line"/>
			<point x="324" y="322" type="line"/>
			<point x="324" y="340" type="line"/>
			<point x="309" y="432" type="line"/>
			<point x="264" y="432" type="line"/>
		</contour>
		<contour>
			<point x="411" y="225" type="line"/>
			<point x="456" y="225" type="line"/>
			<point x="456" y="432" type="line"/>
			<point x="411" y="432" type="line"/>
			<point x="396" y="340" type="line"/>
			<point x="396" y="322" type="line"/>
		</contour>
		<contour>
			<point x="360" y="-20" type="curve" smooth="yes"/>
			<point x="549" y="-20"/>
			<point x="692" y="91"/>
			<point x="692" y="326" type="curve" smooth="yes"/>
			<point x="692" y="561"/>
			<point x="549" y="672"/>
			<point x="360" y="672" type="curve" smooth="yes"/>
			<point x="172" y="672"/>
			<point x="28" y="561"/>
			<point x="28" y="326" type="curve" smooth="yes"/>
			<point x="28" y="91"/>
			<point x="171" y="-20"/>
		</contour>
		<contour>
			<point x="360" y="41" type="curve" smooth="yes"/>
			<point x="254" y="41"/>
			<point x="218" y="154"/>
			<point x="218" y="326" type="curve" smooth="yes"/>
			<point x="218" y="497"/>
			<point x="254" y="612"/>
			<point x="360" y="612" type="curve" smooth="yes"/>
			<point x="467" y="612"/>
			<point x="502" y="497"/>
			<point x="502" y="326" type="curve" smooth="yes"/>
			<point x="502" y="154"/>
			<point x="467" y="41"/>
		</contour>
		<contour>
			<point x="297" y="291" type="line"/>
			<point x="424" y="291" type="line"/>
			<point x="424" y="365" type="line"/>
			<point x="297" y="365" type="line"/>
		</contour>
	</outline>
</glyph>
<glyph name="Xi" format="2">
	<unicode hex="039E"/>
	<advance width="564"/>
	<outline>
		<contour>
			<point x="27" y="0" type="line"/>
			<point x="537" y="0" type="line"/>
			<point x="544" y="200" type="line"/>
			<point x="470" y="200" type="line"/>
			<point x="441" y="0" type="line"/>
			<point x="504" y="120" type="line"/>
			<point x="60" y="120" type="line"/>
			<point x="123" y="0" type="line"/>
			<point x="94" y="200" type="line"/>
			<point x="20" y="200" type="line"/>
		</contour>
		<contour>
			<point x="133" y="228" type="line"/>
			<point x="196" y="228" type="line"/>
			<point x="211" y="320" type="line"/>
			<point x="211" y="338" type="line"/>
			<point x="196" y="425" type="line"/>
			<point x="133" y="425" type="line"/>
		</contour>
		<contour>
			<point x="181" y="281" type="line"/>
			<point x="383" y="281" type="line"/>
			<point x="383" y="375" type="line"/>
			<point x="181" y="375" type="line"/>
		</contour>
		<contour>
			<point x="368" y="228" type="line"/>
			<point x="431" y="228" type="line"/>
			<point x="431" y="425" type="line"/>
			<point x="368" y="425" type="line"/>
			<point x="353" y="338" type="line"/>
			<point x="353" y="320" type="line"/>
		</contour>
		<contour>
			<point x="30" y="452" type="line"/>
			<point x="104" y="452" type="line"/>
			<point x="133" y="652" type="line"/>
			<point x="70" y="532" type="line"/>
			<point x="494" y="532" type="line"/>
			<point x="431" y="652" type="line"/>
			<point x="460" y="452" type="line"/>
			<point x="534" y="452" type="line"/>
			<point x="527" y="652" type="line"/>
			<point x="37" y="652" type="line"/>
		</contour>
	</outline>
</glyph>
<glyph name="Pi" format="2">
	<unicode hex="03A0"/>
	<advance width="752"/>
	<outline>
		<contour>
			<point x="93" y="0" type="curve"/>
			<point x="297" y="0" type="line"/>
			<point x="294" y="103"/>
			<point x="294" y="207"/>
			<point x="294" y="311" type="curve" smooth="yes"/>
			<point x="294" y="342" type="line" smooth="yes"/>
			<point x="294" y="447"/>
			<point x="294" y="551"/>
			<point x="297" y="652" type="curve"/>
			<point x="93" y="652" type="line"/>
			<point x="96" y="549"/>
			<point x="96" y="445"/>
			<point x="96" y="342" type="curve" smooth="yes"/>
			<point x="96" y="310" type="line" smooth="yes"/>
			<point x="96" y="205"/>
			<point x="96" y="101"/>
		</contour>
		<contour>
			<point x="455" y="0" type="curve"/>
			<point x="659" y="0" type="line"/>
			<point x="656" y="103"/>
			<point x="656" y="207"/>
			<point x="656" y="310" type="curve" smooth="yes"/>
			<point x="656" y="342" type="line" smooth="yes"/>
			<point x="656" y="447"/>
			<point x="656" y="551"/>
			<point x="659" y="652" type="curve"/>
			<point x="455" y="652" type="line"/>
			<point x="458" y="549"/>
			<point x="458" y="445"/>
			<point x="458" y="342" type="curve" smooth="yes"/>
			<point x="458" y="311" type="line" smooth="yes"/>
			<point x="458" y="205"/>
			<point x="458" y="101"/>
		</contour>
		<contour>
			<point x="28" y="0" type="line"/>
			<point x="357" y="0" type="line"/>
			<point x="357" y="59" type="line"/>
			<point x="205" y="74" type="line"/>
			<point x="172" y="74" type="line"/>
			<point x="28" y="59" type="line"/>
		</contour>
		<contour>
			<point x="395" y="0" type="line"/>
			<point x="724" y="0" type="line"/>
			<point x="724" y="59" type="line"/>
			<point x="575" y="74" type="line"/>
			<point x="544" y="74" type="line"/>
			<point x="395" y="59" type="line"/>
		</contour>
		<contour>
			<point x="28" y="593" type="line"/>
			<point x="179" y="578" type="line"/>
			<point x="197" y="578" type="line"/>
			<point x="197" y="652" type="line"/>
			<point x="28" y="652" type="line"/>
		</contour>
		<contour>
			<point x="555" y="578" type="line"/>
			<point x="573" y="578" type="line"/>
			<point x="724" y="593" type="line"/>
			<point x="724" y="652" type="line"/>
			<point x="555" y="652" type="line"/>
		</contour>
		<contour>
			<point x="197" y="589" type="line"/>
			<point x="555" y="589" type="line"/>
			<point x="555" y="652" type="line"/>
			<point x="197" y="652" type="line"/>
		</contour>
	</outline>
</glyph>
<glyph name="Sigma" format="2">
	<unicode hex="03A3"/>
	<advance width="568"/>
	<outline>
		<contour>
			<point x="441" y="453" type="line"/>
			<point x="527" y="453" type="line"/>
			<point x="519" y="652" type="line"/>
			<point x="129" y="652" type="line"/>
			<point x="129" y="592" type="line"/>
			<point x="485" y="592" type="line"/>
			<point x="403" y="652" type="line"/>
		</contour>
		<contour>
			<point x="535" y="0" type="line"/>
			<point x="543" y="269" type="line"/>
			<point x="455" y="269" type="line"/>
			<point x="418" y="80" type="line"/>
			<point x="502" y="120" type="line"/>
			<point x="117" y="120" type="line"/>
			<point x="141" y="103" type="line"/>
			<point x="354" y="351" type="line"/>
			<point x="180" y="652" type="line"/>
			<point x="40" y="652" type="line"/>
			<point x="40" y="595" type="line"/>
			<point x="237" y="268" type="line"/>
			<point x="247" y="353" type="line"/>
			<point x="30" y="95" type="line"/>
			<point x="30" y="0" type="line"/>
		</contour>
	</outline>
</glyph>
<glyph name="Phi" format="2">
	<unicode hex="03A6"/>
	<advance width="824"/>
	<outline>
		<contour>
			<point x="50" y="337" type="curve" smooth="yes"/>
			<point x="50" y="197"/>
			<point x="153" y="119"/>
			<point x="342" y="119" type="curve" smooth="yes"/>
			<point x="412" y="119" type="line"/>
			<point x="412" y="182" type="line"/>
			<point x="342" y="182" type="line" smooth="yes"/>
			<point x="271" y="182"/>
			<point x="222" y="241"/>
			<point x="222" y="330" type="curve" smooth="yes"/>
			<point x="222" y="434"/>
			<point x="260" y="492"/>
			<point x="340" y="492" type="curve" smooth="yes"/>
			<point x="412" y="492" type="line"/>
			<point x="412" y="554" type="line"/>
			<point x="336" y="554" type="line" smooth="yes"/>
			<point x="141" y="554"/>
			<point x="50" y="462"/>
		</contour>
		<contour>
			<point x="412" y="119" type="line"/>
			<point x="482" y="119" type="line" smooth="yes"/>
			<point x="671" y="119"/>
			<point x="774" y="197"/>
			<point x="774" y="337" type="curve" smooth="yes"/>
			<point x="774" y="462"/>
			<point x="683" y="554"/>
			<point x="488" y="554" type="curve" smooth="yes"/>
			<point x="412" y="554" type="line"/>
			<point x="412" y="492" type="line"/>
			<point x="484" y="492" type="line" smooth="yes"/>
			<point x="564" y="492"/>
			<point x="602" y="434"/>
			<point x="602" y="330" type="curve" smooth="yes"/>
			<point x="602" y="241"/>
			<point x="553" y="182"/>
			<point x="482" y="182" type="curve" smooth="yes"/>
			<point x="412" y="182" type="line"/>
		</contour>
		<contour>
			<point x="323" y="0" type="curve"/>
			<point x="502" y="0" type="line"/>
			<point x="499" y="103"/>
			<point x="499" y="207"/>
			<point x="499" y="311" type="curve" smooth="yes"/>
			<point x="499" y="342" type="line" smooth="yes"/>
			<point x="499" y="451"/>
			<point x="499" y="561"/>
			<point x="502" y="666" type="curve"/>
			<point x="323" y="666" type="line"/>
			<point x="326" y="559"/>
			<point x="326" y="449"/>
			<point x="326" y="342" type="curve" smooth="yes"/>
			<point x="326" y="310" type="line" smooth="yes"/>
			<point x="326" y="205"/>
			<point x="326" y="101"/>
		</contour>
		<contour>
			<point x="256" y="607" type="line"/>
			<point x="390" y="592" type="line"/>
			<point x="433" y="592" type="line"/>
			<point x="569" y="607" type="line"/>
			<point x="569" y="666" type="line"/>
			<point x="256" y="666" type="line"/>
		</contour>
		<contour>
			<point x="256" y="0" type="line"/>
			<point x="569" y="0" type="line"/>
			<point x="569" y="59" type="line"/>
			<point x="448" y="74" type="line"/>
			<point x="397" y="74" type="line"/>
			<point x="256" y="59" type="line"/>
		</contour>
	</outline>
</glyph>
<glyph name="Psi" format="2">
	<unicode hex="03A8"/>
	<advance width="852"/>
	<outline>
		<contour>
			<point x="426" y="209" type="curve" smooth="yes"/>
			<point x="700" y="209"/>
			<point x="759" y="293"/>
			<point x="778" y="467" type="curve" smooth="yes"/>
			<point x="786" y="539" type="line" smooth="yes"/>
			<point x="790" y="572"/>
			<point x="804" y="590"/>
			<point x="840" y="592" type="curve" smooth="yes"/>
			<point x="857" y="593" type="line"/>
			<point x="857" y="652" type="line"/>
			<point x="799" y="652" type="line" smooth="yes"/>
			<point x="682" y="652"/>
			<point x="628" y="616"/>
			<point x="618" y="512" type="curve" smooth="yes"/>
			<point x="611" y="437" type="line" smooth="yes"/>
			<point x="599" y="310"/>
			<point x="574" y="262"/>
			<point x="426" y="262" type="curve" smooth="yes"/>
			<point x="278" y="262"/>
			<point x="253" y="310"/>
			<point x="241" y="437" type="curve" smooth="yes"/>
			<point x="234" y="512" type="line" smooth="yes"/>
			<point x="224" y="616"/>
			<point x="170" y="652"/>
			<point x="53" y="652" type="curve" smooth="yes"/>
			<point x="-5" y="652" type="line"/>
			<point x="-5" y="593" type="line"/>
			<point x="12" y="592" type="line" smooth="yes"/>
			<point x="48" y="590"/>
			<point x="62" y="572"/>
			<point x="66" y="539" type="curve" smooth="yes"/>
			<point x="74" y="467" type="line" smooth="yes"/>
			<point x="93" y="293"/>
			<point x="152" y="209"/>
		</contour>
		<contour>
			<point x="334" y="0" type="curve"/>
			<point x="518" y="0" type="line"/>
			<point x="515" y="103"/>
			<point x="515" y="207"/>
			<point x="515" y="311" type="curve" smooth="yes"/>
			<point x="515" y="342" type="line" smooth="yes"/>
			<point x="515" y="447"/>
			<point x="515" y="551"/>
			<point x="518" y="652" type="curve"/>
			<point x="334" y="652" type="line"/>
			<point x="337" y="549"/>
			<point x="337" y="445"/>
			<point x="337" y="342" type="curve" smooth="yes"/>
			<point x="337" y="310" type="line" smooth="yes"/>
			<point x="337" y="205"/>
			<point x="337" y="101"/>
		</contour>
		<contour>
			<point x="266" y="0" type="line"/>
			<point x="586" y="0" type="line"/>
			<point x="586" y="59" type="line"/>
			<point x="441" y="74" type="line"/>
			<point x="408" y="74" type="line"/>
			<point x="266" y="59" type="line"/>
		</contour>
		<contour>
			<point x="286" y="593" type="line"/>
			<point x="408" y="578" type="line"/>
			<point x="441" y="578" type="line"/>
			<point x="566" y="593" type="line"/>
			<point x="566" y="652" type="line"/>
			<point x="286" y="652" type="line"/>
		</contour>
	</outline>
</glyph>
<glyph name="Omega" format="2">
	<unicode hex="03A9"/>
	<unicode hex="2126"/>
	<advance width="744"/>
	<outline>
		<contour>
			<point x="21" y="0" type="line"/>
			<point x="322" y="0" type="line"/>
			<point x="333" y="170" type="line"/>
			<point x="259" y="210"/>
			<point x="238" y="288"/>
			<point x="238" y="397" type="curve" smooth="yes"/>
			<point x="238" y="506"/>
			<point x="279" y="612"/>
			<point x="372" y="612" type="curve" smooth="yes"/>
			<point x="473" y="612"/>
			<point x="506" y="500"/>
			<point x="506" y="397" type="curve" smooth="yes"/>
			<point x="506" y="288"/>
			<point x="484" y="210"/>
			<point x="410" y="170" type="curve"/>
			<point x="422" y="0" type="line"/>
			<point x="723" y="0" type="line"/>
			<point x="734" y="200" type="line"/>
			<point x="664" y="200" type="line"/>
			<point x="633" y="91" type="line"/>
			<point x="671" y="120" type="line"/>
			<point x="470" y="120" type="line"/>
			<point x="502" y="90" type="line"/>
			<point x="499" y="134" type="line"/>
			<point x="610" y="173"/>
			<point x="701" y="254"/>
			<point x="701" y="394" type="curve" smooth="yes"/>
			<point x="701" y="529"/>
			<point x="604" y="672"/>
			<point x="372" y="672" type="curve" smooth="yes"/>
			<point x="140" y="672"/>
			<point x="43" y="529"/>
			<point x="43" y="394" type="curve" smooth="yes"/>
			<point x="43" y="254"/>
			<point x="134" y="173"/>
			<point x="245" y="134" type="curve"/>
			<point x="242" y="90" type="line"/>
			<point x="274" y="120" type="line"/>
			<point x="73" y="120" type="line"/>
			<point x="111" y="91" type="line"/>
			<point x="80" y="200" type="line"/>
			<point x="10" y="200" type="line"/>
		</contour>
	</outline>
</glyph>
<glyph name="alpha" format="2">
	<unicode hex="03B1"/>
	<advance width="599"/>
	<outline>
		<contour>
			<point x="219" y="-15" type="curve" smooth="yes"/>
			<point x="276" y="-15"/>
			<point x="330" y="14"/>
			<point x="363" y="80" type="curve"/>
			<point x="359" y="80" type="line"/>
			<point x="364" y="25"/>
			<point x="421" y="-16"/>
			<point x="477" y="-16" type="curve" smooth="yes"/>
			<point x="534" y="-16"/>
			<point x="582" y="17"/>
			<point x="599" y="56" type="curve"/>
			<point x="583" y="95" type="line"/>
			<point x="575" y="91"/>
			<point x="565" y="89"/>
			<point x="550" y="89" type="curve" smooth="yes"/>
			<point x="521" y="89"/>
			<point x="508" y="112"/>
			<point x="508" y="152" type="curve" smooth="yes"/>
			<point x="508" y="248"/>
			<point x="523" y="353"/>
			<point x="543" y="486" type="curve"/>
			<point x="525" y="498" type="line"/>
			<point x="355" y="474" type="line"/>
			<point x="349" y="402" type="line"/>
			<point x="345" y="241" type="line" smooth="yes"/>
			<point x="342" y="116"/>
			<point x="309" y="74"/>
			<point x="276" y="74" type="curve" smooth="yes"/>
			<point x="236" y="74"/>
			<point x="202" y="113"/>
			<point x="202" y="237" type="curve" smooth="yes"/>
			<point x="202" y="367"/>
			<point x="236" y="420"/>
			<point x="278" y="420" type="curve" smooth="yes"/>
			<point x="313" y="420"/>
			<point x="338" y="396"/>
			<point x="364" y="349" type="curve"/>
			<point x="377" y="360" type="line"/>
			<point x="375" y="360" type="line"/>
			<point x="368" y="438"/>
			<point x="311" y="503"/>
			<point x="225" y="503" type="curve" smooth="yes"/>
			<point x="105" y="503"/>
			<point x="26" y="402"/>
			<point x="26" y="234" type="curve" smooth="yes"/>
			<point x="26" y="79"/>
			<point x="103" y="-15"/>
		</contour>
	</outline>
	<anchor name="aboveLC" x="302" y="507"/>
	<anchor name="belowLC" x="320" y="-20"/>
</glyph>
<glyph name="beta" format="2">
	<unicode hex="03B2"/>
	<advance width="601"/>
	<outline>
		<contour>
			<point x="50" y="-175" type="line"/>
			<point x="70" y="-195" type="line"/>
			<point x="265" y="-160" type="line"/>
			<point x="226" y="76" type="line"/>
			<point x="227" y="93" type="line"/>
			<point x="232" y="524" type="line" smooth="yes"/>
			<point x="233" y="637"/>
			<point x="271" y="666"/>
			<point x="311" y="666" type="curve" smooth="yes"/>
			<point x="351" y="666"/>
			<point x="380" y="635"/>
			<point x="380" y="556" type="curve" smooth="yes"/>
			<point x="380" y="490"/>
			<point x="360" y="438"/>
			<point x="257" y="399" type="curve"/>
			<point x="279" y="318" type="line"/>
			<point x="374" y="312"/>
			<point x="409" y="269"/>
			<point x="409" y="188" type="curve" smooth="yes"/>
			<point x="409" y="130"/>
			<point x="378" y="77"/>
			<point x="309" y="77" type="curve" smooth="yes"/>
			<point x="251" y="77"/>
			<point x="213" y="97"/>
			<point x="166" y="166" type="curve"/>
			<point x="156" y="158" type="line"/>
			<point x="158" y="158" type="line"/>
			<point x="203" y="29"/>
			<point x="272" y="-16"/>
			<point x="356" y="-16" type="curve" smooth="yes"/>
			<point x="476" y="-16"/>
			<point x="569" y="52"/>
			<point x="569" y="193" type="curve" smooth="yes"/>
			<point x="569" y="330"/>
			<point x="462" y="397"/>
			<point x="281" y="378" type="curve"/>
			<point x="281" y="355" type="line"/>
			<point x="453" y="379"/>
			<point x="530" y="467"/>
			<point x="530" y="558" type="curve" smooth="yes"/>
			<point x="530" y="656"/>
			<point x="460" y="721"/>
			<point x="318" y="721" type="curve" smooth="yes"/>
			<point x="156" y="721"/>
			<point x="61" y="624"/>
			<point x="61" y="414" type="curve" smooth="yes"/>
			<point x="61" y="66" type="line"/>
		</contour>
	</outline>
</glyph>
<glyph name="gamma" format="2">
	<unicode hex="03B3"/>
	<advance width="557"/>
	<outline>
		<contour>
			<point x="184" y="-175" type="line"/>
			<point x="204" y="-195" type="line"/>
			<point x="373" y="-160" type="line"/>
			<point x="358" y="57" type="line"/>
			<point x="338" y="70" type="line"/>
			<point x="327" y="170"/>
			<point x="307" y="266"/>
			<point x="285" y="338" type="curve" smooth="yes"/>
			<point x="244" y="476"/>
			<point x="206" y="497"/>
			<point x="130" y="497" type="curve" smooth="yes"/>
			<point x="68" y="497"/>
			<point x="26" y="462"/>
			<point x="0" y="418" type="curve"/>
			<point x="15" y="382" type="line"/>
			<point x="24" y="384"/>
			<point x="32" y="386"/>
			<point x="41" y="386" type="curve" smooth="yes"/>
			<point x="78" y="386"/>
			<point x="86" y="364"/>
			<point x="112" y="296" type="curve" smooth="yes"/>
			<point x="140" y="224"/>
			<point x="182" y="109"/>
			<point x="226" y="-72" type="curve"/>
			<point x="229" y="16" type="line"/>
		</contour>
		<contour>
			<point x="345" y="-8" type="line"/>
			<point x="424" y="124"/>
			<point x="521" y="285"/>
			<point x="521" y="406" type="curve" smooth="yes"/>
			<point x="521" y="434"/>
			<point x="519" y="450"/>
			<point x="512" y="474" type="curve"/>
			<point x="492" y="495"/>
			<point x="475" y="503"/>
			<point x="446" y="503" type="curve" smooth="yes"/>
			<point x="388" y="503"/>
			<point x="356" y="457"/>
			<point x="356" y="394" type="curve" smooth="yes"/>
			<point x="356" y="349"/>
			<point x="372" y="311"/>
			<point x="423" y="161" type="curve"/>
			<point x="423" y="354" type="line"/>
			<point x="393" y="224"/>
			<point x="345" y="104"/>
			<point x="309" y="34" type="curve"/>
		</contour>
	</outline>
</glyph>
<glyph name="eta" format="2">
	<unicode hex="03B7"/>
	<advance width="597"/>
	<outline>
		<contour>
			<point x="58" y="4" type="line"/>
			<point x="78" y="-16" type="line"/>
			<point x="257" y="-1" type="line"/>
			<point x="252" y="364" type="line"/>
			<point x="252" y="367" type="line" smooth="yes"/>
			<point x="251" y="460"/>
			<point x="205" y="498"/>
			<point x="129" y="498" type="curve" smooth="yes"/>
			<point x="75" y="498"/>
			<point x="32" y="473"/>
			<point x="5" y="427" type="curve"/>
			<point x="20" y="391" type="line"/>
			<point x="25" y="391"/>
			<point x="36" y="391"/>
			<point x="41" y="391" type="curve" smooth="yes"/>
			<point x="72" y="391"/>
			<point x="81" y="372"/>
			<point x="81" y="319" type="curve" smooth="yes"/>
			<point x="81" y="244" type="line"/>
		</contour>
		<contour>
			<point x="348" y="-176" type="line"/>
			<point x="368" y="-196" type="line"/>
			<point x="547" y="-161" type="line"/>
			<point x="540" y="322" type="line" smooth="yes"/>
			<point x="538" y="470"/>
			<point x="461" y="503"/>
			<point x="399" y="503" type="curve" smooth="yes"/>
			<point x="320" y="503"/>
			<point x="262" y="464"/>
			<point x="232" y="355" type="curve"/>
			<point x="230" y="355" type="line"/>
			<point x="246" y="346" type="line"/>
			<point x="277" y="376"/>
			<point x="302" y="386"/>
			<point x="323" y="386" type="curve" smooth="yes"/>
			<point x="351" y="386"/>
			<point x="378" y="373"/>
			<point x="377" y="290" type="curve" smooth="yes"/>
			<point x="374" y="65" type="line"/>
		</contour>
	</outline>
	<anchor name="aboveLC" x="297" y="507"/>
	<anchor name="belowLC" x="161" y="-20"/>
</glyph>
<glyph name="theta" format="2">
	<unicode hex="03B8"/>
	<advance width="530"/>
	<outline>
		<contour>
			<point x="261" y="-16" type="curve" smooth="yes"/>
			<point x="110" y="-16"/>
			<point x="28" y="102"/>
			<point x="28" y="336" type="curve" smooth="yes"/>
			<point x="28" y="608"/>
			<point x="134" y="721"/>
			<point x="273" y="721" type="curve" smooth="yes"/>
			<point x="422" y="721"/>
			<point x="502" y="603"/>
			<point x="502" y="370" type="curve" smooth="yes"/>
			<point x="502" y="104"/>
			<point x="406" y="-16"/>
		</contour>
		<contour>
			<point x="267" y="44" type="curve" smooth="yes"/>
			<point x="311" y="44"/>
			<point x="335" y="86"/>
			<point x="335" y="337" type="curve" smooth="yes"/>
			<point x="335" y="574"/>
			<point x="305" y="661"/>
			<point x="262" y="661" type="curve" smooth="yes"/>
			<point x="218" y="661"/>
			<point x="194" y="620"/>
			<point x="194" y="388" type="curve" smooth="yes"/>
			<point x="194" y="132"/>
			<point x="224" y="44"/>
		</contour>
		<contour>
			<point x="91" y="327" type="line"/>
			<point x="91" y="397" type="line"/>
			<point x="439" y="397" type="line"/>
			<point x="439" y="327" type="line"/>
		</contour>
	</outline>
</glyph>
<glyph name="iota" format="2">
	<unicode hex="03B9"/>
	<advance width="330"/>
	<outline>
		<contour>
			<point x="195" y="-16" type="curve" smooth="yes"/>
			<point x="254" y="-16"/>
			<point x="302" y="8"/>
			<point x="330" y="55" type="curve"/>
			<point x="313" y="95" type="line"/>
			<point x="305" y="91"/>
			<point x="296" y="89"/>
			<point x="284" y="89" type="curve" smooth="yes"/>
			<point x="253" y="89"/>
			<point x="234" y="100"/>
			<point x="234" y="148" type="curve" smooth="yes"/>
			<point x="234" y="201"/>
			<point x="240" y="274"/>
			<point x="253" y="487" type="curve"/>
			<point x="235" y="498" type="line"/>
			<point x="55" y="465" type="line"/>
			<point x="68" y="127" type="line" smooth="yes"/>
			<point x="72" y="27"/>
			<point x="110" y="-16"/>
		</contour>
	</outline>
	<anchor name="aboveLC" x="162" y="507"/>
</glyph>
<glyph name="kappa" format="2">
	<unicode hex="03BA"/>
	<advance width="577"/>
	<outline>
		<contour>
			<point x="78" y="-16" type="line"/>
			<point x="240" y="-1" type="line"/>
			<point x="242" y="58"/>
			<point x="245" y="159"/>
			<point x="248" y="235" type="curve"/>
			<point x="248" y="368" type="line" smooth="yes"/>
			<point x="248" y="461"/>
			<point x="205" y="497"/>
			<point x="135" y="497" type="curve" smooth="yes"/>
			<point x="80" y="497"/>
			<point x="32" y="472"/>
			<point x="5" y="426" type="curve"/>
			<point x="20" y="390" type="line"/>
			<point x="25" y="390"/>
			<point x="36" y="390"/>
			<point x="41" y="390" type="curve" smooth="yes"/>
			<point x="72" y="390"/>
			<point x="85" y="371"/>
			<point x="85" y="318" type="curve" smooth="yes"/>
			<point x="85" y="214" type="line"/>
			<point x="58" y="4" type="line"/>
		</contour>
		<contour>
			<point x="212" y="120" type="line"/>
			<point x="238" y="170"/>
			<point x="266" y="216"/>
			<point x="294" y="259" type="curve"/>
			<point x="328" y="305"/>
			<point x="366" y="346"/>
			<point x="409" y="380" type="curve"/>
			<point x="314" y="324" type="line"/>
			<point x="422" y="334" type="line" smooth="yes"/>
			<point x="502" y="341"/>
			<point x="549" y="368"/>
			<point x="549" y="426" type="curve" smooth="yes"/>
			<point x="549" y="475"/>
			<point x="527" y="498"/>
			<point x="497" y="504" type="curve"/>
			<point x="455" y="497"/>
			<point x="416" y="480"/>
			<point x="371" y="442" type="curve" smooth="yes"/>
			<point x="312" y="392"/>
			<point x="228" y="260"/>
			<point x="172" y="160" type="curve"/>
		</contour>
		<contour>
			<point x="442" y="-16" type="curve" smooth="yes"/>
			<point x="505" y="-16"/>
			<point x="547" y="51"/>
			<point x="562" y="104" type="curve"/>
			<point x="546" y="136" type="line"/>
			<point x="533" y="131"/>
			<point x="520" y="128"/>
			<point x="501" y="128" type="curve" smooth="yes"/>
			<point x="454" y="128"/>
			<point x="395" y="166"/>
			<point x="302" y="313" type="curve"/>
			<point x="268" y="285" type="line"/>
			<point x="344" y="18"/>
			<point x="390" y="-16"/>
		</contour>
	</outline>
</glyph>
<glyph name="lambda" format="2">
	<unicode hex="03BB"/>
	<advance width="609"/>
	<outline>
		<contour>
			<point x="21" y="0" type="line"/>
			<point x="220" y="-10" type="line"/>
			<point x="343" y="344" type="line"/>
			<point x="287" y="546" type="line"/>
			<point x="10" y="12" type="line"/>
		</contour>
		<contour>
			<point x="509" y="-16" type="curve" smooth="yes"/>
			<point x="567" y="-16"/>
			<point x="607" y="51"/>
			<point x="619" y="101" type="curve"/>
			<point x="605" y="134" type="line"/>
			<point x="595" y="131"/>
			<point x="575" y="128"/>
			<point x="560" y="128" type="curve" smooth="yes"/>
			<point x="511" y="128"/>
			<point x="457" y="144"/>
			<point x="425" y="239" type="curve" smooth="yes"/>
			<point x="313" y="575" type="line" smooth="yes"/>
			<point x="278" y="680"/>
			<point x="236" y="721"/>
			<point x="166" y="721" type="curve" smooth="yes"/>
			<point x="100" y="721"/>
			<point x="38" y="672"/>
			<point x="18" y="600" type="curve"/>
			<point x="54" y="552" type="line"/>
			<point x="83" y="572"/>
			<point x="123" y="590"/>
			<point x="169" y="590" type="curve" smooth="yes"/>
			<point x="226" y="590"/>
			<point x="264" y="570"/>
			<point x="276" y="520" type="curve" smooth="yes"/>
			<point x="309" y="384" type="line"/>
			<point x="312" y="384" type="line"/>
			<point x="368" y="152" type="line" smooth="yes"/>
			<point x="400" y="20"/>
			<point x="444" y="-16"/>
		</contour>
	</outline>
</glyph>
<glyph name="mu" format="2">
	<unicode hex="03BC"/>
	<unicode hex="00B5"/>
	<advance width="596"/>
	<outline>
		<contour>
			<point x="50" y="-175" type="line"/>
			<point x="70" y="-195" type="line"/>
			<point x="233" y="-160" type="line"/>
			<point x="201" y="73" type="line"/>
			<point x="227" y="103" type="line"/>
			<point x="227" y="199"/>
			<point x="231" y="284"/>
			<point x="239" y="492" type="curve"/>
			<point x="221" y="503" type="line"/>
			<point x="54" y="470" type="line"/>
			<point x="82" y="114" type="line"/>
		</contour>
		<contour>
			<point x="473" y="-16" type="curve" smooth="yes"/>
			<point x="530" y="-16"/>
			<point x="570" y="10"/>
			<point x="596" y="55" type="curve"/>
			<point x="579" y="95" type="line"/>
			<point x="571" y="91"/>
			<point x="562" y="89"/>
			<point x="550" y="89" type="curve" smooth="yes"/>
			<point x="523" y="89"/>
			<point x="510" y="98"/>
			<point x="510" y="148" type="curve" smooth="yes"/>
			<point x="510" y="201"/>
			<point x="516" y="279"/>
			<point x="529" y="492" type="curve"/>
			<point x="511" y="503" type="line"/>
			<point x="344" y="470" type="line"/>
			<point x="358" y="112" type="line"/>
			<point x="358" y="106" type="line"/>
			<point x="366" y="30"/>
			<point x="410" y="-16"/>
		</contour>
		<contour>
			<point x="265" y="-16" type="curve" smooth="yes"/>
			<point x="322" y="-16"/>
			<point x="368" y="37"/>
			<point x="385" y="140" type="curve"/>
			<point x="387" y="140" type="line"/>
			<point x="368" y="152" type="line"/>
			<point x="351" y="121"/>
			<point x="315" y="111"/>
			<point x="287" y="111" type="curve" smooth="yes"/>
			<point x="258" y="111"/>
			<point x="234" y="125"/>
			<point x="221" y="156" type="curve"/>
			<point x="183" y="76" type="line"/>
			<point x="185" y="76" type="line"/>
			<point x="205" y="12"/>
			<point x="229" y="-16"/>
		</contour>
	</outline>
</glyph>
<glyph name="nu" format="2">
	<unicode hex="03BD"/>
	<advance width="558"/>
	<outline>
		<contour>
			<point x="211" y="0" type="curve"/>
			<point x="352" y="0" type="line"/>
			<point x="428" y="135"/>
			<point x="522" y="289"/>
			<point x="522" y="406" type="curve" smooth="yes"/>
			<point x="522" y="434"/>
			<point x="520" y="450"/>
			<point x="513" y="474" type="curve"/>
			<point x="493" y="495"/>
			<point x="476" y="503"/>
			<point x="437" y="503" type="curve" smooth="yes"/>
			<point x="390" y="503"/>
			<point x="355" y="464"/>
			<point x="355" y="401" type="curve" smooth="yes"/>
			<point x="355" y="348"/>
			<point x="374" y="277"/>
			<point x="432" y="165" type="curve"/>
			<point x="424" y="351" type="line"/>
			<point x="402" y="235"/>
			<point x="360" y="128"/>
			<point x="324" y="61" type="curve"/>
			<point x="315" y="46" type="line"/>
			<point x="337" y="46" type="line"/>
			<point x="330" y="137"/>
			<point x="321" y="200"/>
			<point x="304" y="283" type="curve" smooth="yes"/>
			<point x="270" y="449"/>
			<point x="216" y="498"/>
			<point x="145" y="498" type="curve" smooth="yes"/>
			<point x="92" y="498"/>
			<point x="37" y="478"/>
			<point x="0" y="417" type="curve"/>
			<point x="16" y="381" type="line"/>
			<point x="26" y="385"/>
			<point x="35" y="387"/>
			<point x="48" y="387" type="curve" smooth="yes"/>
			<point x="73" y="387"/>
			<point x="99" y="349"/>
			<point x="142" y="221" type="curve" smooth="yes"/>
			<point x="167" y="147"/>
			<point x="191" y="77"/>
		</contour>
	</outline>
</glyph>
<glyph name="omicron" format="2">
	<unicode hex="03BF"/>
	<advance width="560"/>
	<outline>
		<contour>
			<point x="275" y="-16" type="curve" smooth="yes"/>
			<point x="426" y="-16"/>
			<point x="534" y="82"/>
			<point x="534" y="251" type="curve" smooth="yes"/>
			<point x="534" y="419"/>
			<point x="435" y="503"/>
			<point x="284" y="503" type="curve" smooth="yes"/>
			<point x="130" y="503"/>
			<point x="26" y="410"/>
			<point x="26" y="244" type="curve" smooth="yes"/>
			<point x="26" y="75"/>
			<point x="132" y="-16"/>
		</contour>
		<contour>
			<point x="293" y="48" type="curve" smooth="yes"/>
			<point x="250" y="48"/>
			<point x="202" y="114"/>
			<point x="202" y="296" type="curve" smooth="yes"/>
			<point x="202" y="402"/>
			<point x="224" y="439"/>
			<point x="264" y="439" type="curve" smooth="yes"/>
			<point x="308" y="439"/>
			<point x="358" y="370"/>
			<point x="358" y="187" type="curve" smooth="yes"/>
			<point x="358" y="89"/>
			<point x="337" y="48"/>
		</contour>
	</outline>
	<anchor name="aboveLC" x="280" y="507"/>
</glyph>
<glyph name="sigma.end" format="2">
	<unicode hex="03C2"/>
	<advance width="469"/>
	<outline>
		<contour>
			<point x="276" y="-206" type="curve"/>
			<point x="345" y="-206" type="line"/>
			<point x="391" y="-149"/>
			<point x="430" y="-90"/>
			<point x="430" y="-21" type="curve" smooth="yes"/>
			<point x="430" y="50"/>
			<point x="387" y="86"/>
			<point x="295" y="121" type="curve" smooth="yes"/>
			<point x="203" y="156"/>
			<point x="169" y="198"/>
			<point x="169" y="275" type="curve" smooth="yes"/>
			<point x="169" y="388"/>
			<point x="236" y="454"/>
			<point x="293" y="454" type="curve" smooth="yes"/>
			<point x="301" y="454"/>
			<point x="315" y="454"/>
			<point x="330" y="454" type="curve"/>
			<point x="241" y="465" type="line"/>
			<point x="293" y="403" type="line" smooth="yes"/>
			<point x="317" y="375"/>
			<point x="330" y="358"/>
			<point x="369" y="358" type="curve" smooth="yes"/>
			<point x="409" y="358"/>
			<point x="442" y="380"/>
			<point x="442" y="436" type="curve"/>
			<point x="415" y="477"/>
			<point x="355" y="503"/>
			<point x="288" y="503" type="curve" smooth="yes"/>
			<point x="116" y="503"/>
			<point x="30" y="390"/>
			<point x="30" y="237" type="curve" smooth="yes"/>
			<point x="30" y="96"/>
			<point x="101" y="31"/>
			<point x="215" y="-7" type="curve" smooth="yes"/>
			<point x="297" y="-34"/>
			<point x="311" y="-45"/>
			<point x="311" y="-82" type="curve" smooth="yes"/>
			<point x="311" y="-118"/>
			<point x="297" y="-160"/>
		</contour>
	</outline>
</glyph>
<glyph name="sigma" format="2">
	<unicode hex="03C3"/>
	<advance width="633"/>
	<outline>
		<contour>
			<point x="272" y="-16" type="curve" smooth="yes"/>
			<point x="431" y="-16"/>
			<point x="526" y="98"/>
			<point x="526" y="218" type="curve" smooth="yes"/>
			<point x="526" y="328"/>
			<point x="436" y="416"/>
			<point x="286" y="438" type="curve"/>
			<point x="269" y="435" type="line"/>
			<point x="325" y="405"/>
			<point x="358" y="302"/>
			<point x="358" y="203" type="curve" smooth="yes"/>
			<point x="358" y="125"/>
			<point x="342" y="48"/>
			<point x="294" y="48" type="curve" smooth="yes"/>
			<point x="236" y="48"/>
			<point x="202" y="141"/>
			<point x="202" y="271" type="curve" smooth="yes"/>
			<point x="202" y="363"/>
			<point x="243" y="424"/>
			<point x="301" y="434" type="curve"/>
			<point x="374" y="391" type="line"/>
			<point x="613" y="368" type="line"/>
			<point x="606" y="502" type="line"/>
			<point x="374" y="495" type="line" smooth="yes"/>
			<point x="118" y="487"/>
			<point x="26" y="397"/>
			<point x="26" y="237" type="curve" smooth="yes"/>
			<point x="26" y="75"/>
			<point x="136" y="-16"/>
		</contour>
	</outline>
</glyph>
<glyph name="upsilon" format="2">
	<unicode hex="03C5"/>
	<advance width="557"/>
	<outline>
		<contour>
			<point x="288" y="-16" type="curve" smooth="yes"/>
			<point x="419" y="-16"/>
			<point x="521" y="33"/>
			<point x="521" y="263" type="curve" smooth="yes"/>
			<point x="521" y="347"/>
			<point x="512" y="412"/>
			<point x="487" y="479" type="curve"/>
			<point x="470" y="495"/>
			<point x="453" y="503"/>
			<point x="423" y="503" type="curve" smooth="yes"/>
			<point x="378" y="503"/>
			<point x="341" y="472"/>
			<point x="341" y="408" type="curve" smooth="yes"/>
			<point x="341" y="341"/>
			<point x="409" y="260"/>
			<point x="473" y="197" type="curve"/>
			<point x="473" y="309" type="line"/>
			<point x="434" y="317" type="line"/>
			<point x="439" y="284"/>
			<point x="441" y="255"/>
			<point x="441" y="210" type="curve" smooth="yes"/>
			<point x="441" y="105"/>
			<point x="400" y="64"/>
			<point x="338" y="64" type="curve" smooth="yes"/>
			<point x="279" y="64"/>
			<point x="240" y="104"/>
			<point x="240" y="191" type="curve" smooth="yes"/>
			<point x="240" y="241"/>
			<point x="257" y="316"/>
			<point x="257" y="368" type="curve" smooth="yes"/>
			<point x="257" y="462"/>
			<point x="202" y="498"/>
			<point x="130" y="498" type="curve" smooth="yes"/>
			<point x="73" y="498"/>
			<point x="26" y="468"/>
			<point x="5" y="426" type="curve"/>
			<point x="20" y="391" type="line"/>
			<point x="25" y="391"/>
			<point x="36" y="391"/>
			<point x="41" y="391" type="curve" smooth="yes"/>
			<point x="67" y="391"/>
			<point x="83" y="375"/>
			<point x="83" y="325" type="curve" smooth="yes"/>
			<point x="83" y="266"/>
			<point x="66" y="227"/>
			<point x="66" y="167" type="curve" smooth="yes"/>
			<point x="66" y="34"/>
			<point x="161" y="-16"/>
		</contour>
	</outline>
	<anchor name="aboveLC" x="297" y="507"/>
</glyph>
